<?xml version="1.0" standalone="no"?>
<!DOCTYPE svg PUBLIC "-//W3C//DTD SVG 1.1//EN" "http://www.w3.org/Graphics/SVG/1.1/DTD/svg11.dtd" >
<svg xmlns="http://www.w3.org/2000/svg" xmlns:xlink="http://www.w3.org/1999/xlink" version="1.1">
<metadata>
Created by FontForge 20170731 at Thu Sep 27 14:01:10 2018
 By Aleksey,,,
Copyright (c) 2018 by Philipp Herrmann. All rights reserved.
</metadata>
<defs>
<font id="Atak-Regular" horiz-adv-x="630" >
  <font-face 
    font-family="Atak"
    font-weight="400"
    font-stretch="normal"
    units-per-em="1000"
    panose-1="2 1 6 3 6 4 3 6 1 4"
    ascent="700"
    descent="-300"
    x-height="525"
    cap-height="700"
    bbox="-848 -273 1012 990"
    underline-thickness="20"
    underline-position="-180"
    unicode-range="U+000D-FB02"
  />
<missing-glyph horiz-adv-x="642" 
d="M87 740h468v-740h-468v740zM321 418l155 275h-310zM133 82l161 288l-161 287v-575zM509 82v575l-161 -287zM476 46l-155 276l-155 -276h310z" />
    <glyph glyph-name="fi" unicode="fi" horiz-adv-x="672" 
d="M550 598q-30 0 -51 21t-21 52q0 30 21 51t51 21q31 0 52 -21t21 -51q0 -31 -21 -52t-52 -21zM126 0v454h-111v71h111v26q0 84 43 123.5t118 39.5q45 0 93 -15v-71q-42 15 -82 15q-47 0 -66 -21t-19 -72v-25h165v-71h-165v-454h-87zM506 525h88v-525h-88v525z" />
    <glyph glyph-name="fl" unicode="fl" horiz-adv-x="662" 
d="M126 0v454h-111v71h111v26q0 84 43 123.5t118 39.5q45 0 93 -15v-71q-42 15 -82 15q-47 0 -66 -21t-19 -72v-25h165v-71h-165v-454h-87zM496 700h88v-700h-88v700z" />
    <glyph glyph-name="f_f" unicode="ff" horiz-adv-x="731" 
d="M640 643q-47 0 -66 -21t-19 -72v-25h165v-71h-165v-454h-87v454h-255v-454h-87v454h-111v71h111v26q0 84 43 123.5t118 39.5q45 0 93 -15v-71q-42 15 -82 15q-47 0 -66 -21t-19 -72v-25h255v26q0 84 43 123.5t118 39.5q45 0 93 -15v-71q-42 15 -82 15z" />
    <glyph glyph-name="f_f_i" unicode="ffi" horiz-adv-x="1016" 
d="M895 743q30 0 51 -21t21 -51q0 -31 -21 -52t-51 -21q-31 0 -52 21t-21 52q0 30 21 51t52 21zM468 551q0 84 43 123.5t118 39.5q45 0 93 -15v-71q-42 15 -82 15q-47 0 -66 -21t-19 -72v-25h165v-71h-165v-454h-87v454h-255v-454h-87v454h-111v71h111v26q0 84 43 123.5
t118 39.5q45 0 93 -15v-71q-42 15 -82 15q-47 0 -66 -21t-19 -72v-25h255v26zM851 0v525h88v-525h-88z" />
    <glyph glyph-name="f_f_l" unicode="ffl" horiz-adv-x="1004" 
d="M468 551q0 84 43 123.5t118 39.5q45 0 93 -15v-71q-42 15 -82 15q-47 0 -66 -21t-19 -72v-25h165v-71h-165v-454h-87v454h-255v-454h-87v454h-111v71h111v26q0 84 43 123.5t118 39.5q45 0 93 -15v-71q-42 15 -82 15q-47 0 -66 -21t-19 -72v-25h255v26zM838 700h88v-700
h-88v700z" />
    <glyph glyph-name=".notdef" horiz-adv-x="642" 
d="M87 740h468v-740h-468v740zM321 418l155 275h-310zM133 82l161 288l-161 287v-575zM509 82v575l-161 -287zM476 46l-155 276l-155 -276h310z" />
    <glyph glyph-name=".null" horiz-adv-x="0" 
 />
    <glyph glyph-name="nonmarkingreturn" horiz-adv-x="333" 
 />
    <glyph glyph-name="CR" unicode="&#xd;" horiz-adv-x="249" 
 />
    <glyph glyph-name="space" unicode=" " horiz-adv-x="249" 
 />
    <glyph glyph-name="exclam" unicode="!" horiz-adv-x="270" 
d="M110 204q-20 128 -20 199v297h92v-297q0 -71 -20 -199h-52zM134 -14q-32 0 -55 23t-23 55t23 54.5t55 22.5t54.5 -22.5t22.5 -54.5t-22.5 -55t-54.5 -23z" />
    <glyph glyph-name="quotedbl" unicode="&#x22;" horiz-adv-x="390" 
d="M83 399q-22 119 -22 208v93h99v-93q0 -89 -22 -208h-55zM252 399q-23 125 -23 208v93h100v-93q0 -93 -23 -208h-54z" />
    <glyph glyph-name="numbersign" unicode="#" horiz-adv-x="760" 
d="M707 440h-118l-58 -156h125l-23 -63h-125l-81 -221h-85l81 221h-194l-81 -221h-84l81 221h-113l24 63h112l58 156h-120l24 63h119l72 197h84l-72 -197h194l72 197h85l-72 -197h118zM446 284l58 156h-194l-58 -156h194z" />
    <glyph glyph-name="dollar" unicode="$" horiz-adv-x="524" 
d="M482 208q0 -78 -47.5 -124t-127.5 -55v-87h-82v86q-86 10 -133.5 63.5t-50.5 143.5l84 9q5 -77 38.5 -112.5t100.5 -35.5q61 0 95 27.5t34 77.5q0 77 -92 108l-93 32q-76 25 -116.5 64t-40.5 106q0 66 44.5 108t121.5 52v89h81v-89q150 -20 174 -188l-80 -8
q-17 129 -139 129q-54 0 -84 -23t-30 -65q0 -35 22.5 -57t78.5 -42l92 -32q77 -27 113.5 -69.5t36.5 -107.5z" />
    <glyph glyph-name="percent" unicode="%" horiz-adv-x="633" 
d="M189 426q-61 0 -104 42t-43 101q0 60 43 102.5t104 42.5q62 0 104.5 -42.5t42.5 -102.5t-42.5 -101.5t-104.5 -41.5zM522 700h62l-484 -700h-61zM189 488q34 0 58 24t24 57q0 34 -24 57.5t-58 23.5q-33 0 -56.5 -23.5t-23.5 -57.5q0 -33 23.5 -57t56.5 -24zM451 -15
q-61 0 -104 42t-43 101q0 60 43 102.5t104 42.5q62 0 104.5 -42.5t42.5 -102.5t-42.5 -101.5t-104.5 -41.5zM451 48q34 0 58 23.5t24 56.5q0 34 -24 57.5t-58 23.5q-33 0 -56.5 -23.5t-23.5 -57.5q0 -33 23.5 -56.5t56.5 -23.5z" />
    <glyph glyph-name="ampersand" unicode="&#x26;" horiz-adv-x="641" 
d="M598 0h-100l-34 46q-73 -60 -187 -60t-176 55.5t-62 144.5q0 70 41 121t123 93q-71 102 -71 167q0 63 48 105t132 42q82 0 128.5 -41t46.5 -106q0 -56 -39.5 -100t-129.5 -86l154 -209q47 87 48 241h77q-7 -199 -78 -306zM314 645q-46 0 -70.5 -23t-24.5 -57
q0 -46 60 -131q71 35 99 64.5t28 64.5q0 37 -24 59.5t-68 22.5zM285 62q81 0 134 44l-176 239q-115 -64 -115 -155q0 -60 41.5 -94t115.5 -34z" />
    <glyph glyph-name="quotesingle" unicode="'" horiz-adv-x="221" 
d="M83 399q-22 119 -22 208v93h99v-93q0 -89 -22 -208h-55z" />
    <glyph glyph-name="parenleft" unicode="(" horiz-adv-x="297" 
d="M271 700q-60 -105 -93.5 -202t-33.5 -222t33.5 -222.5t93.5 -203.5h-71q-154 199 -154 426t154 424h71z" />
    <glyph glyph-name="parenright" unicode=")" horiz-adv-x="296" 
d="M26 700h71q154 -197 154 -424t-154 -426h-71q60 106 93.5 203.5t33.5 222.5t-33.5 222t-93.5 202z" />
    <glyph glyph-name="asterisk" unicode="*" horiz-adv-x="491" 
d="M142 376l-54 39l101 137l-143 47l20 64l146 -48v159h67v-159l147 48l20 -64l-143 -47l100 -137l-54 -39l-103 142z" />
    <glyph glyph-name="plus" unicode="+" horiz-adv-x="590" 
d="M253 624h84v-225h220v-75h-220v-225h-84v225h-220v75h220v225z" />
    <glyph glyph-name="comma" unicode="," horiz-adv-x="263" 
d="M210 70q0 -24 -13 -44t-34 -29l-74 -147h-57l56 154q-35 23 -35 66q0 32 23 55t56 23q32 0 55 -23t23 -55z" />
    <glyph glyph-name="hyphen" unicode="-" horiz-adv-x="474" 
d="M66 260v80h342v-80h-342z" />
    <glyph glyph-name="period" unicode="." horiz-adv-x="259" 
d="M130 -14q-33 0 -56 23t-23 55q0 33 23 55.5t56 22.5q32 0 55 -22.5t23 -55.5q0 -32 -23 -55t-55 -23z" />
    <glyph glyph-name="slash" unicode="/" horiz-adv-x="483" 
d="M367 750h94l-345 -940h-94z" />
    <glyph glyph-name="zero" unicode="0" 
d="M576 350q0 172 -67.5 268t-193.5 96q-127 0 -194.5 -96t-67.5 -268t67.5 -268t194.5 -96q126 0 193.5 96t67.5 268zM479 373v-46q0 -261 -164 -261t-164 261v46q0 261 164 261t164 -261z" />
    <glyph glyph-name="one" unicode="1" horiz-adv-x="486" 
d="M306 700h89v-700h-92v598l-276 -212v109z" />
    <glyph glyph-name="two" unicode="2" horiz-adv-x="573" 
d="M51 0v46q0 67 38.5 121t131.5 113l83 53q68 43 97.5 83t29.5 92q0 56 -34 91t-99 35q-70 0 -110 -44t-45 -127l-93 7q8 114 71.5 179t177.5 65q107 0 166.5 -56t59.5 -150q0 -76 -41.5 -130t-128.5 -109l-82 -52q-72 -47 -97 -77t-26 -60h365v-80h-464z" />
    <glyph glyph-name="three" unicode="3" horiz-adv-x="590" 
d="M303 -14q-116 0 -181 62.5t-71 181.5l92 5q10 -169 159 -169q65 0 104 32t39 98q0 124 -158 124h-58v72h57q150 0 150 124q0 118 -135 118q-145 0 -156 -153l-94 6q11 107 76 167t175 60q106 0 165.5 -53t59.5 -136q0 -66 -37 -107.5t-97 -56.5q68 -9 106.5 -51
t38.5 -119q0 -98 -64 -151.5t-171 -53.5z" />
    <glyph glyph-name="four" unicode="4" horiz-adv-x="592" 
d="M22 211v79l316 410h125v-413h92v-76h-92v-211h-92v211h-349zM371 287v335l-249 -335h249z" />
    <glyph glyph-name="five" unicode="5" horiz-adv-x="583" 
d="M322 458q99 0 159.5 -61.5t60.5 -170.5q0 -110 -63.5 -175t-181.5 -65q-110 0 -172.5 56.5t-73.5 158.5l88 10q17 -149 156 -149q77 0 114.5 43t37.5 121q0 77 -37 118t-109 41q-100 0 -158 -81l-79 12l32 384h414v-75h-338l-26 -248q58 81 176 81z" />
    <glyph glyph-name="six" unicode="6" horiz-adv-x="616" 
d="M317 -14q-133 0 -198.5 91.5t-65.5 257.5q0 180 73 279.5t207 99.5q98 0 157.5 -53t70.5 -146l-88 -10q-11 71 -46 102.5t-96 31.5q-176 0 -186 -292q52 107 189 107q103 0 165 -63.5t62 -168.5q0 -107 -65 -171.5t-179 -64.5zM317 62q70 0 111 42t41 118t-41 118
t-111 42t-111 -42t-41 -118t41 -118t111 -42z" />
    <glyph glyph-name="seven" unicode="7" horiz-adv-x="521" 
d="M22 700h491l-321 -700h-103l299 621h-366v79z" />
    <glyph glyph-name="eight" unicode="8" horiz-adv-x="601" 
d="M300 -14q-113 0 -180.5 55.5t-67.5 144.5q0 63 40 112t106 65q-58 20 -94 65t-36 100q0 82 62 134t170 52t170 -52t62 -134q0 -55 -35.5 -100t-93.5 -65q66 -16 106 -65t40 -112q0 -89 -68 -144.5t-181 -55.5zM300 401q63 0 101 35t38 90q0 54 -37 86t-102 32
q-64 0 -101.5 -32t-37.5 -86q0 -55 38 -90t101 -35zM300 60q72 0 113 35t41 96q0 62 -41.5 98t-112.5 36t-112.5 -36t-41.5 -98q0 -61 41 -96t113 -35z" />
    <glyph glyph-name="nine" unicode="9" horiz-adv-x="610" 
d="M296 -14q-102 0 -162 53.5t-71 149.5l89 9q19 -136 145 -136q87 0 126 68t44 221q-52 -103 -180 -103q-104 0 -170 63.5t-66 167.5q0 106 68.5 170.5t182.5 64.5q253 0 253 -357q0 -371 -259 -371zM301 321q70 0 110.5 42t40.5 117t-40.5 117t-110.5 42q-72 0 -114.5 -42
t-42.5 -117q0 -74 43 -116.5t114 -42.5z" />
    <glyph glyph-name="colon" unicode=":" horiz-adv-x="287" 
d="M143 383q-32 0 -55 23t-23 55t23 55t55 23q33 0 56 -23t23 -55t-23 -55t-56 -23zM143 -14q-32 0 -55 23t-23 55q0 33 23 55.5t55 22.5q33 0 56 -22.5t23 -55.5q0 -32 -23 -55t-56 -23z" />
    <glyph glyph-name="semicolon" unicode=";" horiz-adv-x="295" 
d="M149 383q-33 0 -55.5 23t-22.5 55t22.5 55t55.5 23q32 0 55 -23t23 -55t-23 -55t-55 -23zM149 148q32 0 55 -23t23 -55q0 -24 -13 -44t-34 -29l-74 -147h-57l57 154q-35 23 -35 66q0 32 22.5 55t55.5 23z" />
    <glyph glyph-name="less" unicode="&#x3c;" horiz-adv-x="546" 
d="M477 622v-83l-368 -180l368 -180v-83l-444 219v89z" />
    <glyph glyph-name="equal" unicode="=" horiz-adv-x="628" 
d="M69 409v75h490v-75h-490zM69 231v75h490v-75h-490z" />
    <glyph glyph-name="greater" unicode="&#x3e;" horiz-adv-x="546" 
d="M69 622l444 -218v-90l-444 -218v83l367 180l-367 180v83z" />
    <glyph glyph-name="question" unicode="?" horiz-adv-x="520" 
d="M264 714q98 0 159 -51.5t61 -138.5q0 -78 -52 -126t-143 -59q0 -67 -17 -135h-50q-17 70 -17 139v56h18q85 0 128.5 32t43.5 91q0 54 -34.5 85.5t-96.5 31.5q-65 0 -103 -34.5t-44 -94.5l-87 8q10 90 72 143t162 53zM245 141q32 0 55 -22.5t23 -54.5t-23 -55t-55 -23
t-55 23t-23 55t23 54.5t55 22.5z" />
    <glyph glyph-name="at" unicode="@" horiz-adv-x="911" 
d="M480 306h73v17q0 54 -25 77.5t-78 23.5q-39 0 -62.5 -18t-32.5 -64l-81 4q22 138 181 138q174 0 174 -165v-141q0 -71 65 -71q100 0 100 164q0 151 -85.5 245.5t-250.5 94.5t-255.5 -102.5t-90.5 -250.5q0 -146 91 -248.5t246 -102.5q132 0 219 68l36 -51
q-94 -77 -255 -77q-184 0 -295.5 118.5t-111.5 292.5t113 292.5t303 118.5q192 0 298.5 -112.5t106.5 -285.5q0 -111 -48 -165t-127 -54q-104 0 -121 89q-20 -45 -62.5 -69.5t-97.5 -24.5q-66 0 -106 35t-40 90q0 64 57 99t162 35zM554 252h-71q-140 0 -140 -79
q0 -31 22.5 -49t58.5 -18q56 0 93.5 41t36.5 105z" />
    <glyph glyph-name="A" unicode="A" horiz-adv-x="682" 
d="M572 0l-81 217h-306l-80 -217h-97l269 700h128l269 -700h-102zM212 290h252l-126 340z" />
    <glyph glyph-name="B" unicode="B" horiz-adv-x="644" 
d="M89 0v700h244q114 0 178.5 -45.5t64.5 -130.5q0 -62 -31 -103t-80 -59q126 -40 126 -172q0 -190 -256 -190h-246zM181 395h172q131 0 131 113t-131 113h-172v-226zM181 80h179q139 0 139 119q0 120 -139 120h-179v-239z" />
    <glyph glyph-name="C" unicode="C" horiz-adv-x="735" 
d="M387 -14q-153 0 -245.5 98.5t-92.5 264.5q0 169 89.5 267t242.5 98q123 0 204 -65t109 -178l-96 -12q-22 87 -79 130.5t-137 43.5q-106 0 -170 -73t-64 -211q0 -135 67 -208.5t173 -73.5q84 0 142.5 48t72.5 139l96 -6q-21 -120 -102 -191t-210 -71z" />
    <glyph glyph-name="D" unicode="D" horiz-adv-x="708" 
d="M89 0v700h213q356 0 356 -343q0 -177 -93.5 -267t-262.5 -90h-213zM182 79h92q153 0 219.5 66.5t66.5 211.5q0 142 -66 203.5t-220 61.5h-92v-543z" />
    <glyph glyph-name="E" unicode="E" horiz-adv-x="588" 
d="M89 0v700h440v-79h-347v-214h327v-78h-327v-249h347v-80h-440z" />
    <glyph glyph-name="F" unicode="F" horiz-adv-x="562" 
d="M89 700h439v-80h-346v-190h327v-80h-327v-350h-93v700z" />
    <glyph glyph-name="G" unicode="G" horiz-adv-x="758" 
d="M323 365h389v-16q0 -173 -86.5 -268t-238.5 -95q-156 0 -247 99t-91 265t91 265t249 99q124 0 204 -62t106 -173l-94 -15q-40 169 -215 169q-112 0 -177 -72t-65 -211t66 -211t174 -72q96 0 160 56.5t71 163.5h-296v78z" />
    <glyph glyph-name="H" unicode="H" horiz-adv-x="754" 
d="M89 0v700h93v-295h390v295h94v-700h-94v326h-390v-326h-93z" />
    <glyph glyph-name="I" unicode="I" horiz-adv-x="271" 
d="M89 0v700h93v-700h-93z" />
    <glyph glyph-name="J" unicode="J" horiz-adv-x="467" 
d="M153 -14q-77 0 -136 28v89q79 -32 130 -32q70 0 107 35t37 131v463h93v-471q0 -126 -57.5 -184.5t-173.5 -58.5z" />
    <glyph glyph-name="K" unicode="K" horiz-adv-x="639" 
d="M637 0h-123l-332 349v-349h-93v700h93v-326l337 326h113l-344 -335z" />
    <glyph glyph-name="L" unicode="L" horiz-adv-x="493" 
d="M89 700h93v-621h285v-79h-378v700z" />
    <glyph glyph-name="M" unicode="M" horiz-adv-x="930" 
d="M697 700h145v-700h-92v610l-242 -610h-90l-241 609v-609h-88v700h152l227 -584z" />
    <glyph glyph-name="N" unicode="N" horiz-adv-x="779" 
d="M601 700h89v-700h-129l-382 606v-606h-90v700h135l377 -596v596z" />
    <glyph glyph-name="O" unicode="O" horiz-adv-x="769" 
d="M384 -14q-152 0 -244 100t-92 264t92 264t244 100t244.5 -100t92.5 -264t-92.5 -264t-244.5 -100zM384 67q108 0 173.5 74.5t65.5 208.5q0 135 -65.5 209t-173.5 74t-172.5 -74t-64.5 -209q0 -134 65 -208.5t172 -74.5z" />
    <glyph glyph-name="P" unicode="P" horiz-adv-x="616" 
d="M89 0v700h222q143 0 210 -58.5t67 -154.5q0 -97 -67 -155.5t-212 -58.5h-127v-273h-93zM182 349h128q180 0 180 136q0 137 -180 137h-128v-273z" />
    <glyph glyph-name="Q" unicode="Q" horiz-adv-x="767" 
d="M719 350q0 -153 -79 -250.5t-214 -111.5v-128h-84v128q-135 14 -214.5 111t-79.5 251q0 165 91.5 264.5t243.5 99.5t244 -99.5t92 -264.5zM426 70q89 15 142 85t53 182v24q0 128 -65 200t-173 72t-172.5 -72t-64.5 -200v-24q0 -113 53 -183t143 -84v267h84v-267z" />
    <glyph glyph-name="R" unicode="R" horiz-adv-x="622" 
d="M610 0h-118l-310 343v-343h-93v700h240q116 0 178.5 -51.5t62.5 -139.5q0 -87 -62.5 -137t-179.5 -50h-16zM182 621v-226h149q142 0 142 113t-142 113h-149z" />
    <glyph glyph-name="S" unicode="S" horiz-adv-x="597" 
d="M306 -14q-121 0 -188 57.5t-77 163.5l94 10q11 -80 53 -116.5t117 -36.5q74 0 111.5 31t37.5 88q0 44 -24.5 73t-77.5 45l-125 41q-168 52 -168 186q0 85 64 135.5t173 50.5t171.5 -53.5t74.5 -153.5l-89 -11q-10 74 -46.5 107.5t-111.5 33.5q-70 0 -105.5 -28.5
t-35.5 -78.5q0 -41 25 -66t84 -43l124 -38q163 -50 163 -198q0 -97 -64.5 -148t-179.5 -51z" />
    <glyph glyph-name="T" unicode="T" horiz-adv-x="583" 
d="M245 0v622h-233v78h559v-78h-233v-622h-93z" />
    <glyph glyph-name="U" unicode="U" horiz-adv-x="733" 
d="M367 -14q-286 0 -286 312v402h95v-409q0 -225 192 -225q194 0 194 225v409h90v-402q0 -312 -285 -312z" />
    <glyph glyph-name="V" unicode="V" horiz-adv-x="652" 
d="M543 700h94l-245 -700h-131l-247 700h102l214 -610z" />
    <glyph glyph-name="W" unicode="W" horiz-adv-x="1006" 
d="M895 700h95l-213 -700h-123l-151 589l-151 -589h-123l-212 700h99l178 -601l154 601h116l157 -599z" />
    <glyph glyph-name="X" unicode="X" horiz-adv-x="612" 
d="M608 0h-109l-198 298l-195 -298h-102l252 364l-232 336h109l176 -267l177 267h101l-236 -330z" />
    <glyph glyph-name="Y" unicode="Y" horiz-adv-x="661" 
d="M284 0v323l-271 377h108l214 -299l214 299h99l-271 -376v-324h-93z" />
    <glyph glyph-name="Z" unicode="Z" horiz-adv-x="584" 
d="M556 700l-381 -621h380v-79h-534l386 622h-368v78h517z" />
    <glyph glyph-name="bracketleft" unicode="[" horiz-adv-x="378" 
d="M87 700h264v-75h-173v-684h173v-75h-264v834z" />
    <glyph glyph-name="backslash" unicode="\" horiz-adv-x="483" 
d="M116 750l345 -940h-94l-345 940h94z" />
    <glyph glyph-name="bracketright" unicode="]" horiz-adv-x="378" 
d="M291 700v-834h-264v75h172v684h-172v75h264z" />
    <glyph glyph-name="asciicircum" unicode="^" 
d="M33 310l234 390h97l234 -390h-93l-189 324l-191 -324h-92z" />
    <glyph glyph-name="underscore" unicode="_" horiz-adv-x="680" 
d="M41 -187v75h599v-75h-599z" />
    <glyph glyph-name="grave" unicode="`" horiz-adv-x="303" 
d="M127 576l-121 164h115l86 -164h-80z" />
    <glyph glyph-name="a" unicode="a" horiz-adv-x="556" 
d="M220 -14q-80 0 -126.5 42t-46.5 115q0 81 60 127.5t174 46.5q71 0 119 -20v32q0 138 -125 138q-115 0 -130 -110l-88 8q27 174 219 174q209 0 209 -218v-321h-85v110q-19 -61 -66 -92.5t-114 -31.5zM239 59q73 0 117.5 53t43.5 144h-86q-176 0 -176 -110q0 -42 27 -64.5
t74 -22.5z" />
    <glyph glyph-name="b" unicode="b" horiz-adv-x="625" 
d="M352 539q104 0 166.5 -76t62.5 -200q0 -123 -62 -200t-169 -77q-127 0 -186 102l-10 -88h-76v700h86v-267q25 49 75 77.5t113 28.5zM326 60q71 0 117 52t46 151t-46 151t-117 52q-72 0 -118 -52t-46 -151t46 -151t118 -52z" />
    <glyph glyph-name="c" unicode="c" horiz-adv-x="575" 
d="M300 -14q-120 0 -188 75t-68 202t68.5 201.5t187.5 74.5q96 0 160 -49.5t79 -143.5l-88 -10q-10 61 -48 95.5t-102 34.5q-77 0 -121 -52.5t-44 -150.5t43 -151t122 -53q65 0 104.5 35.5t46.5 103.5l88 -9q-16 -101 -79.5 -152t-160.5 -51z" />
    <glyph glyph-name="d" unicode="d" horiz-adv-x="622" 
d="M458 700h86v-700h-86v96q-21 -52 -66.5 -81t-109.5 -29q-106 0 -172.5 76.5t-66.5 199.5t67 200t172 77q63 0 109 -28t67 -77v266zM299 60q72 0 118 52t46 150q0 100 -46 152t-118 52q-71 0 -117 -52t-46 -152q0 -98 46 -150t117 -52z" />
    <glyph glyph-name="e" unicode="e" horiz-adv-x="582" 
d="M294 539q119 0 185 -81t58 -212h-405q2 -82 44 -134.5t124 -52.5q122 0 151 120l82 -14q-15 -78 -75.5 -128.5t-157.5 -50.5q-119 0 -187.5 77t-68.5 202q0 126 68.5 200t181.5 74zM132 312h315q0 60 -39 107.5t-114 47.5q-74 0 -116 -46.5t-46 -108.5z" />
    <glyph glyph-name="f" unicode="f" horiz-adv-x="390" 
d="M126 0v454h-111v71h111v26q0 84 43 123.5t118 39.5q45 0 93 -15v-71q-42 15 -82 15q-47 0 -66 -21t-19 -72v-25h165v-71h-165v-454h-87z" />
    <glyph glyph-name="g" unicode="g" horiz-adv-x="622" 
d="M458 525h87v-460q0 -139 -61.5 -204t-185.5 -65q-202 0 -231 160l91 14q14 -56 48.5 -79.5t91.5 -23.5q78 0 119 43.5t41 143.5v75q-44 -110 -178 -110q-107 0 -171 71.5t-64 188.5t64.5 188.5t170.5 71.5q67 0 113 -29t65 -81v96zM294 91q72 0 116.5 48.5t44.5 138.5
q0 91 -44.5 139.5t-116.5 48.5t-116.5 -48.5t-44.5 -139.5q0 -90 44.5 -138.5t116.5 -48.5z" />
    <glyph glyph-name="h" unicode="h" horiz-adv-x="594" 
d="M339 539q86 0 135 -54.5t49 -153.5v-331h-88v315q0 152 -125 152q-66 0 -105 -40t-39 -112v-315h-88v700h88v-266q17 49 64 77t109 28z" />
    <glyph glyph-name="i" unicode="i" horiz-adv-x="243" 
d="M122 598q-31 0 -52 21t-21 52q0 30 21 51t52 21q30 0 51 -21t21 -51q0 -31 -21 -52t-51 -21zM78 525h88v-525h-88v525z" />
    <glyph glyph-name="j" unicode="j" horiz-adv-x="251" 
d="M129 598q-30 0 -51 21t-21 52q0 30 21 51t51 21q31 0 52 -21t21 -51q0 -31 -21 -52t-52 -21zM21 -190q-33 0 -60 7v72q26 -7 48 -7q39 0 57.5 18.5t18.5 61.5v563h88v-566q0 -77 -41 -113t-111 -36z" />
    <glyph glyph-name="k" unicode="k" horiz-adv-x="524" 
d="M531 -1h-110l-255 275v-274h-88v700h88v-403l234 228h105l-240 -233z" />
    <glyph glyph-name="l" unicode="l" horiz-adv-x="243" 
d="M78 700h88v-700h-88v700z" />
    <glyph glyph-name="m" unicode="m" horiz-adv-x="898" 
d="M651 539q75 0 125.5 -49t50.5 -141v-349h-87v329q0 138 -115 138q-62 0 -95 -37t-33 -107v-323h-88v328q0 139 -114 139q-62 0 -95.5 -38.5t-33.5 -105.5v-323h-88v525h88v-88q20 47 61.5 74.5t96.5 27.5q53 0 96.5 -26t62.5 -76q21 47 66.5 74.5t101.5 27.5z" />
    <glyph glyph-name="n" unicode="n" horiz-adv-x="604" 
d="M341 539q90 0 141 -56t51 -157v-326h-88v312q0 154 -132 154q-69 0 -108 -40t-39 -114v-312h-88v525h88v-90q17 47 63.5 75.5t111.5 28.5z" />
    <glyph glyph-name="o" unicode="o" horiz-adv-x="621" 
d="M311 -14q-124 0 -196 75.5t-72 200.5t71.5 201t196.5 76q124 0 195.5 -76t71.5 -201t-71.5 -200.5t-195.5 -75.5zM311 59q82 0 128.5 52.5t46.5 150.5t-47 151t-128 53q-82 0 -129 -53t-47 -151q0 -97 47 -150t129 -53z" />
    <glyph glyph-name="p" unicode="p" horiz-adv-x="624" 
d="M349 539q105 0 168.5 -76.5t63.5 -200.5q0 -122 -62.5 -199t-169.5 -77q-126 0 -185 102v-278h-86v715h86v-90q25 49 73.5 76.5t111.5 27.5zM326 59q71 0 117 52.5t46 150.5q0 99 -46 151.5t-117 52.5q-72 0 -118 -52.5t-46 -151.5q0 -98 46 -150.5t118 -52.5z" />
    <glyph glyph-name="q" unicode="q" horiz-adv-x="624" 
d="M469 525h78v-715h-87v279q-24 -48 -72 -75.5t-109 -27.5q-105 0 -170 77t-65 200q0 122 63.5 199t170.5 77q124 0 181 -102zM301 59q71 0 116.5 52.5t45.5 151.5t-46 151t-118 52q-71 0 -117 -52t-46 -151t46.5 -151.5t118.5 -52.5z" />
    <glyph glyph-name="r" unicode="r" horiz-adv-x="383" 
d="M78 0v525h88v-87q43 101 148 101q29 0 56 -10v-78q-33 9 -64 9q-140 0 -140 -173v-287h-88z" />
    <glyph glyph-name="s" unicode="s" horiz-adv-x="496" 
d="M251 -14q-195 0 -212 171l88 7q4 -57 34 -82t90 -25q116 0 116 86q0 33 -19 52t-62 29l-87 21q-149 33 -149 146q0 68 54 108t143 40q173 0 200 -159l-83 -11q-8 51 -36 75t-84 24q-53 0 -81.5 -19.5t-28.5 -55.5q0 -28 19.5 -45t65.5 -28l82 -20q79 -18 115.5 -55.5
t36.5 -97.5q0 -78 -53.5 -119.5t-148.5 -41.5z" />
    <glyph glyph-name="t" unicode="t" horiz-adv-x="416" 
d="M395 453h-184v-277q0 -64 23.5 -88t78.5 -24q38 0 82 10v-73q-52 -11 -98 -11q-88 0 -130.5 40t-42.5 132v291h-112v72h112v96l87 41v-137h184v-72z" />
    <glyph glyph-name="u" unicode="u" horiz-adv-x="594" 
d="M429 525h87v-525h-87v99q-16 -54 -58.5 -83.5t-106.5 -29.5q-85 0 -139 54t-54 163v322h88v-298q0 -169 125 -169q68 0 106.5 45t38.5 129v293z" />
    <glyph glyph-name="v" unicode="v" horiz-adv-x="529" 
d="M424 525h91l-201 -525h-99l-200 525h97l157 -431z" />
    <glyph glyph-name="w" unicode="w" horiz-adv-x="799" 
d="M698 525h85l-167 -525h-93l-124 418l-122 -418h-94l-166 525h95l123 -422l124 422h91l124 -427z" />
    <glyph glyph-name="x" unicode="x" horiz-adv-x="518" 
d="M512 0h-108l-148 204l-145 -204h-97l196 265l-197 260h107l141 -191l137 191h98l-190 -252z" />
    <glyph glyph-name="y" unicode="y" horiz-adv-x="562" 
d="M463 525h89l-242 -550q-44 -101 -86 -140t-110 -39q-38 0 -81 18v79q43 -17 75 -17q40 0 60.5 21t52.5 83l17 32l-228 513h98l179 -413z" />
    <glyph glyph-name="z" unicode="z" horiz-adv-x="487" 
d="M464 525l-300 -454h285v-71h-431l303 454h-278v71h421z" />
    <glyph glyph-name="braceleft" unicode="{" horiz-adv-x="345" 
d="M319 -134q-201 0 -201 187v96q0 60 -24 79.5t-70 19.5v70q46 0 70 19.5t24 79.5v97q0 186 201 186v-60q-60 0 -88.5 -28.5t-28.5 -88.5v-108q0 -66 -16.5 -94.5t-59.5 -37.5q43 -9 59.5 -37.5t16.5 -94.5v-108q0 -60 28.5 -88.5t88.5 -28.5v-60z" />
    <glyph glyph-name="bar" unicode="|" horiz-adv-x="256" 
d="M87 700h82v-813h-82v813z" />
    <glyph glyph-name="braceright" unicode="}" horiz-adv-x="345" 
d="M26 -134v60q60 0 88.5 28.5t28.5 88.5v108q0 66 17 94.5t60 37.5q-43 9 -60 37.5t-17 94.5v108q0 60 -28.5 88.5t-88.5 28.5v60q201 0 201 -186v-97q0 -60 24 -79.5t70 -19.5v-70q-46 0 -70 -19.5t-24 -79.5v-96q0 -187 -201 -187z" />
    <glyph glyph-name="asciitilde" unicode="~" 
d="M120 277l-54 41q68 86 152 86q41 0 103.5 -30t93.5 -30q53 0 97 52l55 -41q-70 -86 -153 -86q-41 0 -102.5 30t-94.5 30q-53 0 -97 -52z" />
    <glyph glyph-name="uni00A0" unicode="&#xa0;" horiz-adv-x="249" 
 />
    <glyph glyph-name="exclamdown" unicode="&#xa1;" horiz-adv-x="260" 
d="M131 539q32 0 55 -23t23 -55t-23 -54.5t-55 -22.5t-55 22.5t-23 54.5t23 55t55 23zM154 321q20 -120 20 -199v-297h-91v297q0 79 20 199h51z" />
    <glyph glyph-name="cent" unicode="&#xa2;" horiz-adv-x="577" 
d="M539 209q-33 -175 -197 -195v-72h-82v73q-101 13 -157 86t-56 188t56.5 187.5t156.5 85.5v80h81v-79q78 -9 129.5 -55t67.5 -128l-83 -12q-13 58 -51 91t-100 33q-78 0 -121.5 -52.5t-43.5 -150.5t43.5 -151t121.5 -53q63 0 103 34.5t50 100.5z" />
    <glyph glyph-name="sterling" unicode="&#xa3;" horiz-adv-x="637" 
d="M103 -14l-59 80q126 96 126 245h-129v68h111q-35 72 -35 138q0 86 64 141.5t171 55.5q111 0 169.5 -62t67.5 -171l-88 -9q-9 80 -43 121t-110 41q-137 0 -137 -127q0 -62 32 -128h159v-68h-144q0 -129 -99 -228q50 23 93 23q36 0 93 -20t89 -20q61 0 132 51l33 -70
q-81 -61 -166 -61q-43 0 -108.5 20.5t-101.5 20.5q-59 0 -120 -41z" />
    <glyph glyph-name="currency" unicode="&#xa4;" horiz-adv-x="606" 
d="M528 314q0 -75 -45 -134l69 -69l-51 -46l-67 67q-59 -43 -131 -43q-73 0 -132 43l-67 -67l-50 46l69 69q-45 59 -45 134t45 134l-69 69l50 46l67 -67q59 43 132 43q72 0 131 -43l67 67l51 -46l-69 -69q45 -59 45 -134zM303 169q65 0 105.5 40.5t40.5 105.5t-40.5 105.5
t-105.5 40.5t-106 -41t-41 -105t41 -105t106 -41z" />
    <glyph glyph-name="yen" unicode="&#xa5;" horiz-adv-x="693" 
d="M644 380h-209l-33 -52h242v-65h-259v-263h-92v263h-239v65h221l-33 52h-188v65h147l-160 255h104l197 -332l196 332h98l-160 -255h168v-65z" />
    <glyph glyph-name="brokenbar" unicode="&#xa6;" horiz-adv-x="256" 
d="M87 324v376h82v-376h-82zM87 -113v375h82v-375h-82z" />
    <glyph glyph-name="section" unicode="&#xa7;" horiz-adv-x="596" 
d="M294 -88q-207 0 -237 185l84 7q20 -127 158 -127q62 0 95 23t33 65q0 35 -26.5 57.5t-90.5 41.5l-98 29q-87 25 -126 62t-39 91q0 78 71 113q-41 36 -41 96q0 74 61.5 116.5t162.5 42.5q208 0 237 -185l-85 -6q-20 126 -157 126q-62 0 -95 -23t-33 -65q0 -35 27 -57.5
t92 -41.5l95 -28q87 -26 127 -62.5t40 -91.5q0 -78 -72 -113q41 -38 41 -95q0 -75 -61.5 -117.5t-162.5 -42.5zM425 203q34 28 34 65q0 31 -23.5 53t-78.5 38l-104 31q-51 15 -82 32q-34 -25 -34 -64q0 -62 101 -91l106 -33q50 -13 81 -31z" />
    <glyph glyph-name="dieresis" unicode="&#xa8;" horiz-adv-x="418" 
d="M118 610q-27 0 -46.5 19.5t-19.5 46.5t19.5 46.5t46.5 19.5t46 -19.5t19 -46.5t-19 -46.5t-46 -19.5zM299 610q-27 0 -46.5 19.5t-19.5 46.5t19.5 46.5t46.5 19.5t46.5 -19.5t19.5 -46.5t-19.5 -46.5t-46.5 -19.5z" />
    <glyph glyph-name="copyright" unicode="&#xa9;" horiz-adv-x="753" 
d="M376 27q-140 0 -234.5 96t-94.5 231t94.5 231t234.5 96t234.5 -96t94.5 -231t-94.5 -231t-234.5 -96zM376 56q126 0 212.5 85.5t86.5 212.5t-86.5 212t-212.5 85t-213 -85t-87 -212t87 -212.5t213 -85.5zM381 154q-86 0 -135 54t-49 147t49.5 147t134.5 54
q71 0 115.5 -37t55.5 -102l-67 -9q-8 42 -35.5 64.5t-68.5 22.5q-53 0 -82 -36t-29 -104t29 -104t83 -36q44 0 70.5 24t32.5 69l68 -8q-12 -69 -56 -107.5t-116 -38.5z" />
    <glyph glyph-name="ordfeminine" unicode="&#xaa;" horiz-adv-x="455" 
d="M196 385q-51 0 -83 25t-32 69q0 50 45 77t126 27h59v8q0 41 -18 58t-58 17q-38 0 -57 -15t-24 -48l-64 6q14 105 145 105q138 0 138 -120v-199h-62v45q-31 -55 -115 -55zM209 435q45 0 73.5 27.5t28.5 74.5h-54q-109 0 -109 -55q0 -47 61 -47zM66 241v59h316v-59h-316z
" />
    <glyph glyph-name="guillemotleft" unicode="&#xab;" horiz-adv-x="577" 
d="M324 454l-190 -193l190 -193h-104l-189 193l189 193h104zM525 454l-190 -193l190 -193h-104l-189 193l189 193h104z" />
    <glyph glyph-name="logicalnot" unicode="&#xac;" horiz-adv-x="627" 
d="M67 399h485v-261h-80v186h-405v75z" />
    <glyph glyph-name="uni00AD" unicode="&#xad;" horiz-adv-x="474" 
 />
    <glyph glyph-name="registered" unicode="&#xae;" horiz-adv-x="379" 
d="M189 434q-61 0 -100.5 40.5t-39.5 99.5q0 57 39.5 98.5t100.5 41.5t101.5 -41.5t40.5 -98.5q0 -58 -40.5 -99t-101.5 -41zM189 461q50 0 81 32t31 81t-31 81t-81 32q-51 0 -80.5 -32t-29.5 -81q0 -50 29.5 -81.5t80.5 -31.5zM137 501v151h57q25 0 41 -13t16 -34
q0 -39 -42 -46l49 -57h-43l-46 58v-59h-32zM169 584h24q26 0 26 20q0 22 -26 22h-24v-42z" />
    <glyph glyph-name="macron" unicode="&#xaf;" horiz-adv-x="421" 
d="M37 704h348v-71h-348v71z" />
    <glyph glyph-name="degree" unicode="&#xb0;" horiz-adv-x="330" 
d="M165 798q-53 0 -89.5 -36.5t-36.5 -87.5t36.5 -87t89.5 -36t89.5 36t36.5 87t-36.5 87.5t-89.5 36.5zM165 747q31 0 52.5 -21t21.5 -52q0 -30 -21.5 -51.5t-52.5 -21.5q-30 0 -51.5 21.5t-21.5 51.5q0 31 21.5 52t51.5 21z" />
    <glyph glyph-name="plusminus" unicode="&#xb1;" horiz-adv-x="654" 
d="M285 682h84v-203h219v-75h-219v-203h-84v203h-220v75h220v203zM593 151v-75h-531v75h531z" />
    <glyph glyph-name="uni00B2" unicode="&#xb2;" horiz-adv-x="422" 
d="M40 313v26q0 53 35 94t137 95q54 29 74.5 51t20.5 53q0 37 -23.5 58t-66.5 21q-89 0 -104 -101l-75 3q22 161 180 161q73 0 118.5 -38t45.5 -104q0 -47 -29 -82.5t-103 -74.5q-77 -41 -99 -58t-28 -40h255v-64h-338z" />
    <glyph glyph-name="uni00B3" unicode="&#xb3;" horiz-adv-x="424" 
d="M214 299q-81 0 -127.5 42.5t-51.5 119.5l74 3q4 -53 27.5 -78.5t75.5 -25.5q43 0 69 19t26 58q0 75 -102 75h-42v56h43q98 0 98 75q0 70 -89 70q-91 0 -100 -93l-74 4q18 150 176 150q79 0 119 -35.5t40 -91.5q0 -48 -26.5 -73t-65.5 -32q41 -4 69 -32t28 -76
q0 -60 -46 -97.5t-121 -37.5z" />
    <glyph glyph-name="acute" unicode="&#xb4;" horiz-adv-x="251" 
d="M216 740l-123 -164h-80l87 164h116z" />
    <glyph glyph-name="paragraph" unicode="&#xb6;" horiz-adv-x="520" 
d="M196 -113v480q-69 0 -118 49t-49 118q0 68 49 117t118 49h225v-813h-80v738h-65v-738h-80z" />
    <glyph glyph-name="periodcentered" unicode="&#xb7;" horiz-adv-x="278" 
d="M139 215q-32 0 -55 23t-23 55t23 55t55 23t55 -23t23 -55t-23 -55t-55 -23z" />
    <glyph glyph-name="cedilla" unicode="&#xb8;" horiz-adv-x="244" 
d="M91 -199q-42 0 -80 9l12 51q40 -12 83 -7t43 32q0 20 -20.5 27t-67.5 2l19 49q17 4 46 4q45 0 70 -21.5t25 -54.5q0 -46 -37 -68.5t-93 -22.5z" />
    <glyph glyph-name="uni00B9" unicode="&#xb9;" horiz-adv-x="288" 
d="M139 760h78v-447h-70v385l-123 -100v74z" />
    <glyph glyph-name="ordmasculine" unicode="&#xba;" horiz-adv-x="464" 
d="M232 385q-73 0 -116 46t-43 118t43 118.5t116 46.5t116 -46.5t43 -118.5t-43 -118t-116 -46zM232 438q44 0 69.5 28.5t25.5 77.5v10q0 50 -25.5 78.5t-69.5 28.5t-69.5 -28.5t-25.5 -78.5v-10q0 -49 25.5 -77.5t69.5 -28.5zM74 241v59h316v-59h-316z" />
    <glyph glyph-name="guillemotright" unicode="&#xbb;" horiz-adv-x="577" 
d="M156 454l189 -193l-189 -193h-104l190 193l-190 193h104zM357 454l189 -193l-189 -193h-104l190 193l-190 193h104z" />
    <glyph glyph-name="onequarter" unicode="&#xbc;" horiz-adv-x="860" 
d="M153 253v385l-123 -100v74l115 88h78v-447h-70zM632 700h62l-484 -700h-61zM752 171h76v-58h-76v-113h-71v113h-229v52l204 282h96v-276zM681 171v211l-152 -211h152z" />
    <glyph glyph-name="onehalf" unicode="&#xbd;" horiz-adv-x="923" 
d="M153 253v385l-123 -100v74l115 88h78v-447h-70zM632 700h62l-484 -700h-61zM746 162q-76 -41 -98 -58t-29 -40h255v-64h-338v26q0 52 35.5 93.5t136.5 95.5q54 29 74.5 51t20.5 53q0 37 -23.5 58t-65.5 21q-89 0 -104 -101l-75 3q20 161 179 161q74 0 119.5 -38
t45.5 -104q0 -47 -29 -82.5t-104 -74.5z" />
    <glyph glyph-name="threequarters" unicode="&#xbe;" horiz-adv-x="935" 
d="M218 239q-81 0 -127.5 42.5t-51.5 119.5l74 3q4 -53 27.5 -78.5t75.5 -25.5q43 0 69 19t26 58q0 75 -102 75h-42v56h44q97 0 97 75q0 70 -89 70q-91 0 -100 -93l-74 4q18 150 176 150q79 0 119 -35.5t40 -91.5q0 -48 -26.5 -73t-65.5 -32q41 -4 69 -32t28 -76
q0 -60 -46 -97.5t-121 -37.5zM716 700h62l-484 -700h-61zM528 113v52l204 282h96v-276h76v-58h-76v-113h-72v113h-228zM756 171v211l-151 -211h151z" />
    <glyph glyph-name="questiondown" unicode="&#xbf;" horiz-adv-x="515" 
d="M272 383q-32 0 -54.5 22.5t-22.5 54.5t22.5 55t54.5 23t55 -23t23 -55t-23 -54.5t-55 -22.5zM401 14l87 -8q-10 -90 -72 -143t-162 -53q-99 0 -160 51.5t-61 138.5q0 78 52 126t144 59q0 67 17 135h50q16 -73 16 -139v-55h-17q-85 0 -129 -32.5t-44 -91.5q0 -54 35 -85.5
t97 -31.5q65 0 102.5 34t44.5 95z" />
    <glyph glyph-name="Agrave" unicode="&#xc0;" horiz-adv-x="682" 
d="M382 751h-80l-122 164h115zM572 0l-81 217h-306l-80 -217h-97l269 700h128l269 -700h-102zM212 290h252l-126 340z" />
    <glyph glyph-name="Aacute" unicode="&#xc1;" horiz-adv-x="682" 
d="M496 915l-123 -164h-79l87 164h115zM572 0l-81 217h-306l-80 -217h-97l269 700h128l269 -700h-102zM212 290h252l-126 340z" />
    <glyph glyph-name="Acircumflex" unicode="&#xc2;" horiz-adv-x="682" 
d="M336 853l-66 -102h-77l101 164h93l99 -164h-82zM572 0l-81 217h-306l-80 -217h-97l269 700h128l269 -700h-102zM212 290h252l-126 340z" />
    <glyph glyph-name="Atilde" unicode="&#xc3;" horiz-adv-x="682" 
d="M263 823q-33 0 -48 -49l-63 20q19 52 44.5 75t62.5 23q35 0 83.5 -23.5t64.5 -23.5q29 0 44 48l64 -21q-34 -98 -106 -98q-34 0 -81 24.5t-65 24.5zM572 0l-81 217h-306l-80 -217h-97l269 700h128l269 -700h-102zM212 290h252l-126 340z" />
    <glyph glyph-name="Adieresis" unicode="&#xc4;" horiz-adv-x="682" 
d="M250 785q-27 0 -46.5 19.5t-19.5 46.5t19.5 46.5t46.5 19.5t46.5 -19.5t19.5 -46.5t-19.5 -46.5t-46.5 -19.5zM431 785q-27 0 -46 19.5t-19 46.5t19 46.5t46 19.5t46.5 -19.5t19.5 -46.5t-19.5 -46.5t-46.5 -19.5zM572 0l-81 217h-306l-80 -217h-97l269 700h128l269 -700
h-102zM212 290h252l-126 340z" />
    <glyph glyph-name="Aring" unicode="&#xc5;" horiz-adv-x="682" 
d="M341 747q-36 0 -61 24.5t-25 59.5t25 59.5t61 24.5t60.5 -24.5t24.5 -59.5t-24.5 -59.5t-60.5 -24.5zM341 873q-18 0 -30.5 -12t-12.5 -30t12.5 -30t30.5 -12t30 12t12 30t-12 30t-30 12zM572 0l-81 217h-306l-80 -217h-97l269 700h128l269 -700h-102zM212 290h252
l-126 340z" />
    <glyph glyph-name="AE" unicode="&#xc6;" horiz-adv-x="918" 
d="M856 621h-355v-214h345v-78h-345v-249h355v-80h-447v168h-229l-97 -168h-103l420 700h456v-79zM409 244v322l-185 -322h185z" />
    <glyph glyph-name="Ccedilla" unicode="&#xc7;" horiz-adv-x="735" 
d="M387 -14q-153 0 -245.5 98.5t-92.5 264.5q0 169 89.5 267t242.5 98q123 0 204 -65t109 -178l-96 -12q-22 87 -79 130.5t-137 43.5q-106 0 -170 -73t-64 -211q0 -135 67 -208.5t173 -73.5q84 0 142.5 48t72.5 139l96 -6q-21 -120 -102 -191t-210 -71zM353 -199
q-43 0 -81 9l13 51q39 -12 82.5 -7t43.5 32q0 20 -20.5 27t-68.5 2l19 49q17 4 46 4q45 0 70 -21.5t25 -54.5q0 -46 -37 -68.5t-92 -22.5z" />
    <glyph glyph-name="Egrave" unicode="&#xc8;" horiz-adv-x="588" 
d="M291 751l-121 164h115l87 -164h-81zM89 0v700h440v-79h-347v-214h327v-78h-327v-249h347v-80h-440z" />
    <glyph glyph-name="Eacute" unicode="&#xc9;" horiz-adv-x="588" 
d="M486 915l-123 -164h-80l88 164h115zM89 0v700h440v-79h-347v-214h327v-78h-327v-249h347v-80h-440z" />
    <glyph glyph-name="Ecircumflex" unicode="&#xca;" horiz-adv-x="588" 
d="M326 852l-66 -101h-77l100 164h94l98 -164h-81zM529 621h-347v-214h327v-78h-327v-249h347v-80h-440v700h440v-79z" />
    <glyph glyph-name="Edieresis" unicode="&#xcb;" horiz-adv-x="588" 
d="M240 785q-27 0 -46.5 19.5t-19.5 46.5t19.5 46.5t46.5 19.5t46 -19.5t19 -46.5t-19 -46.5t-46 -19.5zM421 785q-27 0 -46.5 19.5t-19.5 46.5t19.5 46.5t46.5 19.5t46.5 -19.5t19.5 -46.5t-19.5 -46.5t-46.5 -19.5zM89 0v700h440v-79h-347v-214h327v-78h-327v-249h347v-80
h-440z" />
    <glyph glyph-name="Igrave" unicode="&#xcc;" horiz-adv-x="271" 
d="M97 751l-121 164h115l86 -164h-80zM89 0v700h93v-700h-93z" />
    <glyph glyph-name="Iacute" unicode="&#xcd;" horiz-adv-x="271" 
d="M292 915l-123 -164h-80l87 164h116zM89 0v700h93v-700h-93z" />
    <glyph glyph-name="Icircumflex" unicode="&#xce;" horiz-adv-x="271" 
d="M183 915l98 -164h-81l-68 101l-66 -101h-77l100 164h94zM89 0v700h93v-700h-93z" />
    <glyph glyph-name="Idieresis" unicode="&#xcf;" horiz-adv-x="271" 
d="M46 785q-27 0 -46.5 19.5t-19.5 46.5t19.5 46.5t46.5 19.5t46 -19.5t19 -46.5t-19 -46.5t-46 -19.5zM227 785q-27 0 -46.5 19.5t-19.5 46.5t19.5 46.5t46.5 19.5t46.5 -19.5t19.5 -46.5t-19.5 -46.5t-46.5 -19.5zM89 0v700h93v-700h-93z" />
    <glyph glyph-name="Eth" unicode="&#xd0;" horiz-adv-x="720" 
d="M314 700q357 0 357 -343q0 -176 -93.5 -266.5t-262.5 -90.5h-214v316h-68v79h68v305h213zM287 79q152 0 219 66.5t67 211.5q0 141 -66.5 203t-219.5 62h-92v-227h235v-79h-235v-237h92z" />
    <glyph glyph-name="Ntilde" unicode="&#xd1;" horiz-adv-x="779" 
d="M312 823q-33 0 -48 -49l-62 20q19 52 44 75t63 23q35 0 83.5 -23.5t63.5 -23.5q29 0 44 48l65 -21q-34 -98 -106 -98q-34 0 -81.5 24.5t-65.5 24.5zM601 700h89v-700h-129l-382 606v-606h-90v700h135l377 -596v596z" />
    <glyph glyph-name="Ograve" unicode="&#xd2;" horiz-adv-x="769" 
d="M346 751l-121 164h115l86 -164h-80zM384 -14q-152 0 -244 100t-92 264t92 264t244 100t244.5 -100t92.5 -264t-92.5 -264t-244.5 -100zM384 67q108 0 173.5 74.5t65.5 208.5q0 135 -65.5 209t-173.5 74t-172.5 -74t-64.5 -209q0 -134 65 -208.5t172 -74.5z" />
    <glyph glyph-name="Oacute" unicode="&#xd3;" horiz-adv-x="769" 
d="M541 915l-123 -164h-80l87 164h116zM384 -14q-152 0 -244 100t-92 264t92 264t244 100t244.5 -100t92.5 -264t-92.5 -264t-244.5 -100zM384 67q108 0 173.5 74.5t65.5 208.5q0 135 -65.5 209t-173.5 74t-172.5 -74t-64.5 -209q0 -134 65 -208.5t172 -74.5z" />
    <glyph glyph-name="Ocircumflex" unicode="&#xd4;" horiz-adv-x="769" 
d="M381 853l-67 -102h-77l101 164h93l99 -164h-81zM384 714q152 0 244.5 -100t92.5 -264t-92.5 -264t-244.5 -100t-244 100t-92 264t92 264t244 100zM384 67q108 0 173.5 74.5t65.5 208.5q0 135 -65.5 209t-173.5 74t-172.5 -74t-64.5 -209q0 -134 65 -208.5t172 -74.5z" />
    <glyph glyph-name="Otilde" unicode="&#xd5;" horiz-adv-x="769" 
d="M454 774q-35 0 -82 24.5t-65 24.5q-33 0 -48 -49l-63 20q19 52 44.5 75t62.5 23q36 0 84 -23.5t64 -23.5q29 0 44 48l65 -21q-36 -98 -106 -98zM384 -14q-152 0 -244 100t-92 264t92 264t244 100t244.5 -100t92.5 -264t-92.5 -264t-244.5 -100zM384 67q108 0 173.5 74.5
t65.5 208.5q0 135 -65.5 209t-173.5 74t-172.5 -74t-64.5 -209q0 -134 65 -208.5t172 -74.5z" />
    <glyph glyph-name="Odieresis" unicode="&#xd6;" horiz-adv-x="769" 
d="M294 785q-26 0 -45.5 19.5t-19.5 46.5t19.5 46.5t45.5 19.5q27 0 46.5 -19.5t19.5 -46.5t-19.5 -46.5t-46.5 -19.5zM476 785q-27 0 -46.5 19.5t-19.5 46.5t19.5 46.5t46.5 19.5t46 -19.5t19 -46.5t-19 -46.5t-46 -19.5zM384 -14q-152 0 -244 100t-92 264t92 264t244 100
t244.5 -100t92.5 -264t-92.5 -264t-244.5 -100zM384 67q108 0 173.5 74.5t65.5 208.5q0 135 -65.5 209t-173.5 74t-172.5 -74t-64.5 -209q0 -134 65 -208.5t172 -74.5z" />
    <glyph glyph-name="multiply" unicode="&#xd7;" horiz-adv-x="532" 
d="M106 142l-56 56l161 161l-161 159l56 56l160 -160l160 160l56 -56l-159 -160l159 -160l-56 -56l-159 160z" />
    <glyph glyph-name="Oslash" unicode="&#xd8;" horiz-adv-x="784" 
d="M741 654l-76 -76q64 -94 64 -228q0 -164 -92.5 -264t-244.5 -100q-139 0 -230 85l-70 -71l-47 46l74 75q-64 94 -64 229q0 164 92.5 264t244.5 100q138 0 229 -85l70 71zM154 350q0 -92 33 -160l372 376q-64 67 -167 67q-108 0 -173 -74t-65 -209zM630 350q0 93 -33 159
l-372 -375q64 -67 167 -67q108 0 173 74.5t65 208.5z" />
    <glyph glyph-name="Ugrave" unicode="&#xd9;" horiz-adv-x="733" 
d="M330 751l-122 164h115l87 -164h-80zM367 -14q-286 0 -286 312v402h95v-409q0 -225 192 -225q194 0 194 225v409h90v-402q0 -312 -285 -312z" />
    <glyph glyph-name="Uacute" unicode="&#xda;" horiz-adv-x="733" 
d="M524 915l-123 -164h-79l87 164h115zM367 -14q-286 0 -286 312v402h95v-409q0 -225 192 -225q194 0 194 225v409h90v-402q0 -312 -285 -312z" />
    <glyph glyph-name="Ucircumflex" unicode="&#xdb;" horiz-adv-x="733" 
d="M364 853l-66 -102h-77l101 164h93l99 -164h-82zM562 700h90v-402q0 -312 -285 -312q-286 0 -286 312v402h95v-409q0 -225 192 -225q194 0 194 225v409z" />
    <glyph glyph-name="Udieresis" unicode="&#xdc;" horiz-adv-x="733" 
d="M278 785q-27 0 -46.5 19.5t-19.5 46.5t19.5 46.5t46.5 19.5t46.5 -19.5t19.5 -46.5t-19.5 -46.5t-46.5 -19.5zM459 785q-27 0 -46 19.5t-19 46.5t19 46.5t46 19.5t46.5 -19.5t19.5 -46.5t-19.5 -46.5t-46.5 -19.5zM367 -14q-286 0 -286 312v402h95v-409q0 -225 192 -225
q194 0 194 225v409h90v-402q0 -312 -285 -312z" />
    <glyph glyph-name="Yacute" unicode="&#xdd;" horiz-adv-x="661" 
d="M487 915l-123 -164h-80l87 164h116zM284 0v323l-271 377h108l214 -299l214 299h99l-271 -376v-324h-93z" />
    <glyph glyph-name="Thorn" unicode="&#xde;" horiz-adv-x="674" 
d="M89 0v700h96v-115h186q135 0 199.5 -58.5t64.5 -154.5q0 -97 -65 -156t-201 -59h-184v-157h-96zM185 234h172q180 0 180 136t-180 136h-172v-272z" />
    <glyph glyph-name="germandbls" unicode="&#xdf;" horiz-adv-x="573" 
d="M302 -14q-35 0 -74 8v72q32 -7 60 -7q74 0 113 36t39 105q0 157 -205 157v71q93 1 133.5 27.5t40.5 81.5q0 50 -30.5 77t-84.5 27q-129 0 -129 -166v-476h-87v472q0 121 56 182t160 61q95 0 147 -48t52 -124q0 -60 -33 -97t-90 -49q85 -19 122.5 -68.5t37.5 -128.5
q0 -104 -58.5 -158.5t-169.5 -54.5z" />
    <glyph glyph-name="agrave" unicode="&#xe0;" horiz-adv-x="556" 
d="M240 576l-122 164h115l87 -164h-80zM220 -14q-80 0 -126.5 42t-46.5 115q0 81 60 127.5t174 46.5q71 0 119 -20v32q0 138 -125 138q-115 0 -130 -110l-88 8q27 174 219 174q209 0 209 -218v-321h-85v110q-19 -61 -66 -92.5t-114 -31.5zM239 59q73 0 117.5 53t43.5 144
h-86q-176 0 -176 -110q0 -42 27 -64.5t74 -22.5z" />
    <glyph glyph-name="aacute" unicode="&#xe1;" horiz-adv-x="556" 
d="M434 740l-123 -164h-79l87 164h115zM220 -14q-80 0 -126.5 42t-46.5 115q0 81 60 127.5t174 46.5q71 0 119 -20v32q0 138 -125 138q-115 0 -130 -110l-88 8q27 174 219 174q209 0 209 -218v-321h-85v110q-19 -61 -66 -92.5t-114 -31.5zM239 59q73 0 117.5 53t43.5 144
h-86q-176 0 -176 -110q0 -42 27 -64.5t74 -22.5z" />
    <glyph glyph-name="acircumflex" unicode="&#xe2;" horiz-adv-x="556" 
d="M274 678l-66 -102h-77l101 164h93l99 -164h-82zM276 539q209 0 209 -218v-321h-85v110q-19 -61 -66 -92.5t-114 -31.5q-80 0 -126.5 42t-46.5 115q0 81 60 127.5t174 46.5q71 0 119 -20v32q0 138 -125 138q-115 0 -130 -110l-88 8q27 174 219 174zM239 59q73 0 117.5 53
t43.5 144h-86q-176 0 -176 -110q0 -42 27 -64.5t74 -22.5z" />
    <glyph glyph-name="atilde" unicode="&#xe3;" horiz-adv-x="556" 
d="M347 599q-34 0 -81 24.5t-65 24.5q-33 0 -48 -49l-63 20q19 52 44.5 75t62.5 23q35 0 83.5 -23.5t64.5 -23.5q29 0 44 48l64 -21q-34 -98 -106 -98zM220 -14q-80 0 -126.5 42t-46.5 115q0 81 60 127.5t174 46.5q71 0 119 -20v32q0 138 -125 138q-115 0 -130 -110l-88 8
q27 174 219 174q209 0 209 -218v-321h-85v110q-19 -61 -66 -92.5t-114 -31.5zM239 59q73 0 117.5 53t43.5 144h-86q-176 0 -176 -110q0 -42 27 -64.5t74 -22.5z" />
    <glyph glyph-name="adieresis" unicode="&#xe4;" horiz-adv-x="556" 
d="M188 610q-27 0 -46.5 19.5t-19.5 46.5t19.5 46.5t46.5 19.5t46.5 -19.5t19.5 -46.5t-19.5 -46.5t-46.5 -19.5zM369 610q-27 0 -46 19.5t-19 46.5t19 46.5t46 19.5t46.5 -19.5t19.5 -46.5t-19.5 -46.5t-46.5 -19.5zM220 -14q-80 0 -126.5 42t-46.5 115q0 81 60 127.5
t174 46.5q71 0 119 -20v32q0 138 -125 138q-115 0 -130 -110l-88 8q27 174 219 174q209 0 209 -218v-321h-85v110q-19 -61 -66 -92.5t-114 -31.5zM239 59q73 0 117.5 53t43.5 144h-86q-176 0 -176 -110q0 -42 27 -64.5t74 -22.5z" />
    <glyph glyph-name="aring" unicode="&#xe5;" horiz-adv-x="556" 
d="M279 572q-36 0 -61 24.5t-25 59.5t25 59.5t61 24.5t60.5 -24.5t24.5 -59.5t-24.5 -59.5t-60.5 -24.5zM279 614q18 0 30 12t12 30t-12 30t-30 12t-30.5 -12t-12.5 -30t12.5 -30t30.5 -12zM220 -14q-80 0 -126.5 42t-46.5 115q0 81 60 127.5t174 46.5q71 0 119 -20v32
q0 138 -125 138q-115 0 -130 -110l-88 8q27 174 219 174q209 0 209 -218v-321h-85v110q-19 -61 -66 -92.5t-114 -31.5zM239 59q73 0 117.5 53t43.5 144h-86q-176 0 -176 -110q0 -42 27 -64.5t74 -22.5z" />
    <glyph glyph-name="ae" unicode="&#xe6;" horiz-adv-x="954" 
d="M229 -14q-83 0 -132 46.5t-49 116.5q0 80 67 124t186 44h105v28q0 122 -126 122q-60 0 -93 -27t-43 -92l-87 6q11 88 66 136.5t156 48.5q141 0 185 -89q68 85 196 85q124 0 190.5 -80t59.5 -212h-419q3 -81 47.5 -132.5t126.5 -51.5q121 0 155 111l83 -13
q-19 -75 -80 -123t-158 -48q-155 0 -222 123q-37 -65 -95 -94t-119 -29zM492 311h326q0 62 -40.5 107.5t-118.5 45.5q-76 0 -118.5 -45.5t-48.5 -107.5zM243 59q74 0 119 53.5t44 141.5h-98q-170 0 -170 -104q0 -42 27.5 -66.5t77.5 -24.5z" />
    <glyph glyph-name="ccedilla" unicode="&#xe7;" horiz-adv-x="575" 
d="M300 -14q-120 0 -188 75t-68 202t68.5 201.5t187.5 74.5q96 0 160 -49.5t79 -143.5l-88 -10q-10 61 -48 95.5t-102 34.5q-77 0 -121 -52.5t-44 -150.5t43 -151t122 -53q65 0 104.5 35.5t46.5 103.5l88 -9q-16 -101 -79.5 -152t-160.5 -51zM267 -199q-43 0 -81 9l13 51
q39 -12 82 -7t43 32q0 20 -20 26.5t-68 2.5l19 49q17 4 46 4q45 0 70 -21.5t25 -54.5q0 -46 -37 -68.5t-92 -22.5z" />
    <glyph glyph-name="egrave" unicode="&#xe8;" horiz-adv-x="582" 
d="M337 576h-81l-121 164h115zM294 539q119 0 185 -81t58 -212h-405q2 -82 44 -134.5t124 -52.5q122 0 151 120l82 -14q-15 -78 -75.5 -128.5t-157.5 -50.5q-119 0 -187.5 77t-68.5 202q0 126 68.5 200t181.5 74zM132 312h315q0 60 -39 107.5t-114 47.5q-74 0 -116 -46.5
t-46 -108.5z" />
    <glyph glyph-name="eacute" unicode="&#xe9;" horiz-adv-x="582" 
d="M451 740l-123 -164h-80l88 164h115zM294 539q119 0 185 -81t58 -212h-405q2 -82 44 -134.5t124 -52.5q122 0 151 120l82 -14q-15 -78 -75.5 -128.5t-157.5 -50.5q-119 0 -187.5 77t-68.5 202q0 126 68.5 200t181.5 74zM132 312h315q0 60 -39 107.5t-114 47.5
q-74 0 -116 -46.5t-46 -108.5z" />
    <glyph glyph-name="ecircumflex" unicode="&#xea;" horiz-adv-x="582" 
d="M291 677l-66 -101h-77l100 164h94l98 -164h-81zM294 539q119 0 185 -81t58 -212h-405q2 -82 44 -134.5t124 -52.5q122 0 151 120l82 -14q-15 -78 -75.5 -128.5t-157.5 -50.5q-119 0 -187.5 77t-68.5 202q0 126 68.5 200t181.5 74zM132 312h315q0 60 -39 107.5t-114 47.5
q-74 0 -116 -46.5t-46 -108.5z" />
    <glyph glyph-name="edieresis" unicode="&#xeb;" horiz-adv-x="582" 
d="M205 610q-27 0 -46.5 19.5t-19.5 46.5t19.5 46.5t46.5 19.5t46 -19.5t19 -46.5t-19 -46.5t-46 -19.5zM386 610q-27 0 -46.5 19.5t-19.5 46.5t19.5 46.5t46.5 19.5t46.5 -19.5t19.5 -46.5t-19.5 -46.5t-46.5 -19.5zM294 539q119 0 185 -81t58 -212h-405q2 -82 44 -134.5
t124 -52.5q122 0 151 120l82 -14q-15 -78 -75.5 -128.5t-157.5 -50.5q-119 0 -187.5 77t-68.5 202q0 126 68.5 200t181.5 74zM132 312h315q0 60 -39 107.5t-114 47.5q-74 0 -116 -46.5t-46 -108.5z" />
    <glyph glyph-name="igrave" unicode="&#xec;" horiz-adv-x="243" 
d="M83 576l-122 164h115l87 -164h-80zM78 525h88v-525h-88v525z" />
    <glyph glyph-name="iacute" unicode="&#xed;" horiz-adv-x="243" 
d="M277 740l-123 -164h-79l87 164h115zM78 525h88v-525h-88v525z" />
    <glyph glyph-name="icircumflex" unicode="&#xee;" horiz-adv-x="243" 
d="M168 740l99 -164h-81l-68 102l-67 -102h-77l101 164h93zM78 0v525h88v-525h-88z" />
    <glyph glyph-name="idieresis" unicode="&#xef;" horiz-adv-x="243" 
d="M31 610q-27 0 -46.5 19.5t-19.5 46.5t19.5 46.5t46.5 19.5t46.5 -19.5t19.5 -46.5t-19.5 -46.5t-46.5 -19.5zM212 610q-27 0 -46 19.5t-19 46.5t19 46.5t46 19.5t46.5 -19.5t19.5 -46.5t-19.5 -46.5t-46.5 -19.5zM78 525h88v-525h-88v525z" />
    <glyph glyph-name="eth" unicode="&#xf0;" horiz-adv-x="586" 
d="M370 616q170 -137 170 -346q0 -132 -69 -206t-181 -74q-115 0 -181.5 68t-66.5 179q0 108 63.5 175t162.5 67q86 0 154 -56q-38 94 -129 156l-160 -77l-26 57l121 58q-29 15 -76 36l52 60q68 -29 108 -56l119 57l26 -56zM291 60q73 0 115.5 47t42.5 130t-41.5 128
t-115.5 45t-117 -45.5t-43 -127.5q0 -83 43 -130t116 -47z" />
    <glyph glyph-name="ntilde" unicode="&#xf1;" horiz-adv-x="604" 
d="M242 648q-33 0 -48 -49l-63 20q19 52 44.5 75t62.5 23q35 0 83.5 -23.5t64.5 -23.5q29 0 44 48l64 -21q-34 -98 -106 -98q-34 0 -81 24.5t-65 24.5zM341 539q90 0 141 -56t51 -157v-326h-88v312q0 154 -132 154q-69 0 -108 -40t-39 -114v-312h-88v525h88v-90
q17 47 63.5 75.5t111.5 28.5z" />
    <glyph glyph-name="ograve" unicode="&#xf2;" horiz-adv-x="621" 
d="M272 576l-122 164h115l87 -164h-80zM311 -14q-124 0 -196 75.5t-72 200.5t71.5 201t196.5 76q124 0 195.5 -76t71.5 -201t-71.5 -200.5t-195.5 -75.5zM311 59q82 0 128.5 52.5t46.5 150.5t-47 151t-128 53q-82 0 -129 -53t-47 -151q0 -97 47 -150t129 -53z" />
    <glyph glyph-name="oacute" unicode="&#xf3;" horiz-adv-x="621" 
d="M466 740l-123 -164h-79l87 164h115zM311 -14q-124 0 -196 75.5t-72 200.5t71.5 201t196.5 76q124 0 195.5 -76t71.5 -201t-71.5 -200.5t-195.5 -75.5zM311 59q82 0 128.5 52.5t46.5 150.5t-47 151t-128 53q-82 0 -129 -53t-47 -151q0 -97 47 -150t129 -53z" />
    <glyph glyph-name="ocircumflex" unicode="&#xf4;" horiz-adv-x="621" 
d="M306 678l-66 -102h-77l101 164h93l99 -164h-82zM311 539q124 0 195.5 -76t71.5 -201t-71.5 -200.5t-195.5 -75.5t-196 75.5t-72 200.5t71.5 201t196.5 76zM311 59q82 0 128.5 52.5t46.5 150.5t-47 151t-128 53q-82 0 -129 -53t-47 -151q0 -97 47 -150t129 -53z" />
    <glyph glyph-name="otilde" unicode="&#xf5;" horiz-adv-x="621" 
d="M379 599q-34 0 -81 24.5t-65 24.5q-33 0 -48 -49l-63 20q19 52 44.5 75t62.5 23q35 0 83.5 -23.5t64.5 -23.5q29 0 44 48l64 -21q-34 -98 -106 -98zM311 -14q-124 0 -196 75.5t-72 200.5t71.5 201t196.5 76q124 0 195.5 -76t71.5 -201t-71.5 -200.5t-195.5 -75.5zM311 59
q82 0 128.5 52.5t46.5 150.5t-47 151t-128 53q-82 0 -129 -53t-47 -151q0 -97 47 -150t129 -53z" />
    <glyph glyph-name="odieresis" unicode="&#xf6;" horiz-adv-x="621" 
d="M220 610q-27 0 -46.5 19.5t-19.5 46.5t19.5 46.5t46.5 19.5t46.5 -19.5t19.5 -46.5t-19.5 -46.5t-46.5 -19.5zM401 610q-27 0 -46 19.5t-19 46.5t19 46.5t46 19.5t46.5 -19.5t19.5 -46.5t-19.5 -46.5t-46.5 -19.5zM311 -14q-124 0 -196 75.5t-72 200.5t71.5 201t196.5 76
q124 0 195.5 -76t71.5 -201t-71.5 -200.5t-195.5 -75.5zM311 59q82 0 128.5 52.5t46.5 150.5t-47 151t-128 53q-82 0 -129 -53t-47 -151q0 -97 47 -150t129 -53z" />
    <glyph glyph-name="divide" unicode="&#xf7;" horiz-adv-x="623" 
d="M310 508q-35 0 -59 24t-24 59t24.5 59t58.5 24q35 0 59.5 -24t24.5 -59t-24.5 -59t-59.5 -24zM578 400v-75h-533v75h533zM310 94q-34 0 -58.5 24t-24.5 59t24 59.5t59 24.5t59.5 -24.5t24.5 -59.5t-24.5 -59t-59.5 -24z" />
    <glyph glyph-name="oslash" unicode="&#xf8;" horiz-adv-x="631" 
d="M585 501l-56 -59q54 -71 54 -180q0 -125 -72 -200.5t-196 -75.5q-103 0 -172 54l-51 -54l-39 37l52 55q-58 72 -58 184q0 125 72 201t196 76q106 0 176 -57l54 56zM140 262q0 -73 26 -120l268 280q-44 44 -119 44q-81 0 -128 -53t-47 -151zM490 262q0 67 -23 115
l-267 -278q43 -40 115 -40q82 0 128.5 52.5t46.5 150.5z" />
    <glyph glyph-name="ugrave" unicode="&#xf9;" horiz-adv-x="594" 
d="M337 576h-80l-121 164h115zM429 525h87v-525h-87v99q-16 -54 -58.5 -83.5t-106.5 -29.5q-85 0 -139 54t-54 163v322h88v-298q0 -169 125 -169q68 0 106.5 45t38.5 129v293z" />
    <glyph glyph-name="uacute" unicode="&#xfa;" horiz-adv-x="594" 
d="M452 740l-123 -164h-80l87 164h116zM429 525h87v-525h-87v99q-16 -54 -58.5 -83.5t-106.5 -29.5q-85 0 -139 54t-54 163v322h88v-298q0 -169 125 -169q68 0 106.5 45t38.5 129v293z" />
    <glyph glyph-name="ucircumflex" unicode="&#xfb;" horiz-adv-x="594" 
d="M292 678l-67 -102h-77l101 164h93l99 -164h-81zM429 525h87v-525h-87v99q-16 -54 -58.5 -83.5t-106.5 -29.5q-85 0 -139 54t-54 163v322h88v-298q0 -169 125 -169q68 0 106.5 45t38.5 129v293z" />
    <glyph glyph-name="udieresis" unicode="&#xfc;" horiz-adv-x="594" 
d="M206 610q-27 0 -46.5 19.5t-19.5 46.5t19.5 46.5t46.5 19.5q26 0 45.5 -19.5t19.5 -46.5t-19.5 -46.5t-45.5 -19.5zM387 610q-27 0 -46.5 19.5t-19.5 46.5t19.5 46.5t46.5 19.5t46 -19.5t19 -46.5t-19 -46.5t-46 -19.5zM429 525h87v-525h-87v99q-16 -54 -58.5 -83.5
t-106.5 -29.5q-85 0 -139 54t-54 163v322h88v-298q0 -169 125 -169q68 0 106.5 45t38.5 129v293z" />
    <glyph glyph-name="yacute" unicode="&#xfd;" horiz-adv-x="544" 
d="M438 740l-123 -164h-79l87 164h115zM463 525h89l-242 -550q-44 -101 -86 -140t-110 -39q-38 0 -81 18v79q43 -17 75 -17q40 0 60.5 21t52.5 83l17 32l-228 513h98l179 -413z" />
    <glyph glyph-name="thorn" unicode="&#xfe;" horiz-adv-x="624" 
d="M349 539q105 0 168.5 -76.5t63.5 -200.5q0 -122 -62.5 -199t-169.5 -77q-126 0 -185 102v-278h-86v890h86v-265q25 49 73.5 76.5t111.5 27.5zM326 59q71 0 117 52.5t46 150.5q0 99 -46 151.5t-117 52.5q-72 0 -118 -52.5t-46 -151.5q0 -98 46 -150.5t118 -52.5z" />
    <glyph glyph-name="ydieresis" unicode="&#xff;" horiz-adv-x="544" 
d="M192 610q-27 0 -46.5 19.5t-19.5 46.5t19.5 46.5t46.5 19.5t46 -19.5t19 -46.5t-19 -46.5t-46 -19.5zM373 610q-27 0 -46.5 19.5t-19.5 46.5t19.5 46.5t46.5 19.5t46 -19.5t19 -46.5t-19 -46.5t-46 -19.5zM463 525h89l-242 -550q-44 -101 -86 -140t-110 -39q-38 0 -81 18
v79q43 -17 75 -17q40 0 60.5 21t52.5 83l17 32l-228 513h98l179 -413z" />
    <glyph glyph-name="Amacron" unicode="&#x100;" horiz-adv-x="682" 
d="M514 879v-71h-348v71h348zM572 0l-81 217h-306l-80 -217h-97l269 700h128l269 -700h-102zM212 290h252l-126 340z" />
    <glyph glyph-name="amacron" unicode="&#x101;" horiz-adv-x="556" 
d="M104 704h348v-71h-348v71zM220 -14q-80 0 -126.5 42t-46.5 115q0 81 60 127.5t174 46.5q71 0 119 -20v32q0 138 -125 138q-115 0 -130 -110l-88 8q27 174 219 174q209 0 209 -218v-321h-85v110q-19 -61 -66 -92.5t-114 -31.5zM239 59q73 0 117.5 53t43.5 144h-86
q-176 0 -176 -110q0 -42 27 -64.5t74 -22.5z" />
    <glyph glyph-name="Abreve" unicode="&#x102;" horiz-adv-x="682" 
d="M341 765q-59 0 -100 33t-50 91h79q9 -68 71 -68q61 0 71 68h78q-9 -58 -49.5 -91t-99.5 -33zM572 0l-81 217h-306l-80 -217h-97l269 700h128l269 -700h-102zM212 290h252l-126 340z" />
    <glyph glyph-name="abreve" unicode="&#x103;" horiz-adv-x="556" 
d="M279 590q-59 0 -100 33t-50 91h79q9 -68 71 -68q61 0 71 68h78q-9 -58 -49.5 -91t-99.5 -33zM220 -14q-80 0 -126.5 42t-46.5 115q0 81 60 127.5t174 46.5q71 0 119 -20v32q0 138 -125 138q-115 0 -130 -110l-88 8q27 174 219 174q209 0 209 -218v-321h-85v110
q-19 -61 -66 -92.5t-114 -31.5zM239 59q73 0 117.5 53t43.5 144h-86q-176 0 -176 -110q0 -42 27 -64.5t74 -22.5z" />
    <glyph glyph-name="Aogonek" unicode="&#x104;" horiz-adv-x="682" 
d="M634 -130q22 0 46 10v-65q-34 -12 -66 -12q-55 0 -85.5 25t-30.5 67q0 70 74 105l-81 217h-306l-80 -217h-97l269 700h128l269 -700h-2q-30 0 -60 -23.5t-30 -58.5q0 -48 52 -48zM212 290h252l-126 340z" />
    <glyph glyph-name="aogonek" unicode="&#x105;" horiz-adv-x="556" 
d="M448 -130q20 0 43 9v-65q-30 -11 -65 -11q-49 0 -79.5 25.5t-30.5 66.5q0 33 22.5 61t61.5 44v110q-19 -61 -66 -92.5t-114 -31.5q-80 0 -126.5 42t-46.5 115q0 81 60 127.5t174 46.5q71 0 119 -20v32q0 138 -125 138q-115 0 -130 -110l-88 8q27 174 219 174
q209 0 209 -218v-321q-85 -35 -85 -86q0 -44 48 -44zM239 59q73 0 117.5 53t43.5 144h-86q-176 0 -176 -110q0 -42 27 -64.5t74 -22.5z" />
    <glyph glyph-name="Cacute" unicode="&#x106;" horiz-adv-x="735" 
d="M530 915l-123 -164h-80l87 164h116zM387 -14q-153 0 -245.5 98.5t-92.5 264.5q0 169 89.5 267t242.5 98q123 0 204 -65t109 -178l-96 -12q-22 87 -79 130.5t-137 43.5q-106 0 -170 -73t-64 -211q0 -135 67 -208.5t173 -73.5q84 0 142.5 48t72.5 139l96 -6
q-21 -120 -102 -191t-210 -71z" />
    <glyph glyph-name="cacute" unicode="&#x107;" horiz-adv-x="575" 
d="M457 740l-123 -164h-80l88 164h115zM300 -14q-120 0 -188 75t-68 202t68.5 201.5t187.5 74.5q96 0 160 -49.5t79 -143.5l-88 -10q-10 61 -48 95.5t-102 34.5q-77 0 -121 -52.5t-44 -150.5t43 -151t122 -53q65 0 104.5 35.5t46.5 103.5l88 -9q-16 -101 -79.5 -152
t-160.5 -51z" />
    <glyph glyph-name="Cdotaccent" unicode="&#x10a;" horiz-adv-x="735" 
d="M372 773q-30 0 -51 21t-21 52q0 30 21 51t51 21q31 0 52 -21t21 -51q0 -31 -21 -52t-52 -21zM387 -14q-153 0 -245.5 98.5t-92.5 264.5q0 169 89.5 267t242.5 98q123 0 204 -65t109 -178l-96 -12q-22 87 -79 130.5t-137 43.5q-106 0 -170 -73t-64 -211q0 -135 67 -208.5
t173 -73.5q84 0 142.5 48t72.5 139l96 -6q-21 -120 -102 -191t-210 -71z" />
    <glyph glyph-name="cdotaccent" unicode="&#x10b;" horiz-adv-x="575" 
d="M300 598q-31 0 -52 21t-21 52q0 30 21 51t52 21q30 0 51 -21t21 -51q0 -31 -21 -52t-51 -21zM300 -14q-120 0 -188 75t-68 202t68.5 201.5t187.5 74.5q96 0 160 -49.5t79 -143.5l-88 -10q-10 61 -48 95.5t-102 34.5q-77 0 -121 -52.5t-44 -150.5t43 -151t122 -53
q65 0 104.5 35.5t46.5 103.5l88 -9q-16 -101 -79.5 -152t-160.5 -51z" />
    <glyph glyph-name="Ccaron" unicode="&#x10c;" horiz-adv-x="735" 
d="M331 751l-99 164h79l70 -103l69 103h75l-101 -164h-93zM603 254l96 -6q-21 -120 -102 -191t-210 -71q-153 0 -245.5 98.5t-92.5 264.5q0 169 89.5 267t242.5 98q123 0 204 -65t109 -178l-96 -12q-22 87 -79 130.5t-137 43.5q-106 0 -170 -73t-64 -211q0 -135 67 -208.5
t173 -73.5q84 0 142.5 48t72.5 139z" />
    <glyph glyph-name="ccaron" unicode="&#x10d;" horiz-adv-x="575" 
d="M258 576l-99 164h80l70 -103l68 103h75l-101 -164h-93zM452 198l88 -9q-16 -101 -79.5 -152t-160.5 -51q-120 0 -188 75t-68 202t68.5 201.5t187.5 74.5q96 0 160 -49.5t79 -143.5l-88 -10q-10 61 -48 95.5t-102 34.5q-77 0 -121 -52.5t-44 -150.5t43 -151t122 -53
q65 0 104.5 35.5t46.5 103.5z" />
    <glyph glyph-name="Dcaron" unicode="&#x10e;" horiz-adv-x="708" 
d="M286 751l-99 164h79l70 -103l69 103h75l-101 -164h-93zM302 700q356 0 356 -343q0 -177 -93.5 -267t-262.5 -90h-213v700h213zM274 79q153 0 219.5 66.5t66.5 211.5q0 142 -66 203.5t-220 61.5h-92v-543h92z" />
    <glyph glyph-name="dcaron" unicode="&#x10f;" horiz-adv-x="679" 
d="M754 646q0 -43 -40 -61l-52 -101h-58l48 102q-35 20 -35 60q0 29 20 49t48 20q29 0 49 -20.5t20 -48.5zM458 434v266h86v-700h-86v96q-21 -52 -66.5 -81t-109.5 -29q-106 0 -172.5 76.5t-66.5 199.5t67 200t172 77q63 0 109 -28t67 -77zM299 60q72 0 118 52t46 150
q0 100 -46 152t-118 52q-71 0 -117 -52t-46 -152q0 -98 46 -150t117 -52z" />
    <glyph glyph-name="Dcroat" unicode="&#x110;" horiz-adv-x="715" 
d="M314 700q357 0 357 -343q0 -176 -93.5 -266.5t-262.5 -90.5h-214v316h-68v79h68v305h213zM287 79q152 0 219 66.5t67 211.5q0 141 -66.5 203t-219.5 62h-92v-227h235v-79h-235v-237h92z" />
    <glyph glyph-name="dcroat" unicode="&#x111;" horiz-adv-x="622" 
d="M671 629v-57h-127v-572h-86v96q-21 -52 -66.5 -81t-109.5 -29q-106 0 -172.5 76.5t-66.5 199.5t67 200t172 77q63 0 109 -28t67 -77v138h-149v57h149v71h86v-71h127zM299 60q72 0 118 52t46 150q0 100 -46 152t-118 52q-71 0 -117 -52t-46 -152q0 -98 46 -150t117 -52z
" />
    <glyph glyph-name="Emacron" unicode="&#x112;" horiz-adv-x="588" 
d="M156 879h348v-71h-348v71zM89 0v700h440v-79h-347v-214h327v-78h-327v-249h347v-80h-440z" />
    <glyph glyph-name="emacron" unicode="&#x113;" horiz-adv-x="582" 
d="M469 704v-71h-348v71h348zM294 539q119 0 185 -81t58 -212h-405q2 -82 44 -134.5t124 -52.5q122 0 151 120l82 -14q-15 -78 -75.5 -128.5t-157.5 -50.5q-119 0 -187.5 77t-68.5 202q0 126 68.5 200t181.5 74zM132 312h315q0 60 -39 107.5t-114 47.5q-74 0 -116 -46.5
t-46 -108.5z" />
    <glyph glyph-name="Ebreve" unicode="&#x114;" horiz-adv-x="588" 
d="M330 765q-59 0 -99.5 33t-49.5 91h79q9 -68 70 -68q62 0 71 68h79q-9 -58 -50 -91t-100 -33zM89 0v700h440v-79h-347v-214h327v-78h-327v-249h347v-80h-440z" />
    <glyph glyph-name="ebreve" unicode="&#x115;" horiz-adv-x="582" 
d="M295 590q-59 0 -99.5 33t-49.5 91h79q9 -68 70 -68q62 0 71 68h79q-9 -58 -50 -91t-100 -33zM294 539q119 0 185 -81t58 -212h-405q2 -82 44 -134.5t124 -52.5q122 0 151 120l82 -14q-15 -78 -75.5 -128.5t-157.5 -50.5q-119 0 -187.5 77t-68.5 202q0 126 68.5 200
t181.5 74zM132 312h315q0 60 -39 107.5t-114 47.5q-74 0 -116 -46.5t-46 -108.5z" />
    <glyph glyph-name="Edotaccent" unicode="&#x116;" horiz-adv-x="588" 
d="M329 773q-31 0 -52 21t-21 52q0 30 21 51t52 21q30 0 51 -21t21 -51q0 -31 -21 -52t-51 -21zM89 0v700h440v-79h-347v-214h327v-78h-327v-249h347v-80h-440z" />
    <glyph glyph-name="edotaccent" unicode="&#x117;" horiz-adv-x="582" 
d="M294 598q-31 0 -52 21t-21 52q0 30 21 51t52 21q30 0 51 -21t21 -51q0 -31 -21 -52t-51 -21zM294 539q119 0 185 -81t58 -212h-405q2 -82 44 -134.5t124 -52.5q122 0 151 120l82 -14q-15 -78 -75.5 -128.5t-157.5 -50.5q-119 0 -187.5 77t-68.5 202q0 126 68.5 200
t181.5 74zM132 312h315q0 60 -39 107.5t-114 47.5q-74 0 -116 -46.5t-46 -108.5z" />
    <glyph glyph-name="Eogonek" unicode="&#x118;" horiz-adv-x="588" 
d="M487 -130q25 0 49 10v-65q-36 -12 -66 -12q-53 0 -84.5 25t-31.5 66q0 35 23 63t65 43h-353v700h440v-79h-347v-214h327v-78h-327v-249h347v-80h-3q-37 0 -64 -24.5t-27 -56.5q0 -22 13 -35.5t39 -13.5z" />
    <glyph glyph-name="eogonek" unicode="&#x119;" horiz-adv-x="595" 
d="M367 -197q-61 0 -98.5 25t-37.5 66q0 67 101 94q-10 -2 -27 -2q-119 0 -190 77t-71 203t70.5 199.5t186.5 73.5q124 0 191 -81t60 -216h-419q2 -79 46.5 -131t126.5 -52q121 0 156 109l83 -12q-28 -102 -124 -146q-95 -46 -95 -95q0 -21 17 -33t47 -12q33 0 64 10v-65
q-43 -12 -87 -12zM134 310h326q0 64 -41 111t-118 47t-119.5 -46t-47.5 -112z" />
    <glyph glyph-name="Ecaron" unicode="&#x11a;" horiz-adv-x="588" 
d="M287 751l-99 164h80l70 -103l68 103h75l-101 -164h-93zM529 621h-347v-214h327v-78h-327v-249h347v-80h-440v700h440v-79z" />
    <glyph glyph-name="ecaron" unicode="&#x11b;" horiz-adv-x="582" 
d="M252 576l-99 164h80l70 -103l68 103h75l-101 -164h-93zM294 539q119 0 185 -81t58 -212h-405q2 -82 44 -134.5t124 -52.5q122 0 151 120l82 -14q-15 -78 -75.5 -128.5t-157.5 -50.5q-119 0 -187.5 77t-68.5 202q0 126 68.5 200t181.5 74zM132 312h315q0 60 -39 107.5
t-114 47.5q-74 0 -116 -46.5t-46 -108.5z" />
    <glyph glyph-name="Gbreve" unicode="&#x11e;" horiz-adv-x="758" 
d="M379 765q-59 0 -99.5 33t-49.5 91h79q9 -68 70 -68q62 0 71 68h79q-9 -58 -50 -91t-100 -33zM323 365h389v-16q0 -173 -86.5 -268t-238.5 -95q-156 0 -247 99t-91 265t91 265t249 99q124 0 204 -62t106 -173l-94 -15q-40 169 -215 169q-112 0 -177 -72t-65 -211t66 -211
t174 -72q96 0 160 56.5t71 163.5h-296v78z" />
    <glyph glyph-name="gbreve" unicode="&#x11f;" horiz-adv-x="622" 
d="M308 590q-59 0 -99.5 33t-49.5 91h79q9 -68 70 -68q62 0 71 68h79q-9 -58 -50 -91t-100 -33zM458 525h87v-460q0 -139 -61.5 -204t-185.5 -65q-202 0 -231 160l91 14q14 -56 48.5 -79.5t91.5 -23.5q78 0 119 43.5t41 143.5v75q-44 -110 -178 -110q-107 0 -171 71.5
t-64 188.5t64.5 188.5t170.5 71.5q67 0 113 -29t65 -81v96zM294 91q72 0 116.5 48.5t44.5 138.5q0 91 -44.5 139.5t-116.5 48.5t-116.5 -48.5t-44.5 -139.5q0 -90 44.5 -138.5t116.5 -48.5z" />
    <glyph glyph-name="Gdotaccent" unicode="&#x120;" horiz-adv-x="758" 
d="M378 773q-31 0 -52 21t-21 52q0 30 21 51t52 21q30 0 51 -21t21 -51q0 -31 -21 -52t-51 -21zM323 365h389v-16q0 -173 -86.5 -268t-238.5 -95q-156 0 -247 99t-91 265t91 265t249 99q124 0 204 -62t106 -173l-94 -15q-40 169 -215 169q-112 0 -177 -72t-65 -211t66 -211
t174 -72q96 0 160 56.5t71 163.5h-296v78z" />
    <glyph glyph-name="gdotaccent" unicode="&#x121;" horiz-adv-x="622" 
d="M307 598q-31 0 -52 21t-21 52q0 30 21 51t52 21q30 0 51 -21t21 -51q0 -31 -21 -52t-51 -21zM458 525h87v-460q0 -139 -61.5 -204t-185.5 -65q-202 0 -231 160l91 14q14 -56 48.5 -79.5t91.5 -23.5q78 0 119 43.5t41 143.5v75q-44 -110 -178 -110q-107 0 -171 71.5
t-64 188.5t64.5 188.5t170.5 71.5q67 0 113 -29t65 -81v96zM294 91q72 0 116.5 48.5t44.5 138.5q0 91 -44.5 139.5t-116.5 48.5t-116.5 -48.5t-44.5 -139.5q0 -90 44.5 -138.5t116.5 -48.5z" />
    <glyph glyph-name="uni0122" unicode="&#x122;" horiz-adv-x="758" 
d="M323 365h389v-16q0 -173 -86.5 -268t-238.5 -95q-156 0 -247 99t-91 265t91 265t249 99q124 0 204 -62t106 -173l-94 -15q-40 169 -215 169q-112 0 -177 -72t-65 -211t66 -211t174 -72q96 0 160 56.5t71 163.5h-296v78zM382 -45q28 0 48 -20t20 -49q0 -44 -40 -62
l-51 -97h-58l47 100q-35 18 -35 59q0 28 20.5 48.5t48.5 20.5z" />
    <glyph glyph-name="uni0123" unicode="&#x123;" horiz-adv-x="622" 
d="M309 582q-28 0 -48 20t-20 49q0 43 39 62l53 100h58l-49 -102q36 -21 36 -60q0 -29 -20 -49t-49 -20zM458 525h87v-460q0 -139 -61.5 -204t-185.5 -65q-202 0 -231 160l91 14q14 -56 48.5 -79.5t91.5 -23.5q78 0 119 43.5t41 143.5v75q-44 -110 -178 -110
q-107 0 -171 71.5t-64 188.5t64.5 188.5t170.5 71.5q67 0 113 -29t65 -81v96zM294 91q72 0 116.5 48.5t44.5 138.5q0 91 -44.5 139.5t-116.5 48.5t-116.5 -48.5t-44.5 -139.5q0 -90 44.5 -138.5t116.5 -48.5z" />
    <glyph glyph-name="Hcircumflex" unicode="&#x124;" horiz-adv-x="754" 
d="M373 853l-66 -102h-77l101 164h93l99 -164h-82zM572 700h94v-700h-94v326h-390v-326h-93v700h93v-295h390v295z" />
    <glyph glyph-name="hcircumflex" unicode="&#x125;" horiz-adv-x="594" 
d="M301 853l-67 -102h-77l101 164h93l99 -164h-81zM339 539q86 0 135 -54.5t49 -153.5v-331h-88v315q0 152 -125 152q-66 0 -105 -40t-39 -112v-315h-88v700h88v-266q17 49 64 77t109 28z" />
    <glyph glyph-name="Hbar" unicode="&#x126;" horiz-adv-x="816" 
d="M810 607v-71h-114v-536h-93v326h-390v-326h-94v536h-113v71h113v93h94v-93h390v93h93v-93h114zM603 405v131h-390v-131h390z" />
    <glyph glyph-name="hbar" unicode="&#x127;" horiz-adv-x="594" 
d="M339 539q86 0 135 -54.5t49 -153.5v-331h-88v315q0 152 -125 152q-66 0 -105 -40t-39 -112v-315h-88v581h-78v68h78v51h88v-51h187v-68h-187v-147q17 49 64 77t109 28z" />
    <glyph glyph-name="Imacron" unicode="&#x12a;" horiz-adv-x="271" 
d="M-38 879h348v-71h-348v71zM89 0v700h93v-700h-93z" />
    <glyph glyph-name="imacron" unicode="&#x12b;" horiz-adv-x="243" 
d="M-53 704h348v-71h-348v71zM78 525h88v-525h-88v525z" />
    <glyph glyph-name="Ibreve" unicode="&#x12c;" horiz-adv-x="271" 
d="M136 765q-59 0 -100 33t-49 91h78q10 -68 71 -68q62 0 71 68h79q-9 -58 -50 -91t-100 -33zM89 0v700h93v-700h-93z" />
    <glyph glyph-name="ibreve" unicode="&#x12d;" horiz-adv-x="243" 
d="M122 590q-59 0 -100 33t-50 91h79q9 -68 71 -68q61 0 71 68h78q-8 -58 -49 -91t-100 -33zM78 525h88v-525h-88v525z" />
    <glyph glyph-name="Iogonek" unicode="&#x12e;" horiz-adv-x="271" 
d="M146 -130q25 0 49 10v-65q-34 -12 -71 -12q-50 0 -80.5 25.5t-30.5 66.5q0 33 20.5 61t55.5 44v700h93v-700h-1q-33 0 -61 -24t-28 -56q0 -50 54 -50z" />
    <glyph glyph-name="iogonek" unicode="&#x12f;" horiz-adv-x="243" 
d="M120 743q31 0 52 -21t21 -51q0 -31 -21 -52t-52 -21t-52 21t-21 52q0 30 21 51t52 21zM87 -86q0 -44 49 -44q16 0 31 4v-65q-21 -6 -53 -6q-50 0 -80.5 25.5t-30.5 66.5q0 33 20.5 61t54.5 44v525h88v-525q-79 -35 -79 -86z" />
    <glyph glyph-name="Idotaccent" unicode="&#x130;" horiz-adv-x="271" 
d="M135 773q-31 0 -52 21t-21 52q0 30 21 51t52 21q30 0 51 -21t21 -51q0 -31 -21 -52t-51 -21zM89 0v700h93v-700h-93z" />
    <glyph glyph-name="dotlessi" unicode="&#x131;" horiz-adv-x="243" 
d="M78 525h88v-525h-88v525z" />
    <glyph glyph-name="uni0136" unicode="&#x136;" horiz-adv-x="639" 
d="M288 365l349 -365h-123l-332 349v-349h-93v700h93v-326l337 326h113zM319 -45q28 0 48 -20t20 -49q0 -42 -38 -61l-53 -98h-58l47 100q-35 18 -35 59q0 28 20 48.5t49 20.5z" />
    <glyph glyph-name="uni0137" unicode="&#x137;" horiz-adv-x="524" 
d="M265 292l266 -293h-110l-255 275v-274h-88v700h88v-403l234 228h105zM295 -45q28 0 48 -20t20 -49q0 -42 -38 -61l-53 -98h-58l47 100q-35 18 -35 59q0 28 20 48.5t49 20.5z" />
    <glyph glyph-name="Lacute" unicode="&#x139;" horiz-adv-x="493" 
d="M300 915l-123 -164h-80l87 164h116zM89 700h93v-621h285v-79h-378v700z" />
    <glyph glyph-name="lacute" unicode="&#x13a;" horiz-adv-x="243" 
d="M278 915l-123 -164h-79l87 164h115zM78 700h88v-700h-88v700z" />
    <glyph glyph-name="uni013B" unicode="&#x13b;" horiz-adv-x="493" 
d="M182 79h285v-79h-378v700h93v-621zM282 -45q28 0 48 -20t20 -49q0 -42 -38 -61l-53 -98h-58l47 100q-35 18 -35 59q0 28 20.5 48.5t48.5 20.5z" />
    <glyph glyph-name="uni013C" unicode="&#x13c;" horiz-adv-x="243" 
d="M166 700v-700h-88v700h88zM194 -114q0 -42 -38 -61l-53 -98h-58l47 100q-35 18 -35 59q0 28 20.5 48.5t48.5 20.5t48 -20t20 -49z" />
    <glyph glyph-name="Lcaron" unicode="&#x13d;" horiz-adv-x="502" 
d="M319 484h-58l49 102q-36 21 -36 60q0 28 20 48.5t49 20.5q28 0 48 -20t20 -49q0 -43 -39 -62zM182 79h285v-79h-378v700h93v-621z" />
    <glyph glyph-name="lcaron" unicode="&#x13e;" horiz-adv-x="308" 
d="M384 646q0 -44 -40 -62l-52 -100h-58l48 102q-35 20 -35 60q0 29 20 49t48 20q29 0 49 -20.5t20 -48.5zM78 0v700h88v-700h-88z" />
    <glyph glyph-name="Lslash" unicode="&#x141;" horiz-adv-x="516" 
d="M204 79h285v-79h-378v286l-71 -36v83l71 36v331h93v-283l138 70v-85l-138 -69v-254z" />
    <glyph glyph-name="lslash" unicode="&#x142;" horiz-adv-x="360" 
d="M335 486v-85l-106 -53v-348h-88v303l-106 -53v83l106 54v313h88v-268z" />
    <glyph glyph-name="Nacute" unicode="&#x143;" horiz-adv-x="779" 
d="M546 915l-123 -164h-80l88 164h115zM601 700h89v-700h-129l-382 606v-606h-90v700h135l377 -596v596z" />
    <glyph glyph-name="nacute" unicode="&#x144;" horiz-adv-x="604" 
d="M475 740l-123 -164h-79l87 164h115zM341 539q90 0 141 -56t51 -157v-326h-88v312q0 154 -132 154q-69 0 -108 -40t-39 -114v-312h-88v525h88v-90q17 47 63.5 75.5t111.5 28.5z" />
    <glyph glyph-name="uni0145" unicode="&#x145;" horiz-adv-x="779" 
d="M601 700h89v-700h-129l-382 606v-606h-90v700h135l377 -596v596zM403 -45q28 0 48 -20t20 -49q0 -42 -38 -61l-53 -98h-58l47 100q-35 18 -35 59q0 28 20 48.5t49 20.5z" />
    <glyph glyph-name="uni0146" unicode="&#x146;" horiz-adv-x="604" 
d="M341 539q90 0 141 -56t51 -157v-326h-88v312q0 154 -132 154q-69 0 -108 -40t-39 -114v-312h-88v525h88v-90q17 47 63.5 75.5t111.5 28.5zM306 -45q28 0 48 -20t20 -49q0 -42 -38 -61l-53 -98h-58l47 100q-35 18 -35 59q0 28 20.5 48.5t48.5 20.5z" />
    <glyph glyph-name="Ncaron" unicode="&#x147;" horiz-adv-x="779" 
d="M347 751l-99 164h80l70 -103l68 103h75l-101 -164h-93zM601 700h89v-700h-129l-382 606v-606h-90v700h135l377 -596v596z" />
    <glyph glyph-name="ncaron" unicode="&#x148;" horiz-adv-x="604" 
d="M276 576l-98 164h79l70 -102l68 102h75l-100 -164h-94zM341 539q90 0 141 -56t51 -157v-326h-88v312q0 154 -132 154q-69 0 -108 -40t-39 -114v-312h-88v525h88v-90q17 47 63.5 75.5t111.5 28.5z" />
    <glyph glyph-name="Eng" unicode="&#x14a;" horiz-adv-x="780" 
d="M89 0v700h109l406 -551v551h87v-654q0 -124 -57 -182.5t-171 -58.5q-79 0 -136 28v89q79 -32 130 -32q61 0 97 25.5t44 93.5l-423 569v-578h-86z" />
    <glyph glyph-name="eng" unicode="&#x14b;" horiz-adv-x="604" 
d="M78 0v525h88v-92q16 48 62.5 77t110.5 29q92 0 143 -55.5t51 -157.5v-367q0 -77 -41.5 -113t-109.5 -36q-32 0 -61 7v71q24 -6 48 -6q41 0 58.5 17.5t17.5 60.5v352q0 154 -135 154q-67 0 -105.5 -40.5t-38.5 -113.5v-312h-88z" />
    <glyph glyph-name="Omacron" unicode="&#x14c;" horiz-adv-x="769" 
d="M211 879h348v-71h-348v71zM384 -14q-152 0 -244 100t-92 264t92 264t244 100t244.5 -100t92.5 -264t-92.5 -264t-244.5 -100zM384 67q108 0 173.5 74.5t65.5 208.5q0 135 -65.5 209t-173.5 74t-172.5 -74t-64.5 -209q0 -134 65 -208.5t172 -74.5z" />
    <glyph glyph-name="omacron" unicode="&#x14d;" horiz-adv-x="621" 
d="M136 704h348v-71h-348v71zM311 -14q-124 0 -196 75.5t-72 200.5t71.5 201t196.5 76q124 0 195.5 -76t71.5 -201t-71.5 -200.5t-195.5 -75.5zM311 59q82 0 128.5 52.5t46.5 150.5t-47 151t-128 53q-82 0 -129 -53t-47 -151q0 -97 47 -150t129 -53z" />
    <glyph glyph-name="Obreve" unicode="&#x14e;" horiz-adv-x="769" 
d="M385 765q-59 0 -100 33t-50 91h79q10 -68 71 -68t71 68h79q-9 -58 -50 -91t-100 -33zM384 -14q-152 0 -244 100t-92 264t92 264t244 100t244.5 -100t92.5 -264t-92.5 -264t-244.5 -100zM384 67q108 0 173.5 74.5t65.5 208.5q0 135 -65.5 209t-173.5 74t-172.5 -74
t-64.5 -209q0 -134 65 -208.5t172 -74.5z" />
    <glyph glyph-name="obreve" unicode="&#x14f;" horiz-adv-x="621" 
d="M311 590q-59 0 -100 33t-50 91h79q9 -68 71 -68q61 0 71 68h78q-9 -58 -49.5 -91t-99.5 -33zM311 -14q-124 0 -196 75.5t-72 200.5t71.5 201t196.5 76q124 0 195.5 -76t71.5 -201t-71.5 -200.5t-195.5 -75.5zM311 59q82 0 128.5 52.5t46.5 150.5t-47 151t-128 53
q-82 0 -129 -53t-47 -151q0 -97 47 -150t129 -53z" />
    <glyph glyph-name="Ohungarumlaut" unicode="&#x150;" horiz-adv-x="769" 
d="M435 915l-100 -164h-54l48 164h106zM571 915l-100 -164h-55l48 164h107zM384 -14q-152 0 -244 100t-92 264t92 264t244 100t244.5 -100t92.5 -264t-92.5 -264t-244.5 -100zM384 67q108 0 173.5 74.5t65.5 208.5q0 135 -65.5 209t-173.5 74t-172.5 -74t-64.5 -209
q0 -134 65 -208.5t172 -74.5z" />
    <glyph glyph-name="ohungarumlaut" unicode="&#x151;" horiz-adv-x="621" 
d="M361 740l-100 -164h-54l48 164h106zM496 740l-100 -164h-54l48 164h106zM311 -14q-124 0 -196 75.5t-72 200.5t71.5 201t196.5 76q124 0 195.5 -76t71.5 -201t-71.5 -200.5t-195.5 -75.5zM311 59q82 0 128.5 52.5t46.5 150.5t-47 151t-128 53q-82 0 -129 -53t-47 -151
q0 -97 47 -150t129 -53z" />
    <glyph glyph-name="OE" unicode="&#x152;" horiz-adv-x="1029" 
d="M966 621h-343q78 -81 93 -214h246v-78h-243q-6 -157 -95 -249h342v-80h-477q-50 -14 -106 -14q-154 0 -244.5 99t-90.5 265t90.5 265t244.5 99q56 0 106 -14h477v-79zM147 337q0 -127 63.5 -198.5t172.5 -71.5q110 0 174 71.5t64 198.5v24q0 128 -64 200t-174 72
t-173 -71.5t-63 -200.5v-24z" />
    <glyph glyph-name="oe" unicode="&#x153;" horiz-adv-x="1037" 
d="M742 539q125 0 191.5 -81t59.5 -216h-419q3 -79 47.5 -131t126.5 -52q121 0 155 109l83 -12q-19 -74 -81 -122t-157 -48q-145 0 -216 112q-70 -112 -221 -112q-124 0 -196 75.5t-72 200.5t71.5 201t196.5 76q149 0 220 -110q69 110 211 110zM576 310h325q0 64 -41 111
t-118 47t-119.5 -46.5t-46.5 -111.5zM486 256v13q0 93 -47 145t-128 52t-128.5 -52t-47.5 -145v-13q0 -93 47.5 -145t128.5 -52t128 52t47 145z" />
    <glyph glyph-name="Racute" unicode="&#x154;" horiz-adv-x="622" 
d="M487 915l-123 -164h-80l87 164h116zM610 0h-118l-310 343v-343h-93v700h240q116 0 178.5 -51.5t62.5 -139.5q0 -87 -62.5 -137t-179.5 -50h-16zM182 621v-226h149q142 0 142 113t-142 113h-149z" />
    <glyph glyph-name="racute" unicode="&#x155;" horiz-adv-x="383" 
d="M344 740l-123 -164h-80l87 164h116zM78 0v525h88v-87q43 101 148 101q29 0 56 -10v-78q-33 9 -64 9q-140 0 -140 -173v-287h-88z" />
    <glyph glyph-name="uni0156" unicode="&#x156;" horiz-adv-x="622" 
d="M312 322l298 -322h-118l-310 343v-343h-93v700h240q116 0 178.5 -51.5t62.5 -139.5q0 -87 -62.5 -137t-179.5 -50h-16zM182 621v-226h149q142 0 142 113t-142 113h-149zM335 -45q28 0 48 -20t20 -49q0 -42 -38 -61l-53 -98h-58l47 100q-35 18 -35 59q0 28 20 48.5
t49 20.5z" />
    <glyph glyph-name="uni0157" unicode="&#x157;" horiz-adv-x="383" 
d="M314 539q29 0 56 -10v-78q-33 9 -64 9q-140 0 -140 -173v-287h-88v525h88v-87q43 101 148 101zM145 -45q28 0 48 -20t20 -49q0 -42 -38 -61l-53 -98h-58l47 100q-35 18 -35 59q0 28 20 48.5t49 20.5z" />
    <glyph glyph-name="Rcaron" unicode="&#x158;" horiz-adv-x="622" 
d="M289 751l-99 164h80l70 -103l68 103h75l-101 -164h-93zM610 0h-118l-310 343v-343h-93v700h240q116 0 178.5 -51.5t62.5 -139.5q0 -87 -62.5 -137t-179.5 -50h-16zM182 621v-226h149q142 0 142 113t-142 113h-149z" />
    <glyph glyph-name="rcaron" unicode="&#x159;" horiz-adv-x="383" 
d="M145 576l-99 164h80l70 -103l68 103h75l-101 -164h-93zM314 539q29 0 56 -10v-78q-33 9 -64 9q-140 0 -140 -173v-287h-88v525h88v-87q43 101 148 101z" />
    <glyph glyph-name="Sacute" unicode="&#x15a;" horiz-adv-x="596" 
d="M461 915l-123 -164h-79l87 164h115zM306 -14q-121 0 -188 57.5t-77 163.5l94 10q11 -80 53 -116.5t117 -36.5q74 0 111.5 31t37.5 88q0 44 -24.5 73t-77.5 45l-125 41q-168 52 -168 186q0 85 64 135.5t173 50.5t171.5 -53.5t74.5 -153.5l-89 -11q-10 74 -46.5 107.5
t-111.5 33.5q-70 0 -105.5 -28.5t-35.5 -78.5q0 -41 25 -66t84 -43l124 -38q163 -50 163 -198q0 -97 -64.5 -148t-179.5 -51z" />
    <glyph glyph-name="sacute" unicode="&#x15b;" horiz-adv-x="496" 
d="M393 740l-123 -164h-79l87 164h115zM251 -14q-195 0 -212 171l88 7q4 -57 34 -82t90 -25q116 0 116 86q0 33 -19 52t-62 29l-87 21q-149 33 -149 146q0 68 54 108t143 40q173 0 200 -159l-83 -11q-8 51 -36 75t-84 24q-53 0 -81.5 -19.5t-28.5 -55.5q0 -28 19.5 -45
t65.5 -28l82 -20q79 -18 115.5 -55.5t36.5 -97.5q0 -78 -53.5 -119.5t-148.5 -41.5z" />
    <glyph glyph-name="Scedilla" unicode="&#x15e;" horiz-adv-x="596" 
d="M306 -14q-121 0 -188 57.5t-77 163.5l94 10q11 -80 53 -116.5t117 -36.5q74 0 111.5 31t37.5 88q0 44 -24.5 73t-77.5 45l-125 41q-168 52 -168 186q0 85 64 135.5t173 50.5t171.5 -53.5t74.5 -153.5l-89 -11q-10 74 -46.5 107.5t-111.5 33.5q-70 0 -105.5 -28.5
t-35.5 -78.5q0 -41 25 -66t84 -43l124 -38q163 -50 163 -198q0 -97 -64.5 -148t-179.5 -51zM249 -199q-43 0 -80 9l12 51q40 -12 83 -7t43 32q0 20 -20.5 27t-67.5 2l19 49q17 4 46 4q45 0 70 -21.5t25 -54.5q0 -46 -37 -68.5t-93 -22.5z" />
    <glyph glyph-name="scedilla" unicode="&#x15f;" horiz-adv-x="496" 
d="M251 -14q-195 0 -212 171l88 7q4 -57 34 -82t90 -25q116 0 116 86q0 33 -19 52t-62 29l-87 21q-149 33 -149 146q0 68 54 108t143 40q173 0 200 -159l-83 -11q-8 51 -36 75t-84 24q-53 0 -81.5 -19.5t-28.5 -55.5q0 -28 19.5 -45t65.5 -28l82 -20q79 -18 115.5 -55.5
t36.5 -97.5q0 -78 -53.5 -119.5t-148.5 -41.5zM203 -214q-44 0 -80 10l12 50q39 -11 82.5 -6t43.5 32q0 37 -88 29l19 49q18 3 46 3q45 0 70 -21.5t25 -53.5q0 -46 -37 -69t-93 -23z" />
    <glyph glyph-name="Scaron" unicode="&#x160;" horiz-adv-x="596" 
d="M262 751l-98 164h79l70 -102l68 102h75l-100 -164h-94zM387 383q163 -50 163 -198q0 -97 -64.5 -148t-179.5 -51q-121 0 -188 57.5t-77 163.5l94 10q11 -80 53 -116.5t117 -36.5q74 0 111.5 31t37.5 88q0 44 -24.5 73t-77.5 45l-125 41q-168 52 -168 186q0 85 64 135.5
t173 50.5t171.5 -53.5t74.5 -153.5l-89 -11q-10 74 -46.5 107.5t-111.5 33.5q-70 0 -105.5 -28.5t-35.5 -78.5q0 -41 25 -66t84 -43z" />
    <glyph glyph-name="scaron" unicode="&#x161;" horiz-adv-x="496" 
d="M194 576l-98 164h79l70 -102l68 102h75l-100 -164h-94zM301 300q79 -18 115.5 -55.5t36.5 -97.5q0 -78 -53.5 -119.5t-148.5 -41.5q-195 0 -212 171l88 7q4 -57 34 -82t90 -25q116 0 116 86q0 33 -19 52t-62 29l-87 21q-149 33 -149 146q0 68 54 108t143 40
q173 0 200 -159l-83 -11q-8 51 -36 75t-84 24q-53 0 -81.5 -19.5t-28.5 -55.5q0 -28 19.5 -45t65.5 -28z" />
    <glyph glyph-name="uni0162" unicode="&#x162;" horiz-adv-x="583" 
d="M245 0v622h-233v78h559v-78h-233v-622h-93zM257 -199q-43 0 -81 9l12 51q40 -12 83 -7t43 32q0 20 -20.5 27t-67.5 2l19 49q17 4 46 4q45 0 70 -21.5t25 -54.5q0 -46 -37 -68.5t-92 -22.5z" />
    <glyph glyph-name="uni0163" unicode="&#x163;" horiz-adv-x="416" 
d="M395 453h-184v-277q0 -64 23.5 -88t78.5 -24q38 0 82 10v-73q-52 -11 -98 -11q-88 0 -130.5 40t-42.5 132v291h-112v72h112v96l87 41v-137h184v-72zM240 -42q45 0 69.5 -21.5t24.5 -53.5q0 -46 -37 -69t-92 -23q-44 0 -80 10l12 50q39 -11 82.5 -6t43.5 32
q0 20 -20.5 26.5t-68.5 2.5l19 49q19 3 47 3z" />
    <glyph glyph-name="Tcaron" unicode="&#x164;" horiz-adv-x="583" 
d="M248 751l-99 164h80l70 -103l68 103h75l-101 -164h-93zM12 700h559v-78h-233v-622h-93v622h-233v78z" />
    <glyph glyph-name="tcaron" unicode="&#x165;" horiz-adv-x="416" 
d="M354 811q29 0 49 -20t20 -48q0 -44 -40 -62l-52 -100h-58l48 102q-35 18 -35 60q0 29 20 48.5t48 19.5zM211 662v-137h184v-72h-184v-277q0 -64 23.5 -88t78.5 -24q38 0 82 10v-73q-52 -11 -98 -11q-88 0 -130.5 40t-42.5 132v291h-112v72h112v96z" />
    <glyph glyph-name="Tbar" unicode="&#x166;" horiz-adv-x="655" 
d="M607 622h-233v-222h227v-75h-227v-325h-94v325h-212v75h212v222h-232v78h559v-78z" />
    <glyph glyph-name="tbar" unicode="&#x167;" horiz-adv-x="435" 
d="M406 453h-184v-147h178v-67h-178v-63q0 -64 23.5 -88t78.5 -24q38 0 81 10v-73q-51 -11 -97 -11q-88 0 -130.5 40t-42.5 132v77h-118v67h118v147h-113v72h113v96l87 41v-137h184v-72z" />
    <glyph glyph-name="Umacron" unicode="&#x16a;" horiz-adv-x="733" 
d="M194 879h348v-71h-348v71zM367 -14q-286 0 -286 312v402h95v-409q0 -225 192 -225q194 0 194 225v409h90v-402q0 -312 -285 -312z" />
    <glyph glyph-name="umacron" unicode="&#x16b;" horiz-adv-x="594" 
d="M470 704v-71h-348v71h348zM429 525h87v-525h-87v99q-16 -54 -58.5 -83.5t-106.5 -29.5q-85 0 -139 54t-54 163v322h88v-298q0 -169 125 -169q68 0 106.5 45t38.5 129v293z" />
    <glyph glyph-name="Ubreve" unicode="&#x16c;" horiz-adv-x="733" 
d="M369 765q-59 0 -100 33t-50 91h79q9 -68 71 -68q61 0 71 68h78q-9 -58 -49.5 -91t-99.5 -33zM367 -14q-286 0 -286 312v402h95v-409q0 -225 192 -225q194 0 194 225v409h90v-402q0 -312 -285 -312z" />
    <glyph glyph-name="ubreve" unicode="&#x16d;" horiz-adv-x="594" 
d="M296 590q-59 0 -100 33t-49 91h78q10 -68 71 -68q62 0 71 68h79q-9 -58 -50 -91t-100 -33zM429 525h87v-525h-87v99q-16 -54 -58.5 -83.5t-106.5 -29.5q-85 0 -139 54t-54 163v322h88v-298q0 -169 125 -169q68 0 106.5 45t38.5 129v293z" />
    <glyph glyph-name="Uring" unicode="&#x16e;" horiz-adv-x="733" 
d="M369 747q-36 0 -61 24.5t-25 59.5t25 59.5t61 24.5t60.5 -24.5t24.5 -59.5t-24.5 -59.5t-60.5 -24.5zM369 789q18 0 30 12t12 30t-12 30t-30 12t-30.5 -12t-12.5 -30t12.5 -30t30.5 -12zM367 -14q-286 0 -286 312v402h95v-409q0 -225 192 -225q194 0 194 225v409h90v-402
q0 -312 -285 -312z" />
    <glyph glyph-name="uring" unicode="&#x16f;" horiz-adv-x="594" 
d="M296 572q-36 0 -60.5 24.5t-24.5 59.5t24.5 59.5t60.5 24.5t61 -24.5t25 -59.5t-25 -59.5t-61 -24.5zM296 698q-18 0 -30 -12t-12 -30t12 -30t30 -12t30.5 12t12.5 30t-12.5 30t-30.5 12zM429 525h87v-525h-87v99q-16 -54 -58.5 -83.5t-106.5 -29.5q-85 0 -139 54
t-54 163v322h88v-298q0 -169 125 -169q68 0 106.5 45t38.5 129v293z" />
    <glyph glyph-name="Uhungarumlaut" unicode="&#x170;" horiz-adv-x="733" 
d="M419 915l-100 -164h-54l48 164h106zM554 915l-100 -164h-54l48 164h106zM367 -14q-286 0 -286 312v402h95v-409q0 -225 192 -225q194 0 194 225v409h90v-402q0 -312 -285 -312z" />
    <glyph glyph-name="uhungarumlaut" unicode="&#x171;" horiz-adv-x="594" 
d="M346 740l-100 -164h-54l48 164h106zM382 576h-55l48 164h107zM429 525h87v-525h-87v99q-16 -54 -58.5 -83.5t-106.5 -29.5q-85 0 -139 54t-54 163v322h88v-298q0 -169 125 -169q68 0 106.5 45t38.5 129v293z" />
    <glyph glyph-name="Uogonek" unicode="&#x172;" horiz-adv-x="733" 
d="M81 298v402h95v-409q0 -225 192 -225q194 0 194 225v409h90v-402q0 -133 -46 -200.5t-172 -113.5q-56 -21 -56 -63q0 -44 57 -44q25 0 49 10v-65q-31 -12 -71 -12q-50 0 -80.5 25.5t-30.5 66.5q0 55 62 85q-147 5 -215 83.5t-68 227.5z" />
    <glyph glyph-name="uogonek" unicode="&#x173;" horiz-adv-x="594" 
d="M487 -130q25 0 49 10v-65q-36 -12 -71 -12q-50 0 -80.5 25.5t-30.5 66.5q0 33 20 61t55 44v99q-16 -54 -58.5 -83.5t-106.5 -29.5q-85 0 -139 54t-54 163v322h88v-298q0 -169 125 -169q68 0 106.5 45t38.5 129v293h87v-525q-78 -35 -78 -86q0 -44 49 -44z" />
    <glyph glyph-name="Wcircumflex" unicode="&#x174;" horiz-adv-x="1006" 
d="M503 853l-67 -102h-77l101 164h93l99 -164h-81zM895 700h95l-213 -700h-123l-151 589l-151 -589h-123l-212 700h99l178 -601l154 601h116l157 -599z" />
    <glyph glyph-name="wcircumflex" unicode="&#x175;" horiz-adv-x="799" 
d="M398 678l-67 -102h-77l101 164h93l99 -164h-81zM698 525h85l-167 -525h-93l-124 418l-122 -418h-94l-166 525h95l123 -422l124 422h91l124 -427z" />
    <glyph glyph-name="Ycircumflex" unicode="&#x176;" horiz-adv-x="661" 
d="M327 853l-67 -102h-77l101 164h93l99 -164h-81zM549 700h99l-271 -376v-324h-93v323l-271 377h108l214 -299z" />
    <glyph glyph-name="ycircumflex" unicode="&#x177;" horiz-adv-x="544" 
d="M278 678l-66 -102h-77l101 164h93l99 -164h-82zM463 525h89l-242 -550q-44 -101 -86 -140t-110 -39q-38 0 -81 18v79q43 -17 75 -17q40 0 60.5 21t52.5 83l17 32l-228 513h98l179 -413z" />
    <glyph glyph-name="Ydieresis" unicode="&#x178;" horiz-adv-x="661" 
d="M241 785q-26 0 -45.5 19.5t-19.5 46.5t19.5 46.5t45.5 19.5q27 0 46.5 -19.5t19.5 -46.5t-19.5 -46.5t-46.5 -19.5zM423 785q-27 0 -46.5 19.5t-19.5 46.5t19.5 46.5t46.5 19.5t46 -19.5t19 -46.5t-19 -46.5t-46 -19.5zM284 0v323l-271 377h108l214 -299l214 299h99
l-271 -376v-324h-93z" />
    <glyph glyph-name="Zacute" unicode="&#x179;" horiz-adv-x="584" 
d="M453 915l-123 -164h-79l87 164h115zM556 700l-381 -621h380v-79h-534l386 622h-368v78h517z" />
    <glyph glyph-name="zacute" unicode="&#x17a;" horiz-adv-x="487" 
d="M399 740l-123 -164h-79l87 164h115zM464 525l-300 -454h285v-71h-431l303 454h-278v71h421z" />
    <glyph glyph-name="Zdotaccent" unicode="&#x17b;" horiz-adv-x="584" 
d="M296 773q-31 0 -52 21t-21 52q0 30 21 51t52 21t52 -21t21 -51q0 -31 -21 -52t-52 -21zM556 700l-381 -621h380v-79h-534l386 622h-368v78h517z" />
    <glyph glyph-name="zdotaccent" unicode="&#x17c;" horiz-adv-x="487" 
d="M261 598q-31 0 -52 21t-21 52q0 30 21 51t52 21t52 -21t21 -51q0 -31 -21 -52t-52 -21zM464 525l-300 -454h285v-71h-431l303 454h-278v71h421z" />
    <glyph glyph-name="Zcaron" unicode="&#x17d;" horiz-adv-x="584" 
d="M256 751l-99 164h79l70 -102l68 102h75l-100 -164h-93zM556 700l-381 -621h380v-79h-534l386 622h-368v78h517z" />
    <glyph glyph-name="zcaron" unicode="&#x17e;" horiz-adv-x="487" 
d="M221 576l-99 164h79l70 -102l68 102h76l-101 -164h-93zM464 525l-300 -454h285v-71h-431l303 454h-278v71h421z" />
    <glyph glyph-name="uni018F" unicode="&#x18f;" horiz-adv-x="755" 
d="M375 714q159 0 245.5 -99.5t86.5 -263.5q0 -169 -89.5 -267t-245.5 -98q-157 0 -242 102t-84 283h567q-3 131 -64.5 196.5t-173.5 65.5q-175 0 -224 -159l-96 17q24 96 108 159.5t212 63.5zM372 71q106 0 170 65.5t70 158.5h-465q7 -96 62.5 -160t162.5 -64z" />
    <glyph glyph-name="uni0191" unicode="&#x191;" horiz-adv-x="581" 
d="M26 -190q-32 0 -61 7v71q23 -6 48 -6q40 0 58 17.5t18 60.5v740h457v-80h-363v-191h345v-78h-345v-392q0 -77 -44 -113t-113 -36z" />
    <glyph glyph-name="florin" unicode="&#x192;" horiz-adv-x="709" 
d="M110 -190q-50 0 -86 9v76q38 -14 81 -14q52 0 78 21t40 73l129 479h-107v71h126l8 29q42 160 209 160q49 0 89 -10v-76q-40 15 -85 15q-51 0 -78.5 -21t-40.5 -72l-6 -25h180v-71h-199l-131 -489q-23 -84 -74.5 -119.5t-132.5 -35.5z" />
    <glyph glyph-name="uni01B5" unicode="&#x1b5;" horiz-adv-x="589" 
d="M328 323l-150 -244h380v-79h-534l200 323h-165v68h207l144 231h-368v78h517l-189 -309h170v-68h-212z" />
    <glyph glyph-name="uni01B6" unicode="&#x1b6;" horiz-adv-x="509" 
d="M280 237l-109 -166h284v-71h-431l158 237h-120v68h166l99 149h-278v71h422l-146 -220h125v-68h-170z" />
    <glyph glyph-name="Aringacute" unicode="&#x1fa;" horiz-adv-x="682" 
d="M479 990l-81 -114h-88l61 114h108zM351 726q-28 0 -48 18.5t-20 44.5q0 27 19.5 45.5t48.5 18.5q28 0 47.5 -18.5t19.5 -45.5q0 -26 -19.5 -44.5t-47.5 -18.5zM351 822q-15 0 -24.5 -9.5t-9.5 -23.5t9.5 -22.5t24.5 -8.5q14 0 23.5 9t9.5 22q0 14 -9.5 23.5t-23.5 9.5z
M572 0l-81 217h-306l-80 -217h-97l269 700h128l269 -700h-102zM212 290h252l-126 340z" />
    <glyph glyph-name="aringacute" unicode="&#x1fb;" horiz-adv-x="556" 
d="M442 915l-123 -148h-80l87 148h116zM279 572q-36 0 -61 24t-25 59t25 59.5t61 24.5t60.5 -24.5t24.5 -59.5t-24.5 -59t-60.5 -24zM279 613q18 0 30 12t12 30t-12 30.5t-30 12.5t-30.5 -12.5t-12.5 -30.5t12.5 -30t30.5 -12zM220 -14q-80 0 -126.5 42t-46.5 115
q0 81 60 127.5t174 46.5q71 0 119 -20v32q0 138 -125 138q-115 0 -130 -110l-88 8q27 174 219 174q209 0 209 -218v-321h-85v110q-19 -61 -66 -92.5t-114 -31.5zM239 59q73 0 117.5 53t43.5 144h-86q-176 0 -176 -110q0 -42 27 -64.5t74 -22.5z" />
    <glyph glyph-name="AEacute" unicode="&#x1fc;" horiz-adv-x="918" 
d="M680 901l-123 -164h-80l87 164h116zM856 621h-355v-214h345v-78h-345v-249h355v-80h-447v168h-229l-97 -168h-103l420 700h456v-79zM409 244v322l-185 -322h185z" />
    <glyph glyph-name="aeacute" unicode="&#x1fd;" horiz-adv-x="954" 
d="M632 740l-123 -164h-80l88 164h115zM229 -14q-83 0 -132 46.5t-49 116.5q0 80 67 124t186 44h105v28q0 122 -126 122q-60 0 -93 -27t-43 -92l-87 6q11 88 66 136.5t156 48.5q141 0 185 -89q68 85 196 85q124 0 190.5 -80t59.5 -212h-419q3 -81 47.5 -132.5t126.5 -51.5
q121 0 155 111l83 -13q-19 -75 -80 -123t-158 -48q-155 0 -222 123q-37 -65 -95 -94t-119 -29zM492 311h326q0 62 -40.5 107.5t-118.5 45.5q-76 0 -118.5 -45.5t-48.5 -107.5zM243 59q74 0 119 53.5t44 141.5h-98q-170 0 -170 -104q0 -42 27.5 -66.5t77.5 -24.5z" />
    <glyph glyph-name="uni01FE" unicode="&#x1fe;" horiz-adv-x="784" 
d="M546 915l-123 -164h-79l87 164h115zM741 654l-78 -78q63 -92 63 -226q0 -164 -92.5 -264t-244.5 -100q-138 0 -228 84l-69 -70l-47 46l73 74q-65 93 -65 230q0 164 92 264t244 100q140 0 231 -86l71 72zM151 350q0 -96 34 -162l372 376q-63 69 -168 69q-108 0 -173 -74
t-65 -209zM627 350q0 93 -32 157l-371 -374q63 -66 165 -66q108 0 173 74.5t65 208.5z" />
    <glyph glyph-name="oslashacute" unicode="&#x1ff;" horiz-adv-x="631" 
d="M481 740l-123 -164h-80l87 164h116zM585 501l-56 -59q54 -71 54 -180q0 -125 -72 -200.5t-196 -75.5q-103 0 -172 54l-51 -54l-39 37l52 55q-58 72 -58 184q0 125 72 201t196 76q106 0 176 -57l54 56zM140 262q0 -73 26 -120l268 280q-44 44 -119 44q-81 0 -128 -53
t-47 -151zM490 262q0 67 -23 115l-267 -278q43 -40 115 -40q82 0 128.5 52.5t46.5 150.5z" />
    <glyph glyph-name="uni0218" unicode="&#x218;" horiz-adv-x="596" 
d="M387 383q163 -50 163 -198q0 -97 -64.5 -148t-179.5 -51q-121 0 -188 57.5t-77 163.5l94 10q11 -80 53 -116.5t117 -36.5q74 0 111.5 31t37.5 88q0 44 -24.5 73t-77.5 45l-125 41q-168 52 -168 186q0 85 64 135.5t173 50.5t171.5 -53.5t74.5 -153.5l-89 -11
q-10 74 -46.5 107.5t-111.5 33.5q-70 0 -105.5 -28.5t-35.5 -78.5q0 -41 25 -66t84 -43zM305 -45q28 0 48 -20t20 -49q0 -42 -38 -61l-53 -98h-58l47 100q-35 18 -35 59q0 28 20 48.5t49 20.5z" />
    <glyph glyph-name="uni0219" unicode="&#x219;" horiz-adv-x="496" 
d="M301 300q79 -18 115.5 -55.5t36.5 -97.5q0 -78 -53.5 -119.5t-148.5 -41.5q-195 0 -212 171l88 7q4 -57 34 -82t90 -25q116 0 116 86q0 33 -19 52t-62 29l-87 21q-149 33 -149 146q0 68 54 108t143 40q173 0 200 -159l-83 -11q-8 51 -36 75t-84 24q-53 0 -81.5 -19.5
t-28.5 -55.5q0 -28 19.5 -45t65.5 -28zM245 -45q28 0 48 -20t20 -49q0 -42 -38 -61l-53 -98h-58l47 100q-35 18 -35 59q0 28 20 48.5t49 20.5z" />
    <glyph glyph-name="uni021A" unicode="&#x21a;" horiz-adv-x="583" 
d="M12 700h559v-78h-233v-622h-93v622h-233v78zM293 -45q28 0 48 -20t20 -49q0 -42 -38 -61l-53 -98h-58l47 100q-35 18 -35 59q0 28 20 48.5t49 20.5z" />
    <glyph glyph-name="uni021B" unicode="&#x21b;" horiz-adv-x="416" 
d="M395 453h-184v-277q0 -64 23.5 -88t78.5 -24q38 0 82 10v-73q-52 -11 -98 -11q-88 0 -130.5 40t-42.5 132v291h-112v72h112v96l87 41v-137h184v-72zM245 -45q28 0 48 -20t20 -49q0 -42 -38 -61l-53 -98h-58l47 100q-35 18 -35 59q0 28 20 48.5t49 20.5z" />
    <glyph glyph-name="uni0237" unicode="&#x237;" horiz-adv-x="250" 
d="M21 -190q-33 0 -60 7v71q23 -6 48 -6q41 0 58.5 17.5t17.5 60.5v565h88v-566q0 -77 -42 -113t-110 -36z" />
    <glyph glyph-name="uni0259" unicode="&#x259;" horiz-adv-x="582" 
d="M288 539q119 0 184.5 -76t65.5 -200q0 -128 -68.5 -202.5t-181.5 -74.5q-119 0 -185 81t-58 213h405q-2 84 -41 135t-121 51q-128 0 -157 -120l-83 14q16 77 79.5 128t160.5 51zM288 58q74 0 116 46.5t46 108.5h-315q0 -60 39 -107.5t114 -47.5z" />
    <glyph glyph-name="circumflex" unicode="&#x2c6;" horiz-adv-x="341" 
d="M294 576h-81l-68 101l-66 -101h-77l100 164h94z" />
    <glyph glyph-name="caron" unicode="&#x2c7;" horiz-adv-x="341" 
d="M217 740h75l-100 -164h-94l-98 164h79l70 -102z" />
    <glyph glyph-name="uni02C9" unicode="&#x2c9;" horiz-adv-x="321" 
d="M37 704h348v-71h-348v71z" />
    <glyph glyph-name="breve" unicode="&#x2d8;" horiz-adv-x="339" 
d="M170 590q-59 0 -100 33t-50 91h79q10 -68 71 -68t71 68h79q-9 -58 -50 -91t-100 -33z" />
    <glyph glyph-name="dotaccent" unicode="&#x2d9;" horiz-adv-x="198" 
d="M95 598q-30 0 -51 21t-21 52q0 30 21 51t51 21q31 0 52 -21t21 -51q0 -31 -21 -52t-52 -21z" />
    <glyph glyph-name="ring" unicode="&#x2da;" horiz-adv-x="228" 
d="M114 572q-36 0 -60.5 24.5t-24.5 59.5t24.5 59.5t60.5 24.5t61 -24.5t25 -59.5t-25 -59.5t-61 -24.5zM114 614q18 0 30.5 12t12.5 30t-12.5 30t-30.5 12t-30 -12t-12 -30t12 -30t30 -12z" />
    <glyph glyph-name="ogonek" unicode="&#x2db;" horiz-adv-x="251" 
d="M204 0q-88 -32 -88 -86q0 -44 48 -44q24 0 50 10v-65q-36 -12 -71 -12q-50 0 -80.5 25.5t-30.5 66.5q0 70 74 105h98z" />
    <glyph glyph-name="tilde" unicode="&#x2dc;" horiz-adv-x="386" 
d="M264 599q-34 0 -81.5 24.5t-65.5 24.5q-33 0 -48 -49l-62 20q19 52 44 75t62 23q36 0 84.5 -23.5t63.5 -23.5q29 0 44 48l65 -21q-34 -98 -106 -98z" />
    <glyph glyph-name="hungarumlaut" unicode="&#x2dd;" horiz-adv-x="411" 
d="M202 740l-100 -164h-54l48 164h106zM337 740l-100 -164h-54l48 164h106z" />
    <glyph glyph-name="gravecomb" unicode="&#x300;" horiz-adv-x="0" 
d="M-124 576l-121 164h115l86 -164h-80z" />
    <glyph glyph-name="acutecomb" unicode="&#x301;" horiz-adv-x="0" 
d="M-35 740l-123 -164h-80l87 164h116z" />
    <glyph glyph-name="uni0302" unicode="&#x302;" horiz-adv-x="0" 
d="M-47 576h-81l-68 101l-66 -101h-77l100 164h94z" />
    <glyph glyph-name="tildecomb" unicode="&#x303;" horiz-adv-x="0" 
d="M-122 599q-34 0 -81.5 24.5t-65.5 24.5q-33 0 -48 -49l-62 20q19 52 44 75t62 23q36 0 84.5 -23.5t63.5 -23.5q29 0 44 48l65 -21q-34 -98 -106 -98z" />
    <glyph glyph-name="uni0304" unicode="&#x304;" horiz-adv-x="0" 
d="M-284 704h348v-71h-348v71z" />
    <glyph glyph-name="uni0306" unicode="&#x306;" horiz-adv-x="0" 
d="M-169 590q-59 0 -100 33t-50 91h79q10 -68 71 -68t71 68h79q-9 -58 -50 -91t-100 -33z" />
    <glyph glyph-name="uni0307" unicode="&#x307;" horiz-adv-x="0" 
d="M-103 598q-30 0 -51 21t-21 52q0 30 21 51t51 21q31 0 52 -21t21 -51q0 -31 -21 -52t-52 -21z" />
    <glyph glyph-name="uni0308" unicode="&#x308;" horiz-adv-x="0" 
d="M-291 610q-27 0 -46.5 19.5t-19.5 46.5t19.5 46.5t46.5 19.5t46 -19.5t19 -46.5t-19 -46.5t-46 -19.5zM-110 610q-27 0 -46.5 19.5t-19.5 46.5t19.5 46.5t46.5 19.5t46.5 -19.5t19.5 -46.5t-19.5 -46.5t-46.5 -19.5z" />
    <glyph glyph-name="uni030A" unicode="&#x30a;" horiz-adv-x="0" 
d="M-117 572q-36 0 -60.5 24.5t-24.5 59.5t24.5 59.5t60.5 24.5t61 -24.5t25 -59.5t-25 -59.5t-61 -24.5zM-117 614q18 0 30.5 12t12.5 30t-12.5 30t-30.5 12t-30 -12t-12 -30t12 -30t30 -12z" />
    <glyph glyph-name="uni030B" unicode="&#x30b;" horiz-adv-x="0" 
d="M-209 740l-100 -164h-54l48 164h106zM-74 740l-100 -164h-54l48 164h106z" />
    <glyph glyph-name="uni030C" unicode="&#x30c;" horiz-adv-x="0" 
d="M-124 740h75l-100 -164h-94l-98 164h79l70 -102z" />
    <glyph glyph-name="uni0312" unicode="&#x312;" horiz-adv-x="0" 
d="M-101 582q35 -20 35 -60q0 -29 -20 -49t-48 -20t-48.5 20.5t-20.5 48.5q0 44 40 62l52 100h58z" />
    <glyph glyph-name="uni0326" unicode="&#x326;" horiz-adv-x="0" 
d="M-49 646q0 -44 -40 -62l-52 -100h-58l48 102q-35 20 -35 60q0 29 20 49t48 20t48.5 -20.5t20.5 -48.5z" />
    <glyph glyph-name="uni0327" unicode="&#x327;" horiz-adv-x="0" 
d="M-153 -199q-42 0 -80 9l12 51q40 -12 83 -7t43 32q0 20 -20.5 27t-67.5 2l19 49q17 4 46 4q45 0 70 -21.5t25 -54.5q0 -46 -37 -68.5t-93 -22.5z" />
    <glyph glyph-name="uni0328" unicode="&#x328;" horiz-adv-x="0" 
d="M-40 0q-88 -32 -88 -86q0 -44 48 -44q24 0 50 10v-65q-36 -12 -71 -12q-50 0 -80.5 25.5t-30.5 66.5q0 70 74 105h98z" />
    <glyph glyph-name="uni0335" unicode="&#x335;" horiz-adv-x="0" 
d="M-17 400v-75h-533v75h533z" />
    <glyph glyph-name="uni0336" unicode="&#x336;" horiz-adv-x="0" 
d="M-848 260v80h829v-80h-829z" />
    <glyph glyph-name="uni0337" unicode="&#x337;" horiz-adv-x="0" 
d="M-301 0l193 525h90l-193 -525h-90z" />
    <glyph glyph-name="uni0338" unicode="&#x338;" horiz-adv-x="0" 
d="M-90 750h94l-345 -940h-94z" />
    <glyph glyph-name="uni0394" unicode="&#x394;" horiz-adv-x="628" 
d="M13 0l254 700h94l254 -700h-602zM127 73h367l-184 518z" />
    <glyph glyph-name="uni03A9" unicode="&#x3a9;" horiz-adv-x="825" 
d="M46 0v85h151q-54 36 -87.5 104.5t-33.5 162.5q0 163 92 262.5t244 99.5t244.5 -99.5t92.5 -262.5q0 -94 -33.5 -162.5t-88.5 -104.5h152v-85h-261v81q132 78 132 269q0 135 -65 209t-173 74t-173 -74t-65 -209q0 -190 133 -269v-81h-261z" />
    <glyph glyph-name="uni03BC" unicode="&#x3bc;" horiz-adv-x="601" 
d="M435 525h88v-525h-88v98q-33 -112 -151 -112q-79 0 -118 52v-228h-88v715h88v-316q0 -151 124 -151q68 0 106.5 45t38.5 129v293z" />
    <glyph glyph-name="pi" unicode="&#x3c0;" horiz-adv-x="650" 
d="M563 59q23 0 48 5v-71q-29 -7 -61 -7q-68 0 -109 36t-41 113v318h-192v-453h-87v453h-104v72h592v-72h-122v-316q0 -44 17.5 -61t58.5 -17z" />
    <glyph glyph-name="Wgrave" unicode="&#x1e80;" horiz-adv-x="1006" 
d="M547 751h-80l-122 164h115zM895 700h95l-213 -700h-123l-151 589l-151 -589h-123l-212 700h99l178 -601l154 601h116l157 -599z" />
    <glyph glyph-name="wgrave" unicode="&#x1e81;" horiz-adv-x="799" 
d="M441 576h-80l-121 164h115zM698 525h85l-167 -525h-93l-124 418l-122 -418h-94l-166 525h95l123 -422l124 422h91l124 -427z" />
    <glyph glyph-name="Wacute" unicode="&#x1e82;" horiz-adv-x="1006" 
d="M662 915l-123 -164h-79l87 164h115zM895 700h95l-213 -700h-123l-151 589l-151 -589h-123l-212 700h99l178 -601l154 601h116l157 -599z" />
    <glyph glyph-name="wacute" unicode="&#x1e83;" horiz-adv-x="799" 
d="M558 740l-123 -164h-80l87 164h116zM698 525h85l-167 -525h-93l-124 418l-122 -418h-94l-166 525h95l123 -422l124 422h91l124 -427z" />
    <glyph glyph-name="Wdieresis" unicode="&#x1e84;" horiz-adv-x="1006" 
d="M416 785q-27 0 -46 19.5t-19 46.5t19 46.5t46 19.5t46.5 -19.5t19.5 -46.5t-19.5 -46.5t-46.5 -19.5zM597 785q-27 0 -46 19.5t-19 46.5t19 46.5t46 19.5t46.5 -19.5t19.5 -46.5t-19.5 -46.5t-46.5 -19.5zM895 700h95l-213 -700h-123l-151 589l-151 -589h-123l-212 700
h99l178 -601l154 601h116l157 -599z" />
    <glyph glyph-name="wdieresis" unicode="&#x1e85;" horiz-adv-x="799" 
d="M312 610q-27 0 -46.5 19.5t-19.5 46.5t19.5 46.5t46.5 19.5t46 -19.5t19 -46.5t-19 -46.5t-46 -19.5zM493 610q-27 0 -46.5 19.5t-19.5 46.5t19.5 46.5t46.5 19.5t46 -19.5t19 -46.5t-19 -46.5t-46 -19.5zM698 525h85l-167 -525h-93l-124 418l-122 -418h-94l-166 525h95
l123 -422l124 422h91l124 -427z" />
    <glyph glyph-name="uni1E8A" unicode="&#x1e8a;" horiz-adv-x="612" 
d="M308 773q-31 0 -52 21t-21 52q0 30 21 51t52 21q30 0 51 -21t21 -51q0 -31 -21 -52t-51 -21zM608 0h-109l-198 298l-195 -298h-102l252 364l-232 336h109l176 -267l177 267h101l-236 -330z" />
    <glyph glyph-name="uni1E8B" unicode="&#x1e8b;" horiz-adv-x="518" 
d="M264 598q-31 0 -52 21t-21 52q0 30 21 51t52 21q30 0 51 -21t21 -51q0 -31 -21 -52t-51 -21zM512 0h-108l-148 204l-145 -204h-97l196 265l-197 260h107l141 -191l137 191h98l-190 -252z" />
    <glyph glyph-name="Ygrave" unicode="&#x1ef2;" horiz-adv-x="661" 
d="M292 751l-121 164h115l86 -164h-80zM284 0v323l-271 377h108l214 -299l214 299h99l-271 -376v-324h-93z" />
    <glyph glyph-name="ygrave" unicode="&#x1ef3;" horiz-adv-x="544" 
d="M341 576h-80l-122 164h115zM463 525h89l-242 -550q-44 -101 -86 -140t-110 -39q-38 0 -81 18v79q43 -17 75 -17q40 0 60.5 21t52.5 83l17 32l-228 513h98l179 -413z" />
    <glyph glyph-name="endash" unicode="&#x2013;" horiz-adv-x="731" 
d="M66 260v80h599v-80h-599z" />
    <glyph glyph-name="emdash" unicode="&#x2014;" horiz-adv-x="961" 
d="M66 260v80h829v-80h-829z" />
    <glyph glyph-name="quoteleft" unicode="&#x2018;" horiz-adv-x="257" 
d="M159 579q37 -24 37 -66q0 -32 -23 -55t-55 -23t-54.5 23t-22.5 55q0 26 15 45.5t38 27.5l66 114h57z" />
    <glyph glyph-name="quoteright" unicode="&#x2019;" horiz-adv-x="256" 
d="M222 637q0 -50 -45 -70l-59 -113h-65l54 115q-40 22 -40 68q0 32 23 55t55 23t54.5 -23t22.5 -55z" />
    <glyph glyph-name="quotesinglbase" unicode="&#x201a;" horiz-adv-x="257" 
d="M206 63q0 -50 -45 -70l-59 -113h-65l54 116q-40 22 -40 67q0 32 23 55t55 23t54.5 -23t22.5 -55z" />
    <glyph glyph-name="quotedblleft" unicode="&#x201c;" horiz-adv-x="453" 
d="M160 700h57l-58 -121q37 -24 37 -66q0 -32 -23 -55t-55 -23t-54.5 23t-22.5 55q0 26 15 45.5t38 27.5zM355 579q37 -24 37 -66q0 -32 -23 -55t-55 -23t-54.5 23t-22.5 55q0 26 15 45.5t38 27.5l66 114h57z" />
    <glyph glyph-name="quotedblright" unicode="&#x201d;" horiz-adv-x="454" 
d="M149 715q32 0 54.5 -23t22.5 -55q0 -26 -15 -46t-38 -27l-66 -114h-56l58 121q-38 21 -38 66q0 32 23 55t55 23zM422 637q0 -26 -15 -46t-38 -27l-66 -114h-56l58 121q-38 21 -38 66q0 32 23 55t55 23t54.5 -23t22.5 -55z" />
    <glyph glyph-name="quotedblbase" unicode="&#x201e;" horiz-adv-x="455" 
d="M130 143q32 0 54.5 -23t22.5 -55q0 -26 -15 -45.5t-38 -27.5l-66 -114h-57l58 121q-37 24 -37 66q0 32 23 55t55 23zM403 65q0 -26 -15 -45.5t-38 -27.5l-66 -114h-57l58 121q-37 24 -37 66q0 32 23 55t55 23t54.5 -23t22.5 -55z" />
    <glyph glyph-name="dagger" unicode="&#x2020;" horiz-adv-x="497" 
d="M208 525v175h82v-175h179v-75h-179v-556h-83v556h-179v75h180z" />
    <glyph glyph-name="daggerdbl" unicode="&#x2021;" horiz-adv-x="522" 
d="M220 -106v307h-179v76h179v173h-179v75h179v175h82v-175h179v-75h-179v-173h179v-76h-179v-307h-82z" />
    <glyph glyph-name="bullet" unicode="&#x2022;" horiz-adv-x="395" 
d="M197 175q-59 0 -101.5 42.5t-42.5 102.5q0 59 42.5 102t101.5 43q60 0 102.5 -43t42.5 -102q0 -60 -42.5 -102.5t-102.5 -42.5z" />
    <glyph glyph-name="ellipsis" unicode="&#x2026;" horiz-adv-x="657" 
d="M121 -14q-29 0 -49 20t-20 49t20 49.5t49 20.5t49.5 -20.5t20.5 -49.5t-20.5 -49t-49.5 -20zM328 -14q-28 0 -48.5 20t-20.5 49t20 49.5t49 20.5t49.5 -20.5t20.5 -49.5t-20.5 -49t-49.5 -20zM535 -14q-29 0 -49 20t-20 49t20 49.5t49 20.5t49.5 -20.5t20.5 -49.5
t-20.5 -49t-49.5 -20z" />
    <glyph glyph-name="perthousand" unicode="&#x2030;" horiz-adv-x="970" 
d="M189 426q-61 0 -104 42t-43 101q0 60 43 102.5t104 42.5q62 0 104.5 -42.5t42.5 -102.5t-42.5 -101.5t-104.5 -41.5zM522 700h62l-484 -700h-61zM189 488q34 0 58 24t24 57q0 34 -24 57.5t-58 23.5q-33 0 -56.5 -23.5t-23.5 -57.5q0 -33 23.5 -57t56.5 -24zM451 -15
q-61 0 -104 42t-43 101q0 60 43 102.5t104 42.5q62 0 104.5 -42.5t42.5 -102.5t-42.5 -101.5t-104.5 -41.5zM795 -15q-62 0 -105 42t-43 101q0 60 43 102.5t105 42.5t104.5 -42.5t42.5 -102.5t-42.5 -101.5t-104.5 -41.5zM451 48q34 0 58 23.5t24 56.5q0 34 -24 57.5
t-58 23.5q-33 0 -56.5 -23.5t-23.5 -57.5q0 -33 23.5 -56.5t56.5 -23.5zM795 48q34 0 57.5 23.5t23.5 56.5q0 34 -23.5 57.5t-57.5 23.5t-57.5 -23.5t-23.5 -57.5q0 -33 23.5 -56.5t57.5 -23.5z" />
    <glyph glyph-name="minute" unicode="&#x2032;" horiz-adv-x="221" 
d="M57 399q-2 115 12 208l13 93h100l-13 -93q-12 -79 -58 -208h-54z" />
    <glyph glyph-name="second" unicode="&#x2033;" horiz-adv-x="391" 
d="M57 399q-2 115 12 208l13 93h100l-13 -93q-12 -79 -58 -208h-54zM226 399q-2 115 12 208l13 93h100l-13 -93q-12 -79 -58 -208h-54z" />
    <glyph glyph-name="guilsinglleft" unicode="&#x2039;" horiz-adv-x="376" 
d="M324 454l-190 -193l190 -193h-104l-189 193l189 193h104z" />
    <glyph glyph-name="guilsinglright" unicode="&#x203a;" horiz-adv-x="376" 
d="M156 454l189 -193l-189 -193h-104l190 193l-190 193h104z" />
    <glyph glyph-name="uni203D" unicode="&#x203d;" horiz-adv-x="541" 
d="M275 714q102 0 166 -52t64 -140q0 -82 -56.5 -130t-157.5 -58v-11q0 -66 -15 -135h-52q-15 69 -15 135v189h82v-112q128 20 128 119q0 56 -39 88.5t-105 32.5q-61 0 -102.5 -29t-55.5 -87h-89q16 88 81.5 139t165.5 51zM249 142q32 0 55 -22.5t23 -55.5q0 -32 -23 -55
t-55 -23q-33 0 -56 23t-23 55q0 33 23 55.5t56 22.5z" />
    <glyph glyph-name="fraction" unicode="&#x2044;" horiz-adv-x="182" 
d="M301 700h61l-484 -700h-61z" />
    <glyph glyph-name="uni2070" unicode="&#x2070;" horiz-adv-x="481" 
d="M241 299q-93 0 -147 63.5t-54 174.5q0 110 54 173.5t147 63.5q92 0 146 -63.5t54 -173.5t-54 -174t-146 -64zM241 366q58 0 89 41.5t31 120.5v17q0 80 -31 122t-89 42q-59 0 -90 -42t-31 -122v-17q0 -79 31 -120.5t90 -41.5z" />
    <glyph glyph-name="uni2074" unicode="&#x2074;" horiz-adv-x="425" 
d="M23 426v53l204 281h96v-276h76v-58h-76v-113h-72v113h-228zM251 484v211l-151 -211h151z" />
    <glyph glyph-name="uni2075" unicode="&#x2075;" horiz-adv-x="424" 
d="M234 613q70 0 112 -42t42 -112q0 -75 -47 -117.5t-126 -42.5q-76 0 -123 39.5t-56 104.5l71 7q4 -40 33 -65.5t75 -25.5q45 0 72.5 26.5t27.5 73.5t-27 74t-73 27q-64 0 -105 -54l-63 12l20 242h300v-59h-242l-12 -135q47 47 121 47z" />
    <glyph glyph-name="uni2076" unicode="&#x2076;" horiz-adv-x="439" 
d="M242 602q71 0 113.5 -41.5t42.5 -108.5q0 -69 -46 -111t-124 -42q-93 0 -140.5 59t-47.5 169q0 117 51.5 182t143.5 65q68 0 109.5 -35.5t49.5 -98.5l-68 -10q-9 47 -31.5 66.5t-61.5 19.5q-117 0 -126 -180q45 66 135 66zM227 357q45 0 71.5 26.5t26.5 68.5
q0 43 -27.5 69t-72.5 26q-44 0 -71.5 -26t-27.5 -69q0 -42 28.5 -68.5t72.5 -26.5z" />
    <glyph glyph-name="uni2077" unicode="&#x2077;" horiz-adv-x="391" 
d="M23 760h356l-230 -447h-82l212 388h-256v59z" />
    <glyph glyph-name="uni2078" unicode="&#x2078;" horiz-adv-x="438" 
d="M220 299q-83 0 -132 37t-49 95q0 43 28.5 74.5t76.5 39.5q-42 13 -65.5 40.5t-23.5 64.5q0 54 43 89t122 35q77 0 120 -35t43 -89q0 -37 -23.5 -64.5t-65.5 -40.5q48 -8 76.5 -39.5t28.5 -74.5q0 -58 -48.5 -95t-130.5 -37zM220 574q42 0 65 20t23 54t-22.5 52.5
t-65.5 18.5t-67 -19t-24 -52q0 -34 24 -54t67 -20zM220 357q48 0 75.5 21.5t27.5 58.5t-27.5 58.5t-75.5 21.5q-49 0 -77 -21t-28 -59t28 -59t77 -21z" />
    <glyph glyph-name="uni2079" unicode="&#x2079;" horiz-adv-x="440" 
d="M211 774q94 0 141 -61t47 -178q0 -116 -47 -176t-137 -60q-71 0 -116 38.5t-55 106.5l69 7q16 -94 104 -94q115 0 116 180q-43 -66 -133 -66q-73 0 -116 41.5t-43 108.5q0 68 45.5 110.5t124.5 42.5zM214 527q45 0 72.5 25.5t27.5 68.5q0 42 -28.5 68.5t-73.5 26.5
t-71.5 -26.5t-26.5 -68.5q0 -43 27.5 -68.5t72.5 -25.5z" />
    <glyph glyph-name="uni2080" unicode="&#x2080;" horiz-adv-x="481" 
d="M241 -175q-93 0 -147 63.5t-54 174.5q0 110 54 173.5t147 63.5q92 0 146 -63.5t54 -173.5t-54 -174t-146 -64zM241 -109q58 0 89 42t31 121v17q0 80 -31 122t-89 42q-59 0 -90 -42t-31 -122v-17q0 -79 31 -121t90 -42z" />
    <glyph glyph-name="uni2081" unicode="&#x2081;" horiz-adv-x="288" 
d="M139 282h78v-447h-70v385l-123 -100v74z" />
    <glyph glyph-name="uni2082" unicode="&#x2082;" horiz-adv-x="422" 
d="M40 -165v26q0 53 35 94t137 95q54 29 74.5 51t20.5 53q0 37 -23.5 58t-66.5 21q-89 0 -104 -101l-75 3q22 161 180 161q73 0 118.5 -38t45.5 -104q0 -47 -29 -82.5t-103 -74.5q-77 -41 -99 -58t-28 -40h255v-64h-338z" />
    <glyph glyph-name="uni2083" unicode="&#x2083;" horiz-adv-x="424" 
d="M215 -175q-81 0 -127.5 42.5t-51.5 119.5l74 3q4 -53 27.5 -78.5t75.5 -25.5q43 0 69 19t26 58q0 75 -102 75h-42v56h43q98 0 98 75q0 70 -89 70q-47 0 -71.5 -23t-29.5 -70l-73 4q18 150 176 150q79 0 119 -35.5t40 -91.5q0 -48 -26.5 -73t-66.5 -32q41 -4 69 -32
t28 -76q0 -60 -45.5 -97.5t-120.5 -37.5z" />
    <glyph glyph-name="uni2084" unicode="&#x2084;" horiz-adv-x="425" 
d="M23 -52v53l204 281h96v-276h76v-58h-76v-113h-72v113h-228zM251 6v211l-151 -211h151z" />
    <glyph glyph-name="uni2085" unicode="&#x2085;" horiz-adv-x="424" 
d="M234 139q70 0 112 -42t42 -112q0 -75 -47 -117.5t-126 -42.5q-76 0 -123 39.5t-56 104.5l71 7q4 -40 33.5 -66t74.5 -26t72.5 27t27.5 74t-27 74t-73 27q-64 0 -105 -54l-63 12l20 242h300v-59h-242l-12 -135q47 47 121 47z" />
    <glyph glyph-name="uni2086" unicode="&#x2086;" horiz-adv-x="439" 
d="M242 128q71 0 113.5 -41.5t42.5 -108.5q0 -69 -46 -111t-124 -42q-93 0 -140.5 59t-47.5 169q0 117 51.5 182t143.5 65q68 0 109.5 -35.5t49.5 -98.5l-68 -10q-9 47 -31.5 66.5t-61.5 19.5q-117 0 -126 -180q45 66 135 66zM227 -117q45 0 71.5 26.5t26.5 68.5
q0 43 -27.5 69t-72.5 26q-44 0 -71.5 -26t-27.5 -69q0 -42 28.5 -68.5t72.5 -26.5z" />
    <glyph glyph-name="uni2087" unicode="&#x2087;" horiz-adv-x="391" 
d="M24 282h356l-230 -447h-83l213 388h-256v59z" />
    <glyph glyph-name="uni2088" unicode="&#x2088;" horiz-adv-x="438" 
d="M220 -175q-83 0 -132 37t-49 95q0 43 28.5 74.5t76.5 39.5q-42 13 -65.5 40.5t-23.5 64.5q0 54 43 89t122 35q77 0 120 -35t43 -89q0 -37 -23.5 -64.5t-65.5 -40.5q48 -8 76.5 -39.5t28.5 -74.5q0 -58 -48.5 -95t-130.5 -37zM220 100q42 0 65 20t23 54t-22.5 52.5
t-65.5 18.5t-67 -19t-24 -52q0 -34 24 -54t67 -20zM220 -117q48 0 75.5 21.5t27.5 58.5t-27.5 58.5t-75.5 21.5q-49 0 -77 -21t-28 -59t28 -59t77 -21z" />
    <glyph glyph-name="uni2089" unicode="&#x2089;" horiz-adv-x="440" 
d="M211 300q94 0 141 -61t47 -178q0 -116 -47 -176t-137 -60q-71 0 -116 38.5t-55 106.5l69 7q16 -94 104 -94q115 0 116 180q-43 -66 -133 -66q-73 0 -116 41.5t-43 108.5q0 68 45.5 110.5t124.5 42.5zM214 53q45 0 72.5 25.5t27.5 68.5q0 42 -28.5 68.5t-73.5 26.5
t-71.5 -26.5t-26.5 -68.5q0 -43 27.5 -68.5t72.5 -25.5z" />
    <glyph glyph-name="Euro" unicode="&#x20ac;" horiz-adv-x="705" 
d="M458 635q-88 0 -149 -50t-82 -143h367l-21 -68h-354q-1 -8 -1 -24q0 -18 1 -26h338l-20 -67h-310q21 -94 82 -142.5t153 -48.5q83 0 164 42v-87q-75 -35 -165 -35q-131 0 -217.5 70.5t-109.5 200.5h-102l21 67h74q-1 9 -1 26q0 16 1 24h-91l21 68h77q25 126 111.5 199
t208.5 73q123 0 217 -83l-27 -76q-88 80 -186 80z" />
    <glyph glyph-name="uni20BA" unicode="&#x20ba;" horiz-adv-x="547" 
d="M428 269h88q0 -128 -68.5 -198.5t-192.5 -70.5h-81v285l-133 -44v74l133 44v37l-133 -44v74l133 44v230h93v-198l133 44v-74l-133 -44v-37l133 44v-75l-133 -44v-235q76 0 118.5 48.5t42.5 139.5z" />
    <glyph glyph-name="uni20BD" unicode="&#x20bd;" horiz-adv-x="679" 
d="M367 273h-127v-62h255v-75h-255v-136h-93v136h-99v75h99v62h-99v76h99v351h222q143 0 210 -58.5t67 -154.5q0 -97 -67 -155.5t-212 -58.5zM240 622v-273h128q180 0 180 136q0 137 -180 137h-128z" />
    <glyph glyph-name="uni20DD" unicode="&#x20dd;" horiz-adv-x="819" 
d="M409 -14q-155 0 -259.5 106t-104.5 258t104.5 258t259.5 106t259.5 -106t104.5 -258t-104.5 -258t-259.5 -106zM409 20q141 0 235.5 96t94.5 234t-94.5 234t-235.5 96t-235.5 -96t-94.5 -234t94.5 -234t235.5 -96z" />
    <glyph glyph-name="uni2113" unicode="&#x2113;" horiz-adv-x="582" 
d="M182 -14q-58 0 -88.5 41t-30.5 116q0 83 40 185t100 186.5t137.5 142t145.5 57.5q36 0 58.5 -21.5t22.5 -56.5q0 -72 -99.5 -186t-332.5 -311q0 -83 56 -83q103 0 258 187l59 -47q-177 -210 -326 -210zM138 224q15 14 67.5 61t86.5 80q197 190 200 282
q-87 -5 -191.5 -129.5t-162.5 -293.5z" />
    <glyph glyph-name="trademark" unicode="&#x2122;" horiz-adv-x="680" 
d="M123 448v208h-89v44h232v-44h-88v-208h-55zM308 448v252h81l70 -181l70 181h77v-252h-50v199l-81 -199h-37l-81 201v-201h-49z" />
    <glyph glyph-name="estimated" unicode="&#x212e;" horiz-adv-x="746" 
d="M198 111q76 -67 182 -67q82 0 139 29.5t102 99.5l52 -25q-51 -83 -121.5 -120t-171.5 -37q-148 0 -239.5 90t-91.5 227q0 139 91.5 229.5t239.5 90.5q143 0 236.5 -82t93.5 -212v-26h-512v-197zM564 355v152q-71 70 -184 70q-105 0 -182 -71v-151h366z" />
    <glyph glyph-name="uni2153" unicode="&#x2153;" horiz-adv-x="925" 
d="M153 253v385l-123 -100v74l115 88h78v-447h-70zM632 700h62l-484 -700h-61zM782 229q41 -4 69 -32t28 -76q0 -60 -46 -97.5t-121 -37.5q-81 0 -127.5 42.5t-50.5 119.5l73 3q5 -53 28.5 -78.5t74.5 -25.5q43 0 69 19t26 58q0 75 -102 75h-42v56h44q97 0 97 75
q0 70 -88 70q-47 0 -71.5 -23t-29.5 -70l-73 4q18 150 176 150q79 0 119 -35.5t40 -91.5q0 -48 -26.5 -73t-66.5 -32z" />
    <glyph glyph-name="uni2154" unicode="&#x2154;" horiz-adv-x="1030" 
d="M45 253v26q0 53 35 94t137 95q54 29 74.5 51t20.5 53q0 37 -23.5 58t-65.5 21q-89 0 -104 -101l-75 3q20 161 179 161q74 0 119 -38t45 -104q0 -47 -29 -82.5t-103 -74.5q-77 -41 -99 -58t-28 -40h255v-64h-338zM743 700h62l-484 -700h-61zM823 -14q-81 0 -127.5 42.5
t-50.5 119.5l73 3q5 -53 28.5 -78.5t74.5 -25.5q43 0 69 19t26 58q0 75 -102 75h-42v56h44q97 0 97 75q0 70 -88 70q-91 0 -101 -93l-73 4q18 150 176 150q79 0 119 -35.5t40 -91.5q0 -48 -26.5 -73t-66.5 -32q41 -4 69 -32t28 -76q0 -60 -46 -97.5t-121 -37.5z" />
    <glyph glyph-name="oneeighth" unicode="&#x215b;" horiz-adv-x="934" 
d="M153 253v385l-123 -100v74l115 88h78v-447h-70zM632 700h62l-484 -700h-61zM789 232q48 -8 76.5 -39.5t28.5 -74.5q0 -58 -48.5 -95t-130.5 -37q-83 0 -132 37t-49 95q0 43 28.5 74.5t76.5 39.5q-42 13 -65.5 40.5t-23.5 64.5q0 54 43 89t122 35q77 0 120 -35t43 -89
q0 -37 -23.5 -64.5t-65.5 -40.5zM624 335q0 -34 24 -54t67 -20q42 0 65 20t23 54t-22.5 52.5t-65.5 18.5t-67 -19t-24 -52zM715 44q48 0 75.5 21.5t27.5 58.5t-27.5 58.5t-75.5 21.5q-49 0 -77 -21t-28 -59t28 -59t77 -21z" />
    <glyph glyph-name="threeeighths" unicode="&#x215c;" horiz-adv-x="998" 
d="M213 239q-81 0 -127 42.5t-51 119.5l73 3q5 -53 28.5 -78.5t75.5 -25.5q43 0 69 19t26 58q0 75 -102 75h-43v56h44q98 0 98 75q0 70 -89 70q-91 0 -101 -93l-73 4q18 150 176 150q79 0 119 -35.5t40 -91.5q0 -48 -26.5 -73t-66.5 -32q41 -4 69 -32t28 -76
q0 -60 -45.5 -97.5t-121.5 -37.5zM701 700h62l-484 -700h-61zM783 -14q-83 0 -131.5 37t-48.5 95q0 43 28 74.5t76 39.5q-88 27 -88 105q0 54 43 89t121 35t121 -35t43 -89q0 -37 -23.5 -64.5t-65.5 -40.5q48 -8 76.5 -40t28.5 -74q0 -58 -48.5 -95t-131.5 -37zM783 261
q42 0 65.5 20t23.5 54q0 33 -23 52t-66 19t-66.5 -19t-23.5 -52q0 -34 23.5 -54t66.5 -20zM783 44q49 0 76.5 21t27.5 59t-27.5 59t-76.5 21t-76.5 -21t-27.5 -59t27.5 -59t76.5 -21z" />
    <glyph glyph-name="fiveeighths" unicode="&#x215d;" horiz-adv-x="1007" 
d="M387 399q0 -75 -47 -117.5t-126 -42.5q-76 0 -123.5 39.5t-55.5 104.5l71 7q4 -40 33 -65.5t75 -25.5q45 0 72 26.5t27 73.5t-26.5 74t-72.5 27q-66 0 -105 -54l-64 12l21 242h299v-59h-241l-13 -136q47 48 121 48q71 0 113 -42t42 -112zM710 700h61l-484 -700h-60z
M867 232q48 -8 76.5 -40t28.5 -74q0 -58 -48.5 -95t-131.5 -37t-131.5 37t-48.5 95q0 43 28 74.5t76 39.5q-88 27 -88 105q0 54 43 89t121 35t121 -35t43 -89q0 -37 -23.5 -64.5t-65.5 -40.5zM702 335q0 -34 23.5 -54t66.5 -20q42 0 65.5 20t23.5 54q0 33 -23 52t-66 19
t-66.5 -19t-23.5 -52zM792 44q49 0 76.5 21t27.5 59t-27.5 59t-76.5 21t-76.5 -21t-27.5 -59t27.5 -59t76.5 -21z" />
    <glyph glyph-name="seveneighths" unicode="&#x215e;" horiz-adv-x="862" 
d="M159 253h-83l213 388h-256v59h356zM564 700h62l-484 -700h-61zM722 232q48 -8 76.5 -40t28.5 -74q0 -58 -49 -95t-131 -37q-83 0 -131.5 37t-48.5 95q0 43 28 74.5t76 39.5q-42 13 -65.5 40.5t-23.5 64.5q0 54 43.5 89t121.5 35t121 -35t43 -89q0 -37 -23.5 -64.5
t-65.5 -40.5zM557 335q0 -34 23.5 -54t66.5 -20q42 0 65.5 20t23.5 54q0 33 -23 52t-66 19t-66.5 -19t-23.5 -52zM647 44q49 0 76.5 21t27.5 59t-27.5 59t-76.5 21t-77 -21t-28 -59t28 -59t77 -21z" />
    <glyph glyph-name="arrowleft" unicode="&#x2190;" horiz-adv-x="822" 
d="M763 403v-80h-569v-123l-163 163l163 163v-123h569z" />
    <glyph glyph-name="arrowup" unicode="&#x2191;" horiz-adv-x="401" 
d="M364 551h-120v-551h-87v551h-120l164 163z" />
    <glyph glyph-name="arrowright" unicode="&#x2192;" horiz-adv-x="822" 
d="M791 363l-163 -163v123h-569v80h569v123z" />
    <glyph glyph-name="arrowdown" unicode="&#x2193;" horiz-adv-x="401" 
d="M244 149h120l-163 -163l-164 163h120v551h87v-551z" />
    <glyph glyph-name="arrowboth" unicode="&#x2194;" horiz-adv-x="1044" 
d="M1012 363l-152 -153v113h-675v-113l-152 153l152 153v-113h675v113z" />
    <glyph glyph-name="arrowupdn" unicode="&#x2195;" horiz-adv-x="385" 
d="M232 562v-423h113l-153 -153l-153 153h113v423h-113l153 152l154 -152h-114z" />
    <glyph glyph-name="uni2196" unicode="&#x2196;" horiz-adv-x="777" 
d="M755 51l-58 -58l-563 562l-86 -86v231h231l-86 -86z" />
    <glyph glyph-name="uni2197" unicode="&#x2197;" horiz-adv-x="777" 
d="M730 700v-231l-86 87l-563 -563l-59 58l563 563l-86 86h231z" />
    <glyph glyph-name="uni2198" unicode="&#x2198;" horiz-adv-x="777" 
d="M644 145l86 86v-231h-231l86 86l-563 563l59 58z" />
    <glyph glyph-name="uni2199" unicode="&#x2199;" horiz-adv-x="777" 
d="M755 649l-562 -563l86 -86h-231v231l86 -86l563 562z" />
    <glyph glyph-name="partialdiff" unicode="&#x2202;" horiz-adv-x="584" 
d="M264 -14q-106 0 -170 63t-64 172q0 111 67.5 180t169.5 69q61 0 109.5 -25t72.5 -69q-4 51 -13 89t-29.5 74.5t-51.5 58.5t-81.5 33t-117.5 6v71q376 37 376 -365q0 -182 -72.5 -269.5t-195.5 -87.5zM265 62q78 0 121.5 51.5t43.5 129.5q1 74 -39.5 112.5t-105.5 38.5
q-73 0 -118.5 -47.5t-45.5 -127.5q-1 -75 40.5 -116t103.5 -41z" />
    <glyph glyph-name="emptyset" unicode="&#x2205;" horiz-adv-x="633" 
d="M490 470q97 -81 97 -208q0 -112 -79 -191.5t-191 -79.5q-72 0 -135 36l-53 -77l-43 26l55 80q-95 80 -95 206q0 112 79 191.5t192 79.5q71 0 130 -34l53 77l44 -27zM118 262q0 -88 64 -147l225 326q-44 21 -90 21q-83 0 -141 -58.5t-58 -141.5zM317 62q82 0 141 58.5
t59 141.5q0 90 -68 150l-226 -326q45 -24 94 -24z" />
    <glyph glyph-name="product" unicode="&#x220f;" horiz-adv-x="575" 
d="M484 700v-790h-91v710h-210v-710h-91v790h392z" />
    <glyph glyph-name="summation" unicode="&#x2211;" horiz-adv-x="661" 
d="M24 -190l318 469l-308 471h589l-2 -76h-435l265 -395l-272 -393h427v-76h-582z" />
    <glyph glyph-name="minus" unicode="&#x2212;" horiz-adv-x="671" 
d="M602 400v-75h-533v75h533z" />
    <glyph glyph-name="uni2215" unicode="&#x2215;" horiz-adv-x="182" 
d="M293 700h77l-483 -700h-79z" />
    <glyph glyph-name="uni2219" unicode="&#x2219;" horiz-adv-x="401" 
d="M201 418q41 0 70 -29t29 -69t-29 -69.5t-70 -29.5t-70 29t-29 70t29 69.5t70 28.5z" />
    <glyph glyph-name="radical" unicode="&#x221a;" horiz-adv-x="648" 
d="M-11 302l184 62l113 -312l284 774h93l-330 -898h-93l-126 342l-103 -35z" />
    <glyph glyph-name="infinity" unicode="&#x221e;" horiz-adv-x="879" 
d="M235 124q-81 0 -133 53t-52 136q0 81 52.5 133t134.5 52q113 0 202 -129q47 69 95.5 99t110.5 30q80 0 132 -52.5t52 -134.5t-51.5 -134.5t-130.5 -52.5q-61 0 -111 31t-96 99q-90 -130 -205 -130zM242 193q42 0 77.5 27t77.5 91q-39 62 -76 90t-80 28q-48 0 -79 -33
t-31 -85q0 -51 31 -84.5t80 -33.5zM637 193q49 0 80 33t31 85t-31.5 85t-80.5 33q-43 0 -77.5 -26.5t-76.5 -91.5q41 -63 76.5 -90.5t78.5 -27.5z" />
    <glyph glyph-name="integral" unicode="&#x222b;" horiz-adv-x="507" 
d="M-11 -190v72q37 -15 79 -15q47 0 68.5 21t29.5 72l88 633q13 92 59.5 132t126.5 40q46 0 80 -12v-74q-37 15 -79 15q-45 0 -68.5 -23t-31.5 -80l-88 -632q-12 -86 -58 -124.5t-126 -38.5q-49 0 -80 14z" />
    <glyph glyph-name="approxequal" unicode="&#x2248;" horiz-adv-x="627" 
d="M453 377q-43 0 -138 22t-138 22q-66 0 -106 -40v76q39 39 106 39q43 0 138 -21.5t138 -21.5q70 0 106 39v-76q-36 -39 -106 -39zM453 215q-43 0 -138 22t-138 22q-66 0 -106 -40v76q39 39 106 39q43 0 138 -21.5t138 -21.5q70 0 106 39v-76q-36 -39 -106 -39z" />
    <glyph glyph-name="notequal" unicode="&#x2260;" horiz-adv-x="628" 
d="M559 409h-158l-79 -103h237v-75h-294l-96 -126h-82l96 126h-114v75h171l79 103h-250v75h307l84 110h82l-84 -110h101v-75z" />
    <glyph glyph-name="lessequal" unicode="&#x2264;" horiz-adv-x="590" 
d="M510 221l-440 146v91l440 146v-77l-346 -114l346 -115v-77zM70 102v75h440v-75h-440z" />
    <glyph glyph-name="greaterequal" unicode="&#x2265;" horiz-adv-x="590" 
d="M80 221v77l346 115l-346 114v77l440 -146v-91zM520 102h-440v75h440v-75z" />
    <glyph glyph-name="uni2460" unicode="&#x2460;" horiz-adv-x="819" 
d="M409 714q155 0 259.5 -106t104.5 -258t-104.5 -258t-259.5 -106t-259.5 106t-104.5 258t104.5 258t259.5 106zM409 20q141 0 235.5 96t94.5 234t-94.5 234t-235.5 96t-235.5 -96t-94.5 -234t94.5 -234t235.5 -96zM266 485l114 89h79v-447h-70v385l-123 -100v73z" />
    <glyph glyph-name="uni2461" unicode="&#x2461;" horiz-adv-x="819" 
d="M409 -14q-155 0 -259.5 106t-104.5 258t104.5 258t259.5 106t259.5 -106t104.5 -258t-104.5 -258t-259.5 -106zM409 20q141 0 235.5 96t94.5 234t-94.5 234t-235.5 96t-235.5 -96t-94.5 -234t94.5 -234t235.5 -96zM238 139v26q0 53 35 94t137 95q54 29 74 51t20 53
q0 37 -23.5 58t-65.5 21q-89 0 -104 -101l-75 3q20 161 179 161q74 0 119.5 -37.5t45.5 -104.5q0 -47 -29.5 -82.5t-103.5 -74.5q-75 -39 -97.5 -57t-29.5 -41h256v-64h-338z" />
    <glyph glyph-name="uni2462" unicode="&#x2462;" horiz-adv-x="819" 
d="M409 -14q-155 0 -259.5 106t-104.5 258t104.5 258t259.5 106t259.5 -106t104.5 -258t-104.5 -258t-259.5 -106zM409 20q141 0 235.5 96t94.5 234t-94.5 234t-235.5 96t-235.5 -96t-94.5 -234t94.5 -234t235.5 -96zM412 111q-81 0 -127.5 43t-50.5 119l73 3
q5 -53 28.5 -78t74.5 -25q95 0 95 77q0 74 -101 74h-43v57h44q97 0 97 74q0 70 -88 70q-48 0 -72 -22.5t-29 -70.5l-73 5q18 149 176 149q79 0 119 -35t40 -91q0 -48 -26.5 -73.5t-66.5 -31.5q41 -5 69 -32.5t28 -75.5q0 -60 -46 -98t-121 -38z" />
    <glyph glyph-name="uni2463" unicode="&#x2463;" horiz-adv-x="819" 
d="M409 -14q-155 0 -259.5 106t-104.5 258t104.5 258t259.5 106t259.5 -106t104.5 -258t-104.5 -258t-259.5 -106zM409 20q141 0 235.5 96t94.5 234t-94.5 234t-235.5 96t-235.5 -96t-94.5 -234t94.5 -234t235.5 -96zM202 246v53l204 281h96v-276h75v-58h-76v-113h-71v113
h-228zM430 304v211l-151 -211h151z" />
    <glyph glyph-name="uni2464" unicode="&#x2464;" horiz-adv-x="819" 
d="M409 714q155 0 259.5 -106t104.5 -258t-104.5 -258t-259.5 -106t-259.5 106t-104.5 258t104.5 258t259.5 106zM409 20q141 0 235.5 96t94.5 234t-94.5 234t-235.5 96t-235.5 -96t-94.5 -234t94.5 -234t235.5 -96zM431 421q71 0 112.5 -41.5t41.5 -112.5q0 -75 -47 -117.5
t-125 -42.5q-76 0 -123.5 39.5t-56.5 104.5l72 7q4 -40 33 -65.5t74 -25.5t72.5 26.5t27.5 73.5t-27 74t-73 27q-65 0 -104 -54l-64 12l21 242h299v-59h-242l-12 -135q47 47 121 47z" />
    <glyph glyph-name="uni2465" unicode="&#x2465;" horiz-adv-x="819" 
d="M409 714q155 0 259.5 -106t104.5 -258t-104.5 -258t-259.5 -106t-259.5 106t-104.5 258t104.5 258t259.5 106zM409 20q141 0 235.5 96t94.5 234t-94.5 234t-235.5 96t-235.5 -96t-94.5 -234t94.5 -234t235.5 -96zM423 412q71 0 113.5 -41.5t42.5 -108.5q0 -69 -45.5 -111
t-124.5 -42q-93 0 -140 59t-47 169q0 118 51.5 182.5t143.5 64.5q68 0 109.5 -35.5t49.5 -98.5l-68 -10q-17 86 -93 86q-119 0 -126 -179q45 65 134 65zM408 167q45 0 71.5 26.5t26.5 68.5q0 43 -27 69t-73 26q-44 0 -71.5 -26t-27.5 -69q0 -42 28.5 -68.5t72.5 -26.5z" />
    <glyph glyph-name="uni2466" unicode="&#x2466;" horiz-adv-x="819" 
d="M409 714q155 0 259.5 -106t104.5 -258t-104.5 -258t-259.5 -106t-259.5 106t-104.5 258t104.5 258t259.5 106zM409 20q141 0 235.5 96t94.5 234t-94.5 234t-235.5 96t-235.5 -96t-94.5 -234t94.5 -234t235.5 -96zM249 498v59h357l-230 -447h-83l212 388h-256z" />
    <glyph glyph-name="uni2467" unicode="&#x2467;" horiz-adv-x="819" 
d="M409 -14q-155 0 -259.5 106t-104.5 258t104.5 258t259.5 106t259.5 -106t104.5 -258t-104.5 -258t-259.5 -106zM409 20q141 0 235.5 96t94.5 234t-94.5 234t-235.5 96t-235.5 -96t-94.5 -234t94.5 -234t235.5 -96zM411 114q-83 0 -131.5 37t-48.5 95q0 43 28 74.5
t76 39.5q-42 13 -65.5 40.5t-23.5 64.5q0 54 43.5 89t121.5 35q77 0 120 -35t43 -89q0 -37 -23.5 -64.5t-65.5 -40.5q47 -8 75.5 -39.5t28.5 -74.5q0 -58 -48.5 -95t-129.5 -37zM411 389q42 0 65 20t23 54q0 33 -23 52t-65 19q-43 0 -67 -19t-24 -52q0 -34 24 -54t67 -20z
M411 172q48 0 75.5 21.5t27.5 58.5t-27.5 58.5t-75.5 21.5q-49 0 -77 -21t-28 -59t28 -59t77 -21z" />
    <glyph glyph-name="uni2468" unicode="&#x2468;" horiz-adv-x="819" 
d="M409 714q155 0 259.5 -106t104.5 -258t-104.5 -258t-259.5 -106t-259.5 106t-104.5 258t104.5 258t259.5 106zM409 20q141 0 235.5 96t94.5 234t-94.5 234t-235.5 96t-235.5 -96t-94.5 -234t94.5 -234t235.5 -96zM404 586q189 0 189 -239q0 -116 -47 -176t-137 -60
q-71 0 -116 38.5t-55 106.5l69 7q16 -94 104 -94q115 0 116 180q-43 -66 -133 -66q-73 0 -116 41.5t-43 108.5q0 68 45 110.5t124 42.5zM408 339q45 0 72.5 25.5t27.5 68.5q0 42 -28.5 68.5t-73.5 26.5t-71.5 -26.5t-26.5 -68.5q0 -43 27.5 -68.5t72.5 -25.5z" />
    <glyph glyph-name="uni24EA" unicode="&#x24ea;" horiz-adv-x="819" 
d="M409 -14q-155 0 -259.5 106t-104.5 258t104.5 258t259.5 106t259.5 -106t104.5 -258t-104.5 -258t-259.5 -106zM409 20q141 0 235.5 96t94.5 234t-94.5 234t-235.5 96t-235.5 -96t-94.5 -234t94.5 -234t235.5 -96zM410 115q-93 0 -147 63.5t-54 174.5q0 110 54 173.5
t147 63.5q92 0 146 -63.5t54 -173.5t-54 -174t-146 -64zM410 182q58 0 89 41.5t31 120.5v17q0 80 -31 122t-89 42q-59 0 -90 -42t-31 -122v-17q0 -79 31 -120.5t90 -41.5z" />
    <glyph glyph-name="uni24FF" unicode="&#x24ff;" horiz-adv-x="819" 
d="M409 -14q-155 0 -259.5 106t-104.5 258t104.5 258t259.5 106t259.5 -106t104.5 -258t-104.5 -258t-259.5 -106zM410 112q92 0 146 64t54 174t-54 173.5t-146 63.5q-93 0 -147 -63.5t-54 -173.5q0 -111 54 -174.5t147 -63.5zM410 179q-59 0 -90 41.5t-31 120.5v17
q0 80 31 122t90 42q58 0 89 -42t31 -122v-17q0 -79 -31 -120.5t-89 -41.5z" />
    <glyph glyph-name="lozenge" unicode="&#x25ca;" horiz-adv-x="748" 
d="M374 0l-350 350l350 350l350 -350zM374 105l245 245l-245 245l-245 -245z" />
    <glyph glyph-name="uni2713" unicode="&#x2713;" horiz-adv-x="608" 
d="M529 700h96l-379 -714l-242 453h99l144 -281z" />
    <glyph glyph-name="uni2776" unicode="&#x2776;" horiz-adv-x="819" 
d="M409 -14q-155 0 -259.5 106t-104.5 258t104.5 258t259.5 106t259.5 -106t104.5 -258t-104.5 -258t-259.5 -106zM271 419l123 100v-385h70v447h-79l-114 -88v-74z" />
    <glyph glyph-name="uni2777" unicode="&#x2777;" horiz-adv-x="819" 
d="M409 -14q-155 0 -259.5 106t-104.5 258t104.5 258t259.5 106t259.5 -106t104.5 -258t-104.5 -258t-259.5 -106zM238 139h338v64h-256q7 22 29 39t95 56q79 41 109 77.5t30 86.5q0 65 -43 101.5t-119 36.5q-82 0 -128 -42.5t-57 -118.5l75 -3q17 101 108 101
q43 0 66 -20.5t23 -56.5q0 -32 -24 -56.5t-92 -60.5q-90 -47 -122 -86.5t-32 -91.5v-26z" />
    <glyph glyph-name="uni2778" unicode="&#x2778;" horiz-adv-x="819" 
d="M409 -14q-155 0 -259.5 106t-104.5 258t104.5 258t259.5 106t259.5 -106t104.5 -258t-104.5 -258t-259.5 -106zM412 111q76 0 121.5 37.5t45.5 98.5q0 48 -28 75.5t-69 32.5q39 7 64 31.5t25 71.5q0 57 -39 92.5t-118 35.5q-156 0 -174 -149l73 -5q10 93 99 93
q87 0 87 -72t-94 -72h-44v-57h43q102 0 102 -74q0 -77 -95 -77q-52 0 -75.5 25t-28.5 78l-73 -3q5 -76 51.5 -119t126.5 -43z" />
    <glyph glyph-name="uni2779" unicode="&#x2779;" horiz-adv-x="819" 
d="M409 -14q155 0 259.5 106t104.5 258t-104.5 258t-259.5 106t-259.5 -106t-104.5 -258t104.5 -258t259.5 -106zM430 133v113h-227v53l203 281h96v-276h75v-58h-76v-113h-71zM280 304h150v210z" />
    <glyph glyph-name="uni277A" unicode="&#x277a;" horiz-adv-x="819" 
d="M409 -14q-155 0 -259.5 106t-104.5 258t104.5 258t259.5 106t259.5 -106t104.5 -258t-104.5 -258t-259.5 -106zM413 107q78 0 125 42.5t47 117.5q0 71 -41.5 112.5t-112.5 41.5q-74 0 -121 -47l13 135h242v59h-300l-21 -242l64 -12q39 54 104 54q46 0 73 -27t27 -74
t-27.5 -73.5t-72.5 -26.5t-74 25.5t-33 65.5l-72 -7q9 -65 56.5 -104.5t123.5 -39.5z" />
    <glyph glyph-name="uni277B" unicode="&#x277b;" horiz-adv-x="819" 
d="M409 -14q-155 0 -259.5 106t-104.5 258t104.5 258t259.5 106t259.5 -106t104.5 -258t-104.5 -258t-259.5 -106zM416 109q78 0 124 42t46 111q0 67 -42.5 108.5t-113.5 41.5q-89 0 -134 -64q9 178 125 178q77 0 93 -87l68 10q-8 64 -49.5 99.5t-110.5 35.5
q-92 0 -143 -64.5t-51 -182.5q0 -110 47.5 -169t140.5 -59zM415 168q-45 0 -73 26t-28 68q0 43 27.5 68.5t71.5 25.5q45 0 72.5 -26t27.5 -68t-27 -68t-71 -26z" />
    <glyph glyph-name="uni277C" unicode="&#x277c;" horiz-adv-x="819" 
d="M409 -14q-155 0 -259.5 106t-104.5 258t104.5 258t259.5 106t259.5 -106t104.5 -258t-104.5 -258t-259.5 -106zM293 110h83l230 447h-357v-59h254z" />
    <glyph glyph-name="uni277D" unicode="&#x277d;" horiz-adv-x="819" 
d="M409 -14q-155 0 -259.5 106t-104.5 258t104.5 258t259.5 106t259.5 -106t104.5 -258t-104.5 -258t-259.5 -106zM410 114q82 0 130.5 37t48.5 96q0 42 -28.5 73.5t-75.5 39.5q42 13 65.5 40.5t23.5 64.5q0 55 -43 89.5t-121 34.5t-121 -34.5t-43 -89.5q0 -37 23.5 -64.5
t65.5 -40.5q-48 -8 -76 -39.5t-28 -73.5q0 -59 48.5 -96t130.5 -37zM410 389q-43 0 -67 20t-24 54q0 33 24 52t67 19q44 0 67 -19t23 -52q0 -34 -23.5 -54t-66.5 -20zM410 172q-49 0 -76.5 21t-27.5 59t27.5 59t76.5 21t76.5 -21t27.5 -59t-27.5 -59t-76.5 -21z" />
    <glyph glyph-name="uni277E" unicode="&#x277e;" horiz-adv-x="819" 
d="M409 -14q-155 0 -259.5 106t-104.5 258t104.5 258t259.5 106t259.5 -106t104.5 -258t-104.5 -258t-259.5 -106zM409 111q90 0 137 60t47 176q0 239 -189 239q-79 0 -124 -42.5t-45 -110.5q0 -67 43 -108.5t116 -41.5q91 0 133 67q0 -181 -116 -181q-88 0 -104 94l-69 -7
q10 -68 55 -106.5t116 -38.5zM408 339q-45 0 -72.5 25.5t-27.5 68.5q0 42 26.5 68.5t71.5 26.5t73.5 -26.5t28.5 -68.5q0 -43 -27.5 -68.5t-72.5 -25.5z" />
    <glyph glyph-name="uni2B24" unicode="&#x2b24;" horiz-adv-x="793" 
d="M396 0q-145 0 -247.5 102.5t-102.5 247.5t102.5 247.5t247.5 102.5t247.5 -102.5t102.5 -247.5t-102.5 -247.5t-247.5 -102.5z" />
    <glyph glyph-name="uniF8FF" unicode="&#xf8ff;" horiz-adv-x="765" 
d="M389 714q155 0 259.5 -106t104.5 -258t-104.5 -258t-259.5 -106t-259.5 106t-104.5 258t104.5 258t259.5 106zM372 678q-44 -8 -78 -54.5t-52 -119.5h130v174zM406 678v-174h130q-18 73 -52 119.5t-78 54.5zM287 665q-63 -19 -112 -61t-79 -100h112q27 106 79 161z
M682 504q-30 58 -79 100t-112 61q52 -55 79 -161h112zM81 470q-22 -58 -22 -120q0 -57 19 -114h122q-10 51 -10 114q0 60 11 120h-120zM224 350q0 -63 10 -114h138v234h-137q-11 -58 -11 -120zM406 236h138q10 51 10 114q0 62 -11 120h-137v-234zM577 470q11 -60 11 -120
q0 -63 -10 -114h122q19 57 19 114q0 62 -22 120h-120zM93 202q29 -60 79 -103.5t115 -63.5q-55 58 -80 167h-114zM372 202h-131q18 -75 52.5 -123.5t78.5 -56.5v180zM406 22q44 8 78.5 56.5t52.5 123.5h-131v-180zM491 35q65 20 115 63.5t79 103.5h-114q-25 -109 -80 -167z
" />
    <glyph glyph-name="A.circle" horiz-adv-x="682" 
d="M405 700l269 -700h-102l-234 630l-233 -630h-97l268 700h129zM339 304q32 0 55.5 -23.5t23.5 -55.5t-23.5 -55t-55.5 -23t-55 23t-23 55t23 55.5t55 23.5z" />
    <glyph glyph-name="E.circle" horiz-adv-x="572" 
d="M89 0v700h440v-79h-347v-541h347v-80h-440zM343 279q-33 0 -56.5 23.5t-23.5 56.5q0 32 23.5 55.5t56.5 23.5q32 0 55.5 -23.5t23.5 -55.5q0 -33 -23.5 -56.5t-55.5 -23.5z" />
    <glyph glyph-name="F.circle" horiz-adv-x="546" 
d="M89 0v700h440v-79h-347v-621h-93zM351 279q-32 0 -55.5 23.5t-23.5 56.5q0 32 23.5 55.5t55.5 23.5q33 0 56.5 -23.5t23.5 -55.5q0 -33 -23.5 -56.5t-56.5 -23.5z" />
    <glyph glyph-name="H.circle" horiz-adv-x="760" 
d="M90 0v700h96v-700h-96zM574 0v700h96v-700h-96zM377 278q-33 0 -56.5 24t-23.5 57t23.5 56.5t56.5 23.5t57 -23.5t24 -56.5t-24 -57t-57 -24z" />
    <glyph glyph-name="M.salt" horiz-adv-x="918" 
d="M869 0h-92l-78 605l-183 -605h-118l-182 607l-78 -607h-89l90 700h141l184 -600l183 600h133z" />
    <glyph glyph-name="J.ss02" horiz-adv-x="436" 
d="M161 0h-150v79h140q53 0 80 27.5t27 104.5v489h94v-500q0 -104 -46 -152t-145 -48z" />
    <glyph glyph-name="i.loclTRK" horiz-adv-x="243" 
d="M122 598q-31 0 -52 21t-21 52q0 30 21 51t52 21q30 0 51 -21t21 -51q0 -31 -21 -52t-51 -21zM78 525h88v-525h-88v525z" />
    <glyph glyph-name="r.circle" horiz-adv-x="367" 
d="M281 384q-32 0 -54 22t-22 54t22.5 54t53.5 22q32 0 54 -22t22 -54t-22 -54t-54 -22zM78 0v525h87v-525h-87z" />
    <glyph glyph-name="racute.circle" horiz-adv-x="364" 
d="M365 740l-123 -164h-80l87 164h116zM281 384q-32 0 -54 22t-22 54t22.5 54t53.5 22q32 0 54 -22t22 -54t-22 -54t-54 -22zM78 0v525h87v-525h-87z" />
    <glyph glyph-name="rcaron.circle" horiz-adv-x="364" 
d="M260 576h-93l-99 164h80l70 -103l68 103h75zM281 536q32 0 54 -22t22 -54t-22 -54t-54 -22t-54 22t-22 54t22.5 54t53.5 22zM78 0v525h87v-525h-87z" />
    <glyph glyph-name="uni0157.circle" horiz-adv-x="364" 
d="M281 536q32 0 54 -22t22 -54t-22 -54t-54 -22t-54 22t-22 54t22.5 54t53.5 22zM165 525v-525h-87v525h87zM119 -45q29 0 49 -20.5t20 -48.5q0 -42 -39 -61l-52 -98h-58l47 100q-35 18 -35 59q0 28 20 48.5t48 20.5z" />
    <glyph glyph-name="f.ss02" horiz-adv-x="407" 
d="M126 0v454h-111v71h111v34q0 141 153 141h119v-71h-110q-42 0 -58.5 -19t-16.5 -54v-31h183v-71h-183v-454h-87z" />
    <glyph glyph-name="j.ss02" horiz-adv-x="243" 
d="M121 598q-30 0 -51.5 21t-21.5 52q0 30 21.5 51t51.5 21q31 0 52 -21t21 -51q0 -31 -21 -52t-52 -21zM78 -190v715h88v-715h-88z" />
    <glyph glyph-name="uni0237.ss02" horiz-adv-x="243" 
d="M78 -190v715h88v-715h-88z" />
    <glyph glyph-name="r.ss02" horiz-adv-x="389" 
d="M78 0v525h88v-90q17 46 48.5 68t91.5 22h73v-77h-85q-62 0 -95 -29.5t-33 -84.5v-334h-88z" />
    <glyph glyph-name="racute.ss02" horiz-adv-x="389" 
d="M389 740l-123 -164h-80l87 164h116zM78 0v525h88v-90q17 46 48.5 68t91.5 22h73v-77h-85q-62 0 -95 -29.5t-33 -84.5v-334h-88z" />
    <glyph glyph-name="rcaron.ss02" horiz-adv-x="389" 
d="M191 576l-99 164h80l70 -103l68 103h75l-101 -164h-93zM166 435q17 46 48.5 68t91.5 22h73v-77h-85q-62 0 -95 -29.5t-33 -84.5v-334h-88v525h88v-90z" />
    <glyph glyph-name="uni0157.ss02" horiz-adv-x="389" 
d="M306 525h73v-77h-85q-62 0 -95 -29.5t-33 -84.5v-334h-88v525h88v-90q17 46 48.5 68t91.5 22zM126 -45q28 0 48 -20t20 -49q0 -42 -38 -61l-53 -98h-58l47 100q-35 18 -35 59q0 28 20.5 48.5t48.5 20.5z" />
    <glyph glyph-name="t.ss02" horiz-adv-x="405" 
d="M126 453h-110v72h110v120h88v-120h184v-72h-184v-453h-88v453z" />
    <glyph glyph-name="tbar.ss02" horiz-adv-x="414" 
d="M405 453h-183v-63h156v-73h-156v-317h-88v317h-114v73h114v63h-111v72h111v120h88v-120h183v-72z" />
    <glyph glyph-name="tcaron.ss02" horiz-adv-x="405" 
d="M365 811q29 0 49 -20t20 -48q0 -44 -40 -62l-52 -100h-59l49 102q-36 18 -36 60q0 28 20 48t49 20zM214 645v-120h184v-72h-184v-453h-88v453h-110v72h110v120h88z" />
    <glyph glyph-name="uni0163.ss02" horiz-adv-x="405" 
d="M126 453h-110v72h110v120h88v-120h184v-72h-184v-453h-88v453zM139 -204q-43 0 -80 9l12 51q39 -12 82.5 -7t43.5 32q0 20 -20.5 27t-67.5 2l19 49q16 4 46 4q45 0 70 -21.5t25 -54.5q0 -46 -37 -68.5t-93 -22.5z" />
    <glyph glyph-name="uni021B.ss02" horiz-adv-x="405" 
d="M214 525h184v-72h-184v-453h-88v453h-110v72h110v120h88v-120zM166 -45q28 0 48 -20t20 -49q0 -42 -38 -61l-53 -98h-58l47 100q-35 18 -35 59q0 28 20.5 48.5t48.5 20.5z" />
    <glyph glyph-name="y.ss02" horiz-adv-x="542" 
d="M449 525h89l-335 -715h-92l121 251l-220 464h98l170 -374z" />
    <glyph glyph-name="yacute.ss02" horiz-adv-x="542" 
d="M439 740l-123 -164h-80l88 164h115zM449 525h89l-335 -715h-92l121 251l-220 464h98l170 -374z" />
    <glyph glyph-name="ycircumflex.ss02" horiz-adv-x="542" 
d="M279 678l-66 -102h-77l101 164h93l99 -164h-82zM449 525h89l-335 -715h-92l121 251l-220 464h98l170 -374z" />
    <glyph glyph-name="ydieresis.ss02" horiz-adv-x="542" 
d="M194 610q-27 0 -46.5 19.5t-19.5 46.5t19.5 46.5t46.5 19.5t46.5 -19.5t19.5 -46.5t-19.5 -46.5t-46.5 -19.5zM375 610q-27 0 -46 19.5t-19 46.5t19 46.5t46 19.5t46.5 -19.5t19.5 -46.5t-19.5 -46.5t-46.5 -19.5zM449 525h89l-335 -715h-92l121 251l-220 464h98
l170 -374z" />
    <glyph glyph-name="ygrave.ss02" horiz-adv-x="542" 
d="M325 576h-81l-121 164h115zM449 525h89l-335 -715h-92l121 251l-220 464h98l170 -374z" />
    <glyph glyph-name="t_t" horiz-adv-x="772" 
d="M751 453h-184v-277q0 -64 23.5 -88t78.5 -24q38 0 81 10v-73q-51 -11 -97 -11q-88 0 -131 40t-43 132v291h-268v-277q0 -64 23.5 -88t78.5 -24q38 0 82 10v-73q-52 -11 -98 -11q-88 0 -130.5 40t-42.5 132v291h-112v72h112v96l87 41v-137h268v96l88 41v-137h184v-72z" />
    <glyph glyph-name="zero.tf" 
d="M315 -14q-130 0 -198.5 95t-68.5 269t68.5 269t198.5 95t199 -95t69 -269t-69 -269t-199 -95zM315 66q171 0 171 256v56q0 256 -171 256q-170 0 -170 -256v-56q0 -256 170 -256z" />
    <glyph glyph-name="one.tf" 
d="M94 532l206 168h93v-620h183v-80h-480v80h208v517l-210 -172v107z" />
    <glyph glyph-name="two.tf" 
d="M67 0v37q0 79 49 141.5t182 138.5q104 58 140.5 98t36.5 98t-39 89.5t-106 31.5q-78 0 -122 -44.5t-45 -126.5l-98 5q8 117 78 181.5t188 64.5q108 0 172 -53t64 -148q0 -75 -46.5 -131t-170.5 -127q-106 -61 -142 -98.5t-38 -76.5h380v-80h-483z" />
    <glyph glyph-name="three.tf" 
d="M314 -14q-113 0 -180.5 60.5t-74.5 163.5l94 5q13 -154 161 -154q73 0 114.5 34.5t41.5 96.5q0 128 -178 128h-41v73h41q83 0 125 32.5t42 88.5q0 125 -142 125q-69 0 -108 -39t-43 -108l-93 5q10 102 73 159.5t172 57.5q108 0 170.5 -54t62.5 -140q0 -62 -36 -103
t-98 -56q66 -9 104.5 -53t38.5 -112q0 -96 -69.5 -153t-176.5 -57z" />
    <glyph glyph-name="four.tf" 
d="M390 0v228h-346v69l318 403h120v-398h91v-74h-91v-228h-92zM144 302h246v312z" />
    <glyph glyph-name="five.tf" 
d="M338 473q108 0 167 -63.5t59 -176.5q0 -115 -63.5 -181t-177.5 -66q-107 0 -176 59t-82 162l94 9q7 -73 50 -114t111 -41q72 0 111.5 45t39.5 127q0 81 -39.5 124t-111.5 43q-111 0 -160 -90l-81 13l26 377h439v-75h-359l-17 -222q58 70 170 70z" />
    <glyph glyph-name="six.tf" 
d="M342 452q101 0 161.5 -64t60.5 -168q0 -106 -63.5 -170t-172.5 -64q-128 0 -195 89.5t-67 262.5q0 181 70.5 278.5t201.5 97.5q95 0 153 -53.5t66 -147.5l-87 -9q-10 69 -42.5 102t-90.5 33q-81 0 -128.5 -73.5t-51.5 -219.5q59 106 185 106zM323 61q67 0 107 41.5
t40 117.5t-40 117.5t-107 41.5t-107 -41.5t-40 -117.5t40 -117.5t107 -41.5z" />
    <glyph glyph-name="seven.tf" 
d="M58 700h527v-86l-404 -614h-109l419 621h-433v79z" />
    <glyph glyph-name="eight.tf" 
d="M314 -14q-121 0 -191 54t-70 141q0 66 42 116t114 66q-63 20 -100.5 66t-37.5 105q0 78 65 129t178 51q114 0 179.5 -51t65.5 -129q0 -59 -38 -105t-102 -66q73 -16 116 -66t43 -116q0 -87 -71 -141t-193 -54zM314 403q69 0 110.5 34t41.5 89q0 53 -41 84.5t-111 31.5
t-110 -31.5t-40 -84.5q0 -55 41 -89t109 -34zM314 59q78 0 123.5 34.5t45.5 94.5q0 61 -46 98t-123 37t-122 -37t-45 -98q0 -60 45 -94.5t122 -34.5z" />
    <glyph glyph-name="nine.tf" 
d="M306 -14q-101 0 -162 54t-75 153l88 9q26 -142 149 -142q84 0 126.5 69t50.5 222q-20 -46 -72.5 -75t-120.5 -29q-104 0 -168 65.5t-64 166.5q0 102 68 168.5t182 66.5q127 0 193.5 -87t66.5 -257q0 -197 -65.5 -290.5t-196.5 -93.5zM307 320q70 0 113.5 45t43.5 114
t-43.5 114t-113.5 45t-113.5 -45t-43.5 -114t43.5 -114t113.5 -45z" />
    <glyph glyph-name="zero.dnom" horiz-adv-x="481" 
d="M241 -14q-93 0 -147 63.5t-54 174.5q0 110 54 173.5t147 63.5q92 0 146 -63.5t54 -173.5t-54 -174t-146 -64zM241 52q58 0 89 42t31 120v18q0 80 -31 122t-89 42q-59 0 -90 -42t-31 -122v-18q0 -78 31 -120t90 -42z" />
    <glyph glyph-name="one.dnom" horiz-adv-x="288" 
d="M139 447h78v-447h-70v385l-123 -100v74z" />
    <glyph glyph-name="two.dnom" horiz-adv-x="422" 
d="M40 0v26q0 53 35 94t137 95q54 29 74.5 51t20.5 53q0 37 -23.5 58t-66.5 21q-89 0 -104 -101l-75 3q22 161 180 161q73 0 118.5 -38t45.5 -104q0 -47 -29 -82.5t-103 -74.5q-77 -41 -99 -58t-28 -40h255v-64h-338z" />
    <glyph glyph-name="three.dnom" horiz-adv-x="424" 
d="M214 -14q-81 0 -127.5 42.5t-51.5 119.5l74 3q4 -53 27.5 -78.5t75.5 -25.5q43 0 69 19t26 58q0 75 -102 75h-42v56h43q98 0 98 75q0 70 -89 70q-91 0 -100 -93l-74 4q18 150 176 150q79 0 119 -35.5t40 -91.5q0 -48 -26.5 -73t-65.5 -32q41 -4 69 -32t28 -76
q0 -60 -46 -97.5t-121 -37.5z" />
    <glyph glyph-name="four.dnom" horiz-adv-x="425" 
d="M23 113v52l204 282h96v-276h76v-58h-76v-113h-72v113h-228zM251 171v211l-151 -211h151z" />
    <glyph glyph-name="five.dnom" horiz-adv-x="424" 
d="M234 300q70 0 112 -42t42 -112q0 -75 -47 -117.5t-126 -42.5q-76 0 -123 39.5t-56 104.5l71 7q4 -40 33.5 -66t74.5 -26t72.5 27t27.5 74t-27 74t-73 27q-64 0 -105 -54l-63 12l20 242h300v-59h-242l-12 -135q47 47 121 47z" />
    <glyph glyph-name="six.dnom" horiz-adv-x="439" 
d="M242 289q71 0 113.5 -41.5t42.5 -108.5q0 -69 -46 -111t-124 -42q-93 0 -140.5 59t-47.5 169q0 117 51.5 182t143.5 65q68 0 109.5 -35.5t49.5 -98.5l-68 -10q-9 47 -31.5 66.5t-61.5 19.5q-117 0 -126 -180q45 66 135 66zM227 44q45 0 71.5 26.5t26.5 68.5
q0 43 -27.5 68.5t-72.5 25.5q-44 0 -71.5 -25.5t-27.5 -68.5q0 -42 28.5 -68.5t72.5 -26.5z" />
    <glyph glyph-name="seven.dnom" horiz-adv-x="391" 
d="M24 447h356l-230 -447h-83l213 388h-256v59z" />
    <glyph glyph-name="eight.dnom" horiz-adv-x="438" 
d="M220 -14q-83 0 -132 37t-49 95q0 43 28.5 74.5t76.5 39.5q-42 13 -65.5 40.5t-23.5 64.5q0 54 43 89t122 35q77 0 120 -35t43 -89q0 -37 -23.5 -64.5t-65.5 -40.5q48 -8 76.5 -39.5t28.5 -74.5q0 -58 -48.5 -95t-130.5 -37zM220 261q42 0 65 20t23 54t-22.5 52.5
t-65.5 18.5t-67 -19t-24 -52q0 -34 24 -54t67 -20zM220 44q48 0 75.5 21.5t27.5 58.5t-27.5 58.5t-75.5 21.5q-49 0 -77 -21t-28 -59t28 -59t77 -21z" />
    <glyph glyph-name="nine.dnom" horiz-adv-x="440" 
d="M211 461q94 0 141 -61t47 -178q0 -116 -47 -176t-137 -60q-71 0 -116 38.5t-55 106.5l69 7q16 -94 104 -94q115 0 116 180q-43 -66 -133 -66q-73 0 -116 41.5t-43 108.5q0 68 45.5 110.5t124.5 42.5zM214 214q45 0 72.5 25.5t27.5 68.5q0 42 -28.5 68.5t-73.5 26.5
t-71.5 -26.5t-26.5 -68.5q0 -43 27.5 -68.5t72.5 -25.5z" />
    <glyph glyph-name="zero.numr" horiz-adv-x="481" 
d="M241 239q-93 0 -147 63.5t-54 174.5q0 110 54 173.5t147 63.5q92 0 146 -63.5t54 -173.5t-54 -174t-146 -64zM241 306q58 0 89 41.5t31 120.5v17q0 80 -31 122t-89 42q-59 0 -90 -42t-31 -122v-17q0 -79 31 -120.5t90 -41.5z" />
    <glyph glyph-name="one.numr" horiz-adv-x="288" 
d="M140 700h78v-447h-70v385l-123 -100v74z" />
    <glyph glyph-name="two.numr" horiz-adv-x="422" 
d="M40 253v26q0 53 35 94t137 95q54 29 74.5 51t20.5 53q0 37 -23.5 58t-66.5 21q-89 0 -104 -101l-75 3q22 161 180 161q73 0 118.5 -38t45.5 -104q0 -47 -29 -82.5t-103 -74.5q-77 -41 -99 -58t-28 -40h255v-64h-338z" />
    <glyph glyph-name="three.numr" horiz-adv-x="424" 
d="M215 239q-81 0 -127.5 42.5t-51.5 119.5l74 3q4 -53 27.5 -78.5t75.5 -25.5q43 0 69 19t26 58q0 75 -102 75h-42v56h43q98 0 98 75q0 70 -89 70q-47 0 -71.5 -23t-29.5 -70l-73 4q18 150 176 150q79 0 119 -35.5t40 -91.5q0 -48 -26.5 -73t-66.5 -32q41 -4 69 -32t28 -76
q0 -60 -45.5 -97.5t-120.5 -37.5z" />
    <glyph glyph-name="four.numr" horiz-adv-x="425" 
d="M23 366v53l204 281h96v-276h76v-58h-76v-113h-72v113h-228zM251 424v211l-151 -211h151z" />
    <glyph glyph-name="five.numr" horiz-adv-x="424" 
d="M234 553q70 0 112 -42t42 -112q0 -75 -47 -117.5t-126 -42.5q-76 0 -123 39.5t-56 104.5l71 7q4 -40 33 -65.5t75 -25.5q45 0 72.5 26.5t27.5 73.5t-27 74t-73 27q-64 0 -105 -54l-63 12l20 242h300v-59h-242l-12 -135q47 47 121 47z" />
    <glyph glyph-name="six.numr" horiz-adv-x="439" 
d="M242 542q71 0 113.5 -41.5t42.5 -108.5q0 -69 -46 -111t-124 -42q-93 0 -140.5 59t-47.5 169q0 117 51.5 182t143.5 65q68 0 109.5 -35.5t49.5 -98.5l-68 -10q-9 47 -31.5 66.5t-61.5 19.5q-117 0 -126 -180q45 66 135 66zM227 297q45 0 71.5 26.5t26.5 68.5
q0 43 -27.5 69t-72.5 26q-44 0 -71.5 -26t-27.5 -69q0 -42 28.5 -68.5t72.5 -26.5z" />
    <glyph glyph-name="seven.numr" horiz-adv-x="391" 
d="M24 700h356l-230 -447h-83l213 388h-256v59z" />
    <glyph glyph-name="eight.numr" horiz-adv-x="438" 
d="M220 239q-83 0 -132 37t-49 95q0 43 28.5 74.5t76.5 39.5q-42 13 -65.5 40.5t-23.5 64.5q0 54 43 89t122 35q77 0 120 -35t43 -89q0 -37 -23.5 -64.5t-65.5 -40.5q48 -8 76.5 -39.5t28.5 -74.5q0 -58 -48.5 -95t-130.5 -37zM220 514q42 0 65 20t23 54t-22.5 52.5
t-65.5 18.5t-67 -19t-24 -52q0 -34 24 -54t67 -20zM220 297q48 0 75.5 21.5t27.5 58.5t-27.5 58.5t-75.5 21.5q-49 0 -77 -21t-28 -59t28 -59t77 -21z" />
    <glyph glyph-name="nine.numr" horiz-adv-x="440" 
d="M211 714q94 0 141 -61t47 -178q0 -116 -47 -176t-137 -60q-71 0 -116 38.5t-55 106.5l69 7q16 -94 104 -94q115 0 116 180q-43 -66 -133 -66q-73 0 -116 41.5t-43 108.5q0 68 45.5 110.5t124.5 42.5zM214 467q45 0 72.5 25.5t27.5 68.5q0 42 -28.5 68.5t-73.5 26.5
t-71.5 -26.5t-26.5 -68.5q0 -43 27.5 -68.5t72.5 -25.5z" />
    <glyph glyph-name="zero.sc" horiz-adv-x="595" 
d="M299 -15q-115 0 -184 77.5t-69 211.5q0 133 69 211t184 78q113 0 181.5 -78t68.5 -211q0 -134 -68 -211.5t-182 -77.5zM299 58q70 0 113 53.5t43 146.5v32q0 93 -43 146.5t-113 53.5q-72 0 -115.5 -53t-43.5 -147v-32q0 -94 43.5 -147t115.5 -53z" />
    <glyph glyph-name="one.sc" horiz-adv-x="369" 
d="M28 452l190 95h70v-547h-88v455l-172 -91v88z" />
    <glyph glyph-name="two.sc" horiz-adv-x="530" 
d="M247 158q-85 -42 -102 -86h330v-72h-428v25q0 61 35.5 107t137.5 98l62 32q57 29 83.5 59t26.5 70q0 44 -30 70.5t-89 26.5q-63 0 -98 -30.5t-37 -89.5l-93 5q12 90 69.5 139.5t158.5 49.5q99 0 154 -46.5t55 -123.5q0 -65 -40 -110t-126 -89z" />
    <glyph glyph-name="three.sc" horiz-adv-x="528" 
d="M266 -16q-94 0 -152 44t-69 122l89 9q16 -103 132 -103q123 0 123 93q0 94 -138 94h-48v70h46q135 0 135 88q0 43 -30.5 65.5t-85.5 22.5q-119 0 -133 -103l-87 4q9 79 68 125.5t154 46.5q93 0 147 -43.5t54 -112.5q0 -105 -127 -125q65 -8 99.5 -41.5t34.5 -90.5
q0 -75 -57.5 -120t-154.5 -45z" />
    <glyph glyph-name="four.sc" horiz-adv-x="551" 
d="M25 141v65l293 341h118v-334h79v-72h-79v-141h-88v141h-323zM348 213v262l-222 -262h222z" />
    <glyph glyph-name="five.sc" horiz-adv-x="531" 
d="M285 371q92 0 147.5 -50.5t55.5 -139.5q0 -92 -59 -143.5t-163 -51.5q-95 0 -151 44t-71 122l82 16q20 -113 139 -113q64 0 98.5 33.5t34.5 92.5q0 58 -33 90t-97 32q-95 0 -139 -70l-73 10l24 304h382v-72h-309l-16 -161q51 57 148 57z" />
    <glyph glyph-name="six.sc" horiz-adv-x="556" 
d="M288 -14q-120 0 -180 73.5t-60 204.5q0 142 65.5 220.5t181.5 78.5q83 0 137.5 -41t71.5 -115l-81 -12q-32 100 -128 100q-75 0 -118.5 -56t-46.5 -171q18 42 64 69.5t111 27.5q90 0 145.5 -52t55.5 -137t-57 -137.5t-161 -52.5zM283 56q64 0 100 34t36 87t-36 87
t-100 34t-99.5 -33.5t-35.5 -87.5t35.5 -87.5t99.5 -33.5z" />
    <glyph glyph-name="seven.sc" horiz-adv-x="500" 
d="M25 547h467l-309 -547h-97l280 475h-341v72z" />
    <glyph glyph-name="eight.sc" horiz-adv-x="551" 
d="M275 -15q-112 0 -170 43t-58 114q0 55 36 91.5t99 50.5q-55 15 -87.5 50t-32.5 82q0 64 57 105t156 41t155.5 -41t56.5 -105q0 -47 -32 -82t-87 -50q63 -14 99 -50.5t36 -91.5q0 -71 -58 -114t-170 -43zM275 317q57 0 90 27t33 67q0 38 -33 62t-90 24q-58 0 -90.5 -24
t-32.5 -62q0 -40 33 -67t90 -27zM275 50q61 0 99 27.5t38 71.5q0 45 -38 73.5t-99 28.5t-99 -28.5t-38 -73.5q0 -44 38 -71.5t99 -27.5z" />
    <glyph glyph-name="nine.sc" horiz-adv-x="546" 
d="M264 -15q-85 0 -140.5 42.5t-67.5 115.5l85 12q16 -55 44.5 -77t80.5 -22q75 0 112.5 51t40.5 167q-21 -37 -64.5 -62.5t-105.5 -25.5q-92 0 -146.5 52.5t-54.5 136.5q0 81 57.5 134t159.5 53q232 0 232 -276q0 -301 -233 -301zM266 252q60 0 97 33.5t37 87.5t-37 87.5
t-97 33.5q-59 0 -96 -33.5t-37 -87.5t37 -87.5t96 -33.5z" />
    <glyph glyph-name="colon.case" horiz-adv-x="287" 
d="M143 460q-32 0 -55 23t-23 55t23 55t55 23q33 0 56 -23t23 -55t-23 -55t-56 -23zM143 63q-32 0 -55 23t-23 55q0 33 23 56t55 23q33 0 56 -23t23 -56q0 -32 -23 -55t-56 -23z" />
    <glyph glyph-name="exclamdown.case" horiz-adv-x="278" 
d="M141 714q32 0 54.5 -23t22.5 -55t-22.5 -54.5t-54.5 -22.5t-55 22.5t-23 54.5t23 55t55 23zM164 496q20 -128 20 -199v-297h-92v297q0 71 20 199h52z" />
    <glyph glyph-name="questiondown.case" horiz-adv-x="521" 
d="M275 559q-32 0 -54.5 22.5t-22.5 54.5t22.5 55t54.5 23t55 -23t23 -55t-23 -54.5t-55 -22.5zM403 190l88 -8q-10 -90 -72 -143t-162 -53q-99 0 -160 51.5t-61 138.5q0 78 52 126t144 59q0 67 17 135h50q16 -73 16 -139v-55h-17q-85 0 -129 -32.5t-44 -91.5
q0 -54 35 -85.5t97 -31.5q65 0 102.5 34.5t43.5 94.5z" />
    <glyph glyph-name="periodcentered.case" horiz-adv-x="289" 
d="M145 279q-33 0 -56 23t-23 55t23 55t56 23q32 0 55 -23t23 -55t-23 -55t-55 -23z" />
    <glyph glyph-name="bullet.case" horiz-adv-x="393" 
d="M196 221q-59 0 -101.5 42.5t-42.5 102.5q0 59 42.5 102t101.5 43q60 0 102.5 -43t42.5 -102q0 -60 -42.5 -102.5t-102.5 -42.5z" />
    <glyph glyph-name="slash.case" horiz-adv-x="415" 
d="M31 0l257 700h94l-257 -700h-94z" />
    <glyph glyph-name="backslash.case" horiz-adv-x="415" 
d="M383 0h-94l-257 700h94z" />
    <glyph glyph-name="asterisk.ss2" horiz-adv-x="482" 
d="M440 618l-172 -56l105 -144l-24 -19l-108 149l-108 -149l-24 19l105 144l-172 56l10 29l174 -57v184h30v-184l174 57z" />
    <glyph glyph-name="slash.case.ss2" horiz-adv-x="353" 
d="M33 0l257 700h30l-257 -700h-30z" />
    <glyph glyph-name="backslash.case.ss2" horiz-adv-x="353" 
d="M321 0h-30l-257 700h30z" />
    <glyph glyph-name="numbersign.ss2" horiz-adv-x="736" 
d="M699 472h-124l-73 -200h130l-7 -20h-130l-93 -252h-30l93 252h-250l-93 -252h-30l93 252h-154l8 20h153l73 200h-160l8 20h160l76 208h30l-76 -208h250l76 208h30l-76 -208h123zM472 272l73 200h-250l-73 -200h250z" />
    <glyph glyph-name="slash.ss2" horiz-adv-x="355" 
d="M297 700h30l-327 -890h-30z" />
    <glyph glyph-name="backslash.ss2" horiz-adv-x="355" 
d="M58 700l327 -890h-30l-327 890h30z" />
    <glyph glyph-name="period.tab" 
d="M315 -14q-32 0 -55 23t-23 55q0 33 23 55.5t55 22.5t55 -22.5t23 -55.5q0 -32 -23 -55t-55 -23z" />
    <glyph glyph-name="comma.tab" 
d="M393 70q0 -24 -13 -44t-34 -29l-73 -147h-58l57 154q-35 23 -35 66q0 32 23 55t55 23t55 -23t23 -55z" />
    <glyph glyph-name="colon.tab" 
d="M315 383q-32 0 -55 23t-23 55t23 55t55 23t55 -23t23 -55t-23 -55t-55 -23zM315 -14q-32 0 -55 23t-23 55q0 33 23 55.5t55 22.5t55 -22.5t23 -55.5q0 -32 -23 -55t-55 -23z" />
    <glyph glyph-name="semicolon.tab" 
d="M317 383q-32 0 -55 23t-23 55t23 55t55 23t55 -23t23 -55t-23 -55t-55 -23zM317 148q32 0 55 -23t23 -55q0 -24 -13 -44t-34 -29l-74 -147h-57l57 154q-35 23 -35 66q0 32 23 55t55 23z" />
    <glyph glyph-name="parenleft.case" horiz-adv-x="305" 
d="M273 764q-60 -105 -93.5 -202t-33.5 -222t33.5 -222.5t93.5 -203.5h-71q-154 199 -154 426t154 424h71z" />
    <glyph glyph-name="parenright.case" horiz-adv-x="305" 
d="M32 764h71q154 -197 154 -424t-154 -426h-71q60 106 93.5 203.5t33.5 222.5t-33.5 222t-93.5 202z" />
    <glyph glyph-name="braceleft.case" horiz-adv-x="353" 
d="M324 -70q-201 0 -201 187v96q0 60 -24 79.5t-70 19.5v70q46 0 70 19.5t24 79.5v97q0 186 201 186v-60q-60 0 -88.5 -28.5t-28.5 -88.5v-108q0 -66 -16.5 -94.5t-59.5 -37.5q43 -9 59.5 -37.5t16.5 -94.5v-108q0 -60 28.5 -88.5t88.5 -28.5v-60z" />
    <glyph glyph-name="braceright.case" horiz-adv-x="353" 
d="M29 -70v60q60 0 88.5 28.5t28.5 88.5v108q0 66 17 94.5t60 37.5q-43 9 -60 37.5t-17 94.5v108q0 60 -28.5 88.5t-88.5 28.5v60q201 0 201 -186v-97q0 -60 24 -79.5t70 -19.5v-70q-46 0 -70 -19.5t-24 -79.5v-96q0 -187 -201 -187z" />
    <glyph glyph-name="bracketleft.case" horiz-adv-x="385" 
d="M92 764h264v-75h-173v-684h173v-75h-264v834z" />
    <glyph glyph-name="bracketright.case" horiz-adv-x="385" 
d="M293 764v-834h-264v75h173v684h-173v75h264z" />
    <glyph glyph-name="parenleft.ss2" horiz-adv-x="232" 
d="M207 700q-30 -53 -48.5 -90.5t-39.5 -92.5t-31.5 -115t-10.5 -126q0 -87 21.5 -170.5t44.5 -133.5t64 -122h-20q-140 203 -140 426t140 424h20z" />
    <glyph glyph-name="parenright.ss2" horiz-adv-x="232" 
d="M25 700h20q140 -201 140 -424t-140 -426h-20q41 72 64 122t44.5 133.5t21.5 170.5q0 66 -10.5 126t-31.5 115t-39.5 92.5t-48.5 90.5z" />
    <glyph glyph-name="braceleft.ss2" horiz-adv-x="319" 
d="M22 298q94 0 94 118v101q0 92 43.5 137.5t146.5 45.5v-24q-89 0 -124.5 -36.5t-35.5 -112.5v-111q0 -116 -80 -133q80 -17 80 -133v-111q0 -76 35.5 -112.5t124.5 -36.5v-24q-103 0 -146.5 45.5t-43.5 137.5v101q0 118 -94 118v30z" />
    <glyph glyph-name="braceright.ss2" horiz-adv-x="319" 
d="M297 298v-30q-94 0 -94 -118v-101q0 -92 -43.5 -137.5t-146.5 -45.5v24q89 0 124.5 36.5t35.5 112.5v111q0 116 80 133q-80 17 -80 133v111q0 76 -35.5 112.5t-124.5 36.5v24q103 0 146.5 -45.5t43.5 -137.5v-101q0 -118 94 -118z" />
    <glyph glyph-name="bracketleft.ss2" horiz-adv-x="281" 
d="M87 700h180v-20h-150v-794h150v-20h-180v834z" />
    <glyph glyph-name="bracketright.ss2" horiz-adv-x="281" 
d="M194 700v-834h-180v20h150v794h-150v20h180z" />
    <glyph glyph-name="parenleft.case.ss2" horiz-adv-x="240" 
d="M209 764q-30 -53 -48.5 -90.5t-39.5 -92.5t-31.5 -115t-10.5 -126q0 -87 21.5 -170.5t44.5 -133.5t64 -122h-20q-140 203 -140 426t140 424h20z" />
    <glyph glyph-name="parenright.case.ss2" horiz-adv-x="240" 
d="M30 764h20q140 -201 140 -424t-140 -426h-20q41 72 64 122t44.5 133.5t21.5 170.5q0 66 -10.5 126t-31.5 115t-39.5 92.5t-48.5 90.5z" />
    <glyph glyph-name="braceleft.case.ss2" horiz-adv-x="324" 
d="M26 362q94 0 94 118v101q0 92 43.5 137.5t146.5 45.5v-24q-89 0 -124.5 -36.5t-35.5 -112.5v-111q0 -116 -80 -133q80 -17 80 -133v-111q0 -76 35.5 -112.5t124.5 -36.5v-24q-103 0 -146.5 45.5t-43.5 137.5v101q0 118 -94 118v30z" />
    <glyph glyph-name="braceright.case.ss2" horiz-adv-x="324" 
d="M298 362v-30q-94 0 -94 -118v-101q0 -92 -43.5 -137.5t-146.5 -45.5v24q89 0 124.5 36.5t35.5 112.5v111q0 116 80 133q-80 17 -80 133v111q0 76 -35.5 112.5t-124.5 36.5v24q103 0 146.5 -45.5t43.5 -137.5v-101q0 -118 94 -118z" />
    <glyph glyph-name="bracketleft.case.ss2" horiz-adv-x="287" 
d="M92 764h180v-20h-150v-794h150v-20h-180v834z" />
    <glyph glyph-name="bracketright.case.ss2" horiz-adv-x="287" 
d="M195 764v-834h-180v20h150v794h-150v20h180z" />
    <glyph glyph-name="hyphen.case" horiz-adv-x="480" 
d="M69 324v80h342v-80h-342z" />
    <glyph glyph-name="endash.case" horiz-adv-x="737" 
d="M69 324v80h599v-80h-599z" />
    <glyph glyph-name="emdash.case" horiz-adv-x="967" 
d="M69 324v80h829v-80h-829z" />
    <glyph glyph-name="hyphen.ss2" horiz-adv-x="470" 
d="M64 295v20h342v-20h-342z" />
    <glyph glyph-name="endash.ss2" horiz-adv-x="727" 
d="M64 295v20h599v-20h-599z" />
    <glyph glyph-name="emdash.ss2" horiz-adv-x="957" 
d="M64 295v20h829v-20h-829z" />
    <glyph glyph-name="hyphen.case.ss2" horiz-adv-x="475" 
d="M67 355v20h342v-20h-342z" />
    <glyph glyph-name="endash.case.ss2" horiz-adv-x="732" 
d="M67 355v20h599v-20h-599z" />
    <glyph glyph-name="emdash.case.ss2" horiz-adv-x="962" 
d="M67 355v20h829v-20h-829z" />
    <glyph glyph-name="underscore.ss2" horiz-adv-x="605" 
d="M3 -187v20h599v-20h-599z" />
    <glyph glyph-name="guillemotleft.case" horiz-adv-x="585" 
d="M330 545l-190 -193l190 -193h-105l-189 193l189 193h105zM531 545l-190 -193l190 -193h-105l-189 193l189 193h105z" />
    <glyph glyph-name="guillemotright.case" horiz-adv-x="585" 
d="M158 545l189 -193l-189 -193h-104l190 193l-190 193h104zM359 545l189 -193l-189 -193h-104l190 193l-190 193h104z" />
    <glyph glyph-name="guilsinglleft.case" horiz-adv-x="384" 
d="M330 545l-190 -193l190 -193h-105l-189 193l189 193h105z" />
    <glyph glyph-name="guilsinglright.case" horiz-adv-x="384" 
d="M158 545l189 -193l-189 -193h-104l190 193l-190 193h104z" />
    <glyph glyph-name="guillemotleft.case.ss2" horiz-adv-x="508" 
d="M284 545l-211 -211l211 -211h-34l-209 211l209 211h34zM454 545l-211 -211l211 -211h-34l-209 211l209 211h34z" />
    <glyph glyph-name="guillemotright.case.ss2" horiz-adv-x="508" 
d="M88 545l209 -211l-209 -211h-34l211 211l-211 211h34zM258 545l209 -211l-209 -211h-34l211 211l-211 211h34z" />
    <glyph glyph-name="guilsinglleft.case.ss2" horiz-adv-x="338" 
d="M284 545l-211 -211l211 -211h-34l-209 211l209 211h34z" />
    <glyph glyph-name="guilsinglright.case.ss2" horiz-adv-x="338" 
d="M88 545l209 -211l-209 -211h-34l211 211l-211 211h34z" />
    <glyph glyph-name="guillemotleft.ss2" horiz-adv-x="499" 
d="M278 472l-211 -211l211 -211h-34l-209 211l209 211h34zM448 472l-211 -211l211 -211h-34l-209 211l209 211h34z" />
    <glyph glyph-name="guillemotright.ss2" horiz-adv-x="499" 
d="M84 472l209 -211l-209 -211h-34l211 211l-211 211h34zM254 472l209 -211l-209 -211h-34l211 211l-211 211h34z" />
    <glyph glyph-name="guilsinglleft.ss2" horiz-adv-x="329" 
d="M278 472l-211 -211l211 -211h-34l-209 211l209 211h34z" />
    <glyph glyph-name="guilsinglright.ss2" horiz-adv-x="329" 
d="M84 472l209 -211l-209 -211h-34l211 211l-211 211h34z" />
    <glyph glyph-name="space.tab" 
 />
    <glyph glyph-name="cent.tf" 
d="M562 211q-16 -87 -65.5 -137t-128.5 -60v-72h-81v73q-100 13 -155 86t-55 188t55.5 187.5t154.5 85.5v80h80v-79q78 -9 128 -55.5t66 -129.5l-80 -12q-13 59 -51 92.5t-99 33.5q-77 0 -120.5 -52.5t-43.5 -150.5t43 -151t121 -53q62 0 101.5 34.5t49.5 102.5z" />
    <glyph glyph-name="dollar.tf" 
d="M532 208q0 -78 -46.5 -123.5t-125.5 -55.5v-87h-82v86q-85 10 -132 63.5t-50 143.5l83 9q5 -76 38.5 -112t99.5 -36q60 0 94 27.5t34 77.5q0 77 -91 109l-92 31q-75 26 -115.5 64.5t-40.5 105.5q0 66 43.5 108t119.5 51v90h81v-89q149 -20 173 -188l-78 -8
q-17 129 -139 129q-53 0 -83 -23t-30 -65q0 -35 22.5 -57t77.5 -42l89 -32q77 -27 113.5 -69.5t36.5 -107.5z" />
    <glyph glyph-name="Euro.tf" 
d="M402 714q111 0 188 -83l-25 -76q-76 80 -160 80q-76 0 -126.5 -50t-66.5 -143h310l-18 -68h-300v-24q0 -18 1 -26h286l-18 -67h-262q17 -95 68 -143t129 -48q72 0 143 42v-87q-65 -35 -144 -35q-115 0 -189.5 70.5t-93.5 200.5h-88l19 67h62v26v24h-78l19 68h66
q21 127 95.5 199.5t182.5 72.5z" />
    <glyph glyph-name="florin.tf" 
d="M44 -114q23 -5 48 -5q52 0 76 21t32 73l78 479h-114v71h126l5 29q25 160 192 160q49 0 92 -10v-76q-33 15 -80 15q-52 0 -77 -21t-32 -72l-4 -25h180v-71h-191l-81 -489q-14 -85 -61.5 -120t-129.5 -35q-26 0 -59 5v71z" />
    <glyph glyph-name="sterling.tf" 
d="M541 117l31 -70q-75 -61 -151 -61q-40 0 -100.5 20.5t-93.5 20.5q-54 0 -110 -41l-56 78q114 97 114 231v14h-115v69h103q-2 8 -13.5 41.5t-16 56t-4.5 48.5q0 85 58 137.5t155 52.5q206 0 227 -233l-86 -9q-8 81 -38.5 121.5t-101.5 40.5q-66 0 -97 -33.5t-31 -87.5
q0 -23 5 -44.5t15 -50t13 -40.5h145v-69h-132v-15q0 -111 -87 -210q37 22 78 22q34 0 86 -20t83 -20q56 0 120 51z" />
    <glyph glyph-name="yen.tf" 
d="M609 700l-159 -256h128v-67h-169l-32 -52h201v-67h-217v-258h-90v258h-218v67h201l-32 52h-169v67h128l-159 256h104l193 -329l192 329h98z" />
    <glyph glyph-name="plus.tf" 
d="M273 624h84v-225h220v-75h-220v-225h-84v225h-220v75h220v225z" />
    <glyph glyph-name="minus.tf" 
d="M582 400v-75h-533v75h533z" />
    <glyph glyph-name="multiply.tf" 
d="M155 142l-56 56l160 161l-160 159l55 56l161 -160l159 160l56 -56l-159 -160l159 -160l-55 -56l-160 160z" />
    <glyph glyph-name="divide.tf" 
d="M314 508q-35 0 -59.5 24t-24.5 59t24.5 59t59.5 24q34 0 58.5 -24t24.5 -59t-24 -59t-59 -24zM581 400v-75h-533v75h533zM314 94q-35 0 -59.5 24t-24.5 59t24.5 59.5t59.5 24.5t59 -24.5t24 -59.5t-24.5 -59t-58.5 -24z" />
    <glyph glyph-name="equal.tf" 
d="M70 409v75h490v-75h-490zM70 231v75h490v-75h-490z" />
    <glyph glyph-name="notequal.tf" 
d="M560 409h-158l-79 -103h237v-75h-294l-96 -126h-82l96 126h-114v75h171l79 103h-250v75h307l84 110h82l-84 -110h101v-75z" />
    <glyph glyph-name="greater.tf" 
d="M111 622l444 -218v-90l-444 -218v83l367 180l-367 180v83z" />
    <glyph glyph-name="less.tf" 
d="M519 622v-83l-367 -180l367 -180v-83l-444 219v89z" />
    <glyph glyph-name="greaterequal.tf" 
d="M100 221v77l347 115l-347 114v77l440 -146v-91zM540 102h-440v75h440v-75z" />
    <glyph glyph-name="lessequal.tf" 
d="M530 221l-440 146v91l440 146v-77l-346 -114l346 -115v-77zM90 102v75h440v-75h-440z" />
    <glyph glyph-name="plusminus.tf" 
d="M273 682h84v-203h220v-75h-220v-203h-84v203h-220v75h220v203zM581 151v-75h-531v75h531z" />
    <glyph glyph-name="approxequal.tf" 
d="M454 377q-43 0 -138 22t-138 22q-66 0 -106 -40v76q39 39 106 39q43 0 138 -21.5t138 -21.5q70 0 106 39v-76q-36 -39 -106 -39zM454 215q-43 0 -138 22t-138 22q-66 0 -106 -40v76q39 39 106 39q43 0 138 -21.5t138 -21.5q70 0 106 39v-76q-36 -39 -106 -39z" />
    <glyph glyph-name="percent.tf" 
d="M315 428q-61 0 -103.5 41.5t-42.5 100.5q0 60 42.5 102t103.5 42q62 0 104 -42t42 -102q0 -57 -46 -99.5t-100 -42.5zM314 489q34 0 57.5 24t23.5 57q0 34 -23.5 57t-57.5 23q-33 0 -56.5 -23t-23.5 -57q0 -33 23.5 -57t56.5 -24zM49 325v56h531v-56h-531zM315 -14
q-61 0 -103.5 41.5t-42.5 100.5q0 60 42.5 102.5t103.5 42.5q62 0 104 -42.5t42 -102.5q0 -59 -42 -100.5t-104 -41.5zM314 48q34 0 57.5 23.5t23.5 56.5q0 34 -23.5 57.5t-57.5 23.5q-33 0 -56.5 -23.5t-23.5 -57.5q0 -33 23.5 -56.5t56.5 -23.5z" />
    <glyph glyph-name="perthousand.tf" 
d="M305 428q-61 0 -103.5 41.5t-42.5 100.5q0 60 42.5 102t103.5 42t103.5 -42t42.5 -102q0 -57 -46 -99.5t-100 -42.5zM304 489q34 0 57.5 24t23.5 57q0 34 -23.5 57t-57.5 23q-33 0 -57 -23.5t-24 -56.5t24 -57t57 -24zM39 325v56h531v-56h-531zM153 -14
q-61 0 -103.5 41.5t-42.5 100.5q0 60 42.5 102.5t103.5 42.5q62 0 104 -42.5t42 -102.5q0 -59 -42 -100.5t-104 -41.5zM474 -14q-61 0 -103.5 41.5t-42.5 100.5q0 60 42.5 102.5t103.5 42.5q62 0 104 -42.5t42 -102.5q0 -59 -42 -100.5t-104 -41.5zM152 48q34 0 57.5 23.5
t23.5 56.5q0 34 -23.5 57.5t-57.5 23.5q-33 0 -56.5 -23.5t-23.5 -57.5q0 -33 23.5 -56.5t56.5 -23.5zM473 48q34 0 57.5 23.5t23.5 56.5q0 34 -23.5 57.5t-57.5 23.5q-33 0 -56.5 -23.5t-23.5 -57.5q0 -33 23.5 -56.5t56.5 -23.5z" />
    <glyph glyph-name="arrowup.salt2" horiz-adv-x="793" 
d="M396 0q-145 0 -247.5 102.5t-102.5 247.5t102.5 247.5t247.5 102.5t247.5 -102.5t102.5 -247.5t-102.5 -247.5t-247.5 -102.5zM231 437h115v-317h100v317h112l-162 163z" />
    <glyph glyph-name="uni2197.salt2" horiz-adv-x="793" 
d="M396 0q-145 0 -247.5 102.5t-102.5 247.5t102.5 247.5t247.5 102.5t247.5 -102.5t102.5 -247.5t-102.5 -247.5t-247.5 -102.5zM335 521l81 -80l-223 -224l71 -71l224 223l79 -80v231z" />
    <glyph glyph-name="arrowright.salt2" horiz-adv-x="793" 
d="M396 0q-145 0 -247.5 102.5t-102.5 247.5t102.5 247.5t247.5 102.5t247.5 -102.5t102.5 -247.5t-102.5 -247.5t-247.5 -102.5zM479 508v-115h-317v-100h317v-112l163 163z" />
    <glyph glyph-name="uni2198.salt2" horiz-adv-x="793" 
d="M396 0q-145 0 -247.5 102.5t-102.5 247.5t102.5 247.5t247.5 102.5t247.5 -102.5t102.5 -247.5t-102.5 -247.5t-247.5 -102.5zM572 406l-81 -81l-223 223l-71 -71l224 -224l-80 -79h231v232z" />
    <glyph glyph-name="arrowdown.salt2" horiz-adv-x="793" 
d="M396 0q-145 0 -247.5 102.5t-102.5 247.5t102.5 247.5t247.5 102.5t247.5 -102.5t102.5 -247.5t-102.5 -247.5t-247.5 -102.5zM551 260h-115v316h-101v-316h-112l163 -163z" />
    <glyph glyph-name="uni2199.salt2" horiz-adv-x="793" 
d="M396 0q-145 0 -247.5 102.5t-102.5 247.5t102.5 247.5t247.5 102.5t247.5 -102.5t102.5 -247.5t-102.5 -247.5t-247.5 -102.5zM449 167l-82 81l224 224l-71 70l-224 -224l-79 80v-230z" />
    <glyph glyph-name="arrowleft.salt2" horiz-adv-x="793" 
d="M396 0q-145 0 -247.5 102.5t-102.5 247.5t102.5 247.5t247.5 102.5t247.5 -102.5t102.5 -247.5t-102.5 -247.5t-247.5 -102.5zM303 189v114h317v101h-317v112l-162 -162z" />
    <glyph glyph-name="uni2196.salt2" horiz-adv-x="793" 
d="M396 0q-145 0 -247.5 102.5t-102.5 247.5t102.5 247.5t247.5 102.5t247.5 -102.5t102.5 -247.5t-102.5 -247.5t-247.5 -102.5zM210 293l81 81l223 -224l71 71l-224 223l80 80h-230z" />
    <glyph glyph-name="arrowboth.salt2" horiz-adv-x="793" 
d="M396 0q-145 0 -247.5 102.5t-102.5 247.5t102.5 247.5t247.5 102.5t247.5 -102.5t102.5 -247.5t-102.5 -247.5t-247.5 -102.5zM130 349l162 -162v112h209v-112l164 162l-164 164v-114h-209v114z" />
    <glyph glyph-name="arrowupdn.salt2" horiz-adv-x="793" 
d="M396 0q-145 0 -247.5 102.5t-102.5 247.5t102.5 247.5t247.5 102.5t247.5 -102.5t102.5 -247.5t-102.5 -247.5t-247.5 -102.5zM396 618l-163 -163h113v-209h-113l163 -162l165 162h-115v209h115z" />
    <glyph glyph-name="uni21F5.salt2" horiz-adv-x="793" 
d="M396 0q-145 0 -247.5 102.5t-102.5 247.5t102.5 247.5t247.5 102.5t247.5 -102.5t102.5 -247.5t-102.5 -247.5t-247.5 -102.5zM375 440h102v-318h100v318h99l-150 149zM415 259h-102v317h-99v-317h-99l149 -150z" />
    <glyph glyph-name="arrowup.salt4" horiz-adv-x="793" 
d="M396 0q-145 0 -247.5 102.5t-102.5 247.5t102.5 247.5t247.5 102.5t247.5 -102.5t102.5 -247.5t-102.5 -247.5t-247.5 -102.5zM396 24q136 0 231 95t95 231t-95 231t-231 95t-231 -95t-95 -231t95 -231t231 -95zM231 437h115v-317h100v317h112l-162 163z" />
    <glyph glyph-name="uni2197.salt4" horiz-adv-x="793" 
d="M396 0q-145 0 -247.5 102.5t-102.5 247.5t102.5 247.5t247.5 102.5t247.5 -102.5t102.5 -247.5t-102.5 -247.5t-247.5 -102.5zM396 24q136 0 231 95t95 231t-95 231t-231 95t-231 -95t-95 -231t95 -231t231 -95zM335 521l81 -80l-223 -224l71 -71l224 223l79 -80v231z
" />
    <glyph glyph-name="arrowright.salt4" horiz-adv-x="793" 
d="M396 0q-145 0 -247.5 102.5t-102.5 247.5t102.5 247.5t247.5 102.5t247.5 -102.5t102.5 -247.5t-102.5 -247.5t-247.5 -102.5zM396 24q136 0 231 95t95 231t-95 231t-231 95t-231 -95t-95 -231t95 -231t231 -95zM479 508v-115h-316v-101h316v-112l163 164z" />
    <glyph glyph-name="uni2198.salt4" horiz-adv-x="793" 
d="M396 0q-145 0 -247.5 102.5t-102.5 247.5t102.5 247.5t247.5 102.5t247.5 -102.5t102.5 -247.5t-102.5 -247.5t-247.5 -102.5zM396 24q136 0 231 95t95 231t-95 231t-231 95t-231 -95t-95 -231t95 -231t231 -95zM572 406l-81 -81l-223 223l-71 -71l224 -224l-80 -80h230z
" />
    <glyph glyph-name="arrowdown.salt4" horiz-adv-x="793" 
d="M396 0q-145 0 -247.5 102.5t-102.5 247.5t102.5 247.5t247.5 102.5t247.5 -102.5t102.5 -247.5t-102.5 -247.5t-247.5 -102.5zM396 24q136 0 231 95t95 231t-95 231t-231 95t-231 -95t-95 -231t95 -231t231 -95zM551 260h-115v316h-100v-316h-112l162 -163z" />
    <glyph glyph-name="uni2199.salt4" horiz-adv-x="793" 
d="M396 0q-145 0 -247.5 102.5t-102.5 247.5t102.5 247.5t247.5 102.5t247.5 -102.5t102.5 -247.5t-102.5 -247.5t-247.5 -102.5zM396 24q136 0 231 95t95 231t-95 231t-231 95t-231 -95t-95 -231t95 -231t231 -95zM449 166l-82 82l224 224l-70 70l-224 -224l-80 80v-231z
" />
    <glyph glyph-name="arrowleft.salt4" horiz-adv-x="793" 
d="M396 0q-145 0 -247.5 102.5t-102.5 247.5t102.5 247.5t247.5 102.5t247.5 -102.5t102.5 -247.5t-102.5 -247.5t-247.5 -102.5zM396 24q136 0 231 95t95 231t-95 231t-231 95t-231 -95t-95 -231t95 -231t231 -95zM303 189v115h316v100h-316v112l-162 -162z" />
    <glyph glyph-name="uni2196.salt4" horiz-adv-x="793" 
d="M396 0q-145 0 -247.5 102.5t-102.5 247.5t102.5 247.5t247.5 102.5t247.5 -102.5t102.5 -247.5t-102.5 -247.5t-247.5 -102.5zM396 24q136 0 231 95t95 231t-95 231t-231 95t-231 -95t-95 -231t95 -231t231 -95zM210 293l81 81l223 -224l71 71l-224 223l80 80h-230z" />
    <glyph glyph-name="arrowboth.salt4" horiz-adv-x="793" 
d="M396 0q-145 0 -247.5 102.5t-102.5 247.5t102.5 247.5t247.5 102.5t247.5 -102.5t102.5 -247.5t-102.5 -247.5t-247.5 -102.5zM396 24q136 0 231 95t95 231t-95 231t-231 95t-231 -95t-95 -231t95 -231t231 -95zM130 350l162 -163v113h209v-113l164 163l-164 164v-115
h-209v115z" />
    <glyph glyph-name="arrowupdn.salt4" horiz-adv-x="793" 
d="M396 0q-145 0 -247.5 102.5t-102.5 247.5t102.5 247.5t247.5 102.5t247.5 -102.5t102.5 -247.5t-102.5 -247.5t-247.5 -102.5zM396 24q136 0 231 95t95 231t-95 231t-231 95t-231 -95t-95 -231t95 -231t231 -95zM396 618l-163 -163h113v-209h-113l163 -162l165 162h-115
v209h115z" />
    <glyph glyph-name="uni21F5.salt4" horiz-adv-x="793" 
d="M396 0q-145 0 -247.5 102.5t-102.5 247.5t102.5 247.5t247.5 102.5t247.5 -102.5t102.5 -247.5t-102.5 -247.5t-247.5 -102.5zM396 24q136 0 231 95t95 231t-95 231t-231 95t-231 -95t-95 -231t95 -231t231 -95zM376 440h101v-317h100v317h99l-150 149zM415 259h-101v317
h-100v-317h-99l150 -149z" />
    <glyph glyph-name="at.case" horiz-adv-x="895" 
d="M482 400h73v17q0 54 -25 77.5t-78 23.5q-39 0 -62.5 -18t-32.5 -64l-81 4q22 138 181 138q175 0 175 -165v-141q0 -71 64 -71q100 0 100 164q0 151 -85 245.5t-250 94.5q-85 0 -152.5 -29t-109 -78.5t-63.5 -112.5t-22 -133q0 -146 91 -248.5t246 -102.5q132 0 220 69
l35 -52q-93 -76 -255 -76q-184 0 -295 118t-111 292q0 113 48 205.5t144 149t224 56.5q192 0 298 -112.5t106 -285.5q0 -111 -48 -165t-127 -54q-104 0 -121 88q-20 -45 -62 -69t-97 -24q-67 0 -107 35t-40 90q0 64 57 99t162 35zM556 346h-70q-141 0 -141 -79
q0 -31 22.5 -49t58.5 -18q56 0 93.5 41t36.5 105z" />
    <glyph glyph-name="bar.case" horiz-adv-x="266" 
d="M92 764h82v-813h-82v813z" />
    <glyph glyph-name="zerodotted" horiz-adv-x="641" 
d="M592 350q0 172 -70.5 268t-201.5 96q-130 0 -200.5 -96t-70.5 -268t70.5 -268t200.5 -96q131 0 201.5 96t70.5 268zM494 373v-46q0 -261 -174 -261q-173 0 -173 261v46q0 261 173 261q174 0 174 -261zM321 286q-31 0 -50.5 18.5t-19.5 46.5q0 27 19.5 45.5t50.5 18.5
q30 0 49.5 -18.5t19.5 -45.5t-19.5 -46t-49.5 -19z" />
    <glyph glyph-name="zerodotted.sc" horiz-adv-x="617" 
d="M309 -15q-120 0 -191.5 77.5t-71.5 211.5q0 133 72 211t191 78q118 0 189.5 -78t71.5 -211q0 -134 -71.5 -211.5t-189.5 -77.5zM309 58q74 0 119.5 53.5t45.5 146.5v32q0 93 -45.5 146.5t-119.5 53.5q-75 0 -121.5 -53.5t-46.5 -146.5v-32q0 -93 46.5 -146.5t121.5 -53.5
zM310 210q-30 0 -49 18.5t-19 45.5t19 45.5t49 18.5t49.5 -18.5t19.5 -45.5t-19.5 -45.5t-49.5 -18.5z" />
    <glyph glyph-name="NULL" horiz-adv-x="0" 
 />
    <glyph glyph-name="logo" horiz-adv-x="967" 
d="M786 350q71 -32 94 -50q52 -43 52 -119t-48 -124q-40 -40 -78.5 -48.5t-127.5 3.5q-18 -10 -18 -25q0 -10 11 -18q-14 -1 -25 6t-11 17q0 13 13 24h-13q-12 -19 -12 -25q0 -9 10 -22q-34 4 -34 26q0 12 12 22l-7 1q-13 -11 -13 -26q0 -4 7 -20q-31 9 -31 30q0 11 14 27
q-3 21 11 32t33 11q18 0 78 -13l-3 31q-2 19 -15.5 33t-29 20.5t-47.5 18.5t-54 22l-7 -139q-1 -16 -7 -23t-18 -4q-19 -17 -19 -29q0 -7 8 -17q-32 2 -32 24q0 11 11 22h-11q-13 -18 -13 -24q0 -10 11 -21q-13 0 -24 5.5t-11 14.5t8 25h-6q-11 -13 -11 -24q0 -12 11 -18
q-14 -1 -25 7.5t-11 19.5q0 15 14 29q-4 18 10.5 30t33.5 9l20 -3l-27 162q-23 1 -46 13l18 86l14 -15l-8 47l44 206q44 0 84 53q-25 23 -60 30l-24 -83h-1l-14 74q-24 -15 -44 -41q8 -33 58 -33l-58 -108l-6 36q-29 10 -73 29h-1l4 15l4 18q17 1 35.5 13t29.5 32
q-15 27 -51 30l-14 -75h-1l-18 71q-39 -22 -50 -29q6 -42 68 -42l-11 -16l-7 -11l-2 1q-81 44 -81 114v62l57 -44q51 25 111 25q51 0 116 -13q31 23 64 31q-5 -9 -8 -34.5t-6 -49.5t-19.5 -51t-47.5 -43q-5 -106 134 -182q123 -67 164 -129.5t13 -145.5q22 11 38 37.5
t16 61.5q0 56 -26.5 85t-78.5 48q-59 22 -86 50.5t-27 73.5q0 36 23 55.5t61 19.5q67 0 76 -49q2 -21 -7 -32l-5 14q-2 -5 -2 -16q0 -22 -48 -22q17 29 17 51q0 17 -28 17q-18 0 -29.5 -11.5t-11.5 -29.5q0 -40 78 -74zM332 529l5 8l-4 -8h-1zM337 527l4 8l-3 -8h-1z
M340 526l3 8l-3 -9v1zM244 128l96 180l3 -4l-104 -194l-23 -96h-5l19 79l-42 -79h-5l52 96l55 227h-12l-107 -323h-5l107 323h-16l-132 -323h-5l132 323h-15l-163 -323h-5l163 323h-17l-195 -323h-5l195 323l-136 -1v102l66 1q-2 6 -2 9q0 15 10 24q-1 17 14 26.5t45 9.5
q49 0 74 -25l11 -11l39 58l1 -1l-37 -60l3 -3l35 63l2 -1l-34 -65l3 -3l31 68l2 -1l-30 -70l3 -3l28 73l2 -1l-27 -76l3 -3l24 78l2 -1l-22 -81l2 -2h25v-25l33 -34l-40 -74q-4 5 -11 15.5l-9 13.5h-25zM460 523l-36 -79l-1 9zM461 517l-34 -90l-2 11zM466 512l-30 -141
l-4 25zM462 510l-31 -106l-3 16zM383 379l-3 3l42 77l1 -6zM162 441v-2h10q0 12 7 20h-8q-9 -7 -9 -18zM205 458q-9 -7 -9 -19h13q0 13 6 20zM237 449q-3 -2 -5 -9h10zM424 444l1 -6l-32 -70l-2 3zM78 435v-95l265 1v96h-17l-94 -1q0 -9 10 -18q-8 -1 -19.5 4t-13.5 14h-13
q2 -12 6 -16q-24 2 -29 16h-10q3 -10 13 -18q-27 3 -35 17h-63zM427 427l1 -7l-24 -64l-3 3zM106 414h29l19 -64h-24l-2 11h-16l-2 -11h-21zM201 414v-15h-15v-49h-21v49h-16v15h52zM215 414h29l18 -64h-23l-3 11h-17l-3 -11h-18zM331 414l-20 -29l25 -35h-27l-17 27v-27
h-23v64h23v-27l18 27h21zM431 404l1 -8l-15 -52l-3 3zM222 374h11l-5 21zM115 374h10l-5 20zM383 379l8 -8l-37 -80q-3 3 -11 13zM427 332l9 39l1 -10l-6 -32zM393 368l8 -9l-32 -84q-8 8 -12 13zM404 356l10 -9l-26 -88q-10 8 -15 13zM417 344l10 -12l-18 -87l-18 12z
M228 14l126 277l3 -3l-124 -274h-5zM271 14l98 261q2 -1 4 -3l-97 -258h-5zM315 14l73 245q2 -2 3 -2l-71 -243h-5zM359 14l50 231l4 -2l-49 -229h-5z" />
    </font>
</defs>
</svg>
